<svg xmlns="http://www.w3.org/2000/svg" xmlns:xlink="http://www.w3.org/1999/xlink" id="Layer_1" x="0" y="0" version="1.1" viewBox="0 0 200 180" style="enable-background:new 0 0 200 180" xml:space="preserve"><style type="text/css">.st0{fill-rule:evenodd;clip-rule:evenodd;fill:#1f1f1f}</style><desc>Created with Sketch.</desc><g id="Logo_x2F_Atomic"><path id="Fill-1" d="M134.9,84.7l-3.8,9.7H131l-3.8-9.7h-7.2v15.6h5.2v-9.1h0.2l3.8,9.1h4l3.7-9.1h0.2v9.1h5.2V84.7 H134.9z M144.5,100.3h5.3V84.7h-5.3V100.3z M160.9,96.7c-2.9,0-3.7-1.9-3.7-4.2c0-2.2,0.7-4.1,3.7-4.1c1.8,0,2.8,0.7,3.3,1.8h5.8 c-0.8-3.7-3.6-5.8-9.1-5.8c-6.5,0-9.5,3.2-9.5,8.3c0,5,3,8.2,9.5,8.2c5.5,0,8.3-2.3,9.1-6.1h-5.7C163.8,95.9,163,96.7,160.9,96.7z M108.7,96.7c-2.9,0-3.7-1.9-3.7-4.2c0-2.2,0.8-4.2,3.7-4.2c3,0,3.7,1.8,3.7,4.2C112.5,94.8,111.7,96.7,108.7,96.7z M108.7,84.3 c-6.5,0-9.5,3.2-9.5,8.2c0,4.9,3,8.2,9.5,8.2c6.5,0,9.5-3.2,9.5-8.2C118.3,87.5,115.2,84.3,108.7,84.3z M82,89.3h5.5v11H93v-11h5.6 v-4.5H82V89.3z M71.8,94.3l2.2-4.8h0.2l2.3,4.8H71.8z M77.2,84.7l7.9,15.6h-5.9l-1.1-2.4h-8l-1.1,2.4h-5.9l7.9-15.6H77.2z M44.4,101.7h-0.1l-14.2,7.5L30,109l6.7-10.4c2.1-3.3,2.4-4.1,3.1-7.3L44.3,70h0.2L49,91.4c0.7,3.2,1,4,3.1,7.3l6.7,10.4l-0.1,0.2 L44.4,101.7z" class="st0"/></g></svg>