<?xml version="1.0" encoding="UTF-8"?>
<svg width="320px" height="180px" viewBox="0 0 320 180" version="1.1" xmlns="http://www.w3.org/2000/svg" xmlns:xlink="http://www.w3.org/1999/xlink">
    <!-- Generator: Sketch 52.5 (67469) - http://www.bohemiancoding.com/sketch -->
    <title>Logo/Atomic</title>
    <desc>Created with Sketch.</desc>
    <g id="Logo/Atomic" stroke="none" stroke-width="1" fill="none" fill-rule="evenodd">
        <path d="M194.855356,84.7403602 L191.079005,94.4086207 L190.956399,94.4086207 L187.149054,84.7403602 L179.94003,84.7403602 L179.94003,100.296964 L185.125656,100.296964 L185.125656,91.2077185 L185.279255,91.2077185 L189.034487,100.296964 L193.009694,100.296964 L196.756149,91.2077185 L196.909748,91.2077185 L196.909748,100.296964 L202.095374,100.296964 L202.095374,84.7403602 L194.855356,84.7403602 Z M204.456417,100.296964 L209.7353,100.296964 L209.7353,84.7403602 L204.456417,84.7403602 L204.456417,100.296964 Z M220.945863,96.7200176 C218.062034,96.7200176 217.263591,94.8134649 217.263591,92.4889022 C217.263591,90.2540307 218.000045,88.3771007 220.915417,88.3771007 C222.75669,88.3771007 223.739178,89.0622638 224.198605,90.1349912 L230,90.1349912 C229.201283,86.4691765 226.438139,84.3237217 220.945863,84.3237217 C214.47055,84.3237217 211.432573,87.5416296 211.432573,92.5783191 C211.432573,97.5560373 214.440105,100.744048 220.915417,100.744048 C226.409065,100.744048 229.201283,98.4798281 230,94.664254 L224.322856,94.664254 C223.770172,95.9169121 223.033444,96.7200176 220.945863,96.7200176 Z M168.742083,96.7200176 C165.826163,96.7200176 165.059537,94.8439105 165.059537,92.5486963 C165.059537,90.3127276 165.826163,88.3771007 168.742083,88.3771007 C171.718346,88.3771007 172.455624,90.224408 172.455624,92.5486963 C172.455624,94.7852135 171.718346,96.7200176 168.742083,96.7200176 Z M168.742083,84.3237217 C162.235777,84.3237217 159.259514,87.4826584 159.259514,92.5486963 C159.259514,97.495969 162.266497,100.744048 168.742083,100.744048 C175.248116,100.744048 178.254825,97.5859344 178.254825,92.5486963 C178.254825,87.5416296 175.248116,84.3237217 168.742083,84.3237217 Z M141.977111,89.2707202 L147.495444,89.2707202 L147.495444,100.296964 L152.967972,100.296964 L152.967972,89.2707202 L158.518396,89.2707202 L158.518396,84.7403602 L141.977111,84.7403602 L141.977111,89.2707202 Z M131.818155,94.3373067 L134.061803,89.4890508 L134.215951,89.4890508 L136.477703,94.3373067 L131.818155,94.3373067 Z M137.22266,84.6514919 L145.079545,100.296964 L139.212595,100.296964 L138.127799,97.9433273 L130.137613,97.9433273 L129.068451,100.296964 L123.198485,100.296964 L131.054272,84.6514919 L137.22266,84.6514919 Z M104.429294,101.6722 L104.32534,101.6722 L90.1053253,109.171143 L90,109.014527 L96.668409,98.6484858 C98.8034409,95.3164755 99.1139312,94.5350385 99.7944315,91.3579991 L104.273775,70 L104.481682,70 L108.960477,91.3579991 C109.637686,94.5350385 109.951467,95.3164755 112.086499,98.6484858 L118.754908,109.014527 L118.649309,109.171143 L104.429294,101.6722 Z" id="Fill-1" fill="#1F1F1F"></path>
    </g>
</svg>