<?xml version="1.0" encoding="utf-8"?>
<!-- Generator: Adobe Illustrator 16.0.0, SVG Export Plug-In . SVG Version: 6.00 Build 0)  -->
<!DOCTYPE svg PUBLIC "-//W3C//DTD SVG 1.1//EN" "http://www.w3.org/Graphics/SVG/1.1/DTD/svg11.dtd">
<svg version="1.1" id="Layer_1" xmlns="http://www.w3.org/2000/svg" xmlns:xlink="http://www.w3.org/1999/xlink" x="0px" y="0px"
	 width="320px" height="180px" viewBox="0 0 320 180" enable-background="new 0 0 320 180" xml:space="preserve">
<g>
	<g>
		<path d="M191.058,73.999c-3.923,0-7.526,1.344-10.355,3.578c-2.822-2.234-6.426-3.578-10.35-3.578
			c-3.923,0-7.526,1.344-10.355,3.578c-2.829-2.234-6.426-3.578-10.355-3.578s-7.527,1.344-10.356,3.578
			c-2.823-2.234-6.426-3.578-10.349-3.578c-9.076,0-16.437,7.162-16.437,16.001s7.361,16.001,16.437,16.001
			c3.923,0,7.526-1.344,10.355-3.578c2.822,2.234,6.426,3.578,10.35,3.578c3.923,0,7.526-1.344,10.355-3.578
			c2.829,2.234,6.433,3.578,10.355,3.578c3.924,0,7.527-1.344,10.355-3.578c2.829,2.234,6.427,3.578,10.356,3.578
			c9.075,0,16.436-7.162,16.436-16.001C207.494,81.161,200.14,73.999,191.058,73.999z M136.674,99.824
			c-2.144,1.606-4.826,2.561-7.745,2.561c-7.021,0-12.717-5.543-12.717-12.385s5.696-12.385,12.724-12.385
			c2.912,0,5.6,0.96,7.744,2.56c-2.17,2.714-3.469,6.119-3.469,9.825C133.212,93.706,134.504,97.11,136.674,99.824z M139.286,97.194
			c-1.491-2.029-2.368-4.506-2.368-7.194c0-2.682,0.877-5.165,2.368-7.194c1.491,2.029,2.368,4.512,2.368,7.194
			S140.777,95.165,139.286,97.194z M157.386,99.824c-2.145,1.606-4.826,2.561-7.744,2.561c-2.912,0-5.601-0.954-7.745-2.561
			c2.17-2.714,3.47-6.118,3.47-9.824c0-3.706-1.3-7.111-3.47-9.825c2.145-1.606,4.826-2.56,7.745-2.56c2.912,0,5.6,0.96,7.744,2.56
			c-2.17,2.714-3.469,6.119-3.469,9.825C153.917,93.706,155.216,97.11,157.386,99.824z M159.997,97.194
			c-1.491-2.029-2.368-4.506-2.368-7.194c0-2.682,0.877-5.165,2.368-7.194c1.491,2.029,2.368,4.512,2.368,7.194
			S161.488,95.165,159.997,97.194z M178.098,99.824c-2.145,1.606-4.833,2.561-7.745,2.561s-5.594-0.954-7.744-2.561
			c2.17-2.714,3.469-6.118,3.469-9.824c0-3.706-1.293-7.111-3.469-9.825c2.145-1.606,4.826-2.56,7.744-2.56
			c2.919,0,5.601,0.96,7.745,2.56c-2.17,2.714-3.47,6.119-3.47,9.825C174.628,93.706,175.921,97.11,178.098,99.824z M180.708,97.194
			c-1.49-2.029-2.367-4.506-2.367-7.194c0-2.682,0.877-5.165,2.367-7.194c1.492,2.029,2.368,4.512,2.368,7.194
			C183.07,92.682,182.193,95.165,180.708,97.194z M191.058,102.385c-2.912,0-5.6-0.954-7.744-2.561
			c2.17-2.714,3.469-6.118,3.469-9.824c0-3.706-1.299-7.111-3.469-9.825c2.145-1.606,4.826-2.56,7.744-2.56
			c7.027,0,12.724,5.549,12.724,12.385C203.781,96.842,198.085,102.385,191.058,102.385z"/>
	</g>
</g>
</svg>
