<?xml version="1.0" encoding="utf-8"?>
<!-- Generator: Adobe Illustrator 25.3.1, SVG Export Plug-In . SVG Version: 6.00 Build 0)  -->
<svg version="1.1" id="Layer_1" xmlns="http://www.w3.org/2000/svg" xmlns:xlink="http://www.w3.org/1999/xlink" x="0px" y="0px"
	 viewBox="0 0 200 180" style="enable-background:new 0 0 200 180;" xml:space="preserve">
<g>
	<g>
		<path d="M131.1,74c-3.9,0-7.5,1.3-10.4,3.6c-2.8-2.2-6.4-3.6-10.4-3.6c-3.9,0-7.5,1.3-10.4,3.6c-2.8-2.2-6.4-3.6-10.4-3.6
			s-7.5,1.3-10.4,3.6c-2.8-2.2-6.4-3.6-10.3-3.6c-9.1,0-16.4,7.2-16.4,16s7.4,16,16.4,16c3.9,0,7.5-1.3,10.4-3.6
			c2.8,2.2,6.4,3.6,10.4,3.6c3.9,0,7.5-1.3,10.4-3.6c2.8,2.2,6.4,3.6,10.4,3.6c3.9,0,7.5-1.3,10.4-3.6c2.8,2.2,6.4,3.6,10.4,3.6
			c9.1,0,16.4-7.2,16.4-16C147.5,81.2,140.1,74,131.1,74z M76.7,99.8c-2.1,1.6-4.8,2.6-7.7,2.6c-7,0-12.7-5.5-12.7-12.4
			s5.7-12.4,12.7-12.4c2.9,0,5.6,1,7.7,2.6c-2.2,2.7-3.5,6.1-3.5,9.8C73.2,93.7,74.5,97.1,76.7,99.8z M79.3,97.2
			c-1.5-2-2.4-4.5-2.4-7.2c0-2.7,0.9-5.2,2.4-7.2c1.5,2,2.4,4.5,2.4,7.2S80.8,95.2,79.3,97.2z M97.4,99.8c-2.1,1.6-4.8,2.6-7.7,2.6
			c-2.9,0-5.6-1-7.7-2.6c2.2-2.7,3.5-6.1,3.5-9.8c0-3.7-1.3-7.1-3.5-9.8c2.1-1.6,4.8-2.6,7.7-2.6c2.9,0,5.6,1,7.7,2.6
			c-2.2,2.7-3.5,6.1-3.5,9.8C93.9,93.7,95.2,97.1,97.4,99.8z M100,97.2c-1.5-2-2.4-4.5-2.4-7.2c0-2.7,0.9-5.2,2.4-7.2
			c1.5,2,2.4,4.5,2.4,7.2S101.5,95.2,100,97.2z M118.1,99.8c-2.1,1.6-4.8,2.6-7.7,2.6s-5.6-1-7.7-2.6c2.2-2.7,3.5-6.1,3.5-9.8
			c0-3.7-1.3-7.1-3.5-9.8c2.1-1.6,4.8-2.6,7.7-2.6c2.9,0,5.6,1,7.7,2.6c-2.2,2.7-3.5,6.1-3.5,9.8C114.6,93.7,115.9,97.1,118.1,99.8z
			 M120.7,97.2c-1.5-2-2.4-4.5-2.4-7.2c0-2.7,0.9-5.2,2.4-7.2c1.5,2,2.4,4.5,2.4,7.2C123.1,92.7,122.2,95.2,120.7,97.2z
			 M131.1,102.4c-2.9,0-5.6-1-7.7-2.6c2.2-2.7,3.5-6.1,3.5-9.8s-1.3-7.1-3.5-9.8c2.1-1.6,4.8-2.6,7.7-2.6c7,0,12.7,5.5,12.7,12.4
			C143.8,96.8,138.1,102.4,131.1,102.4z"/>
	</g>
</g>
</svg>
