<?xml version="1.0" encoding="UTF-8"?>
<svg width="320px" height="180px" viewBox="0 0 320 180" version="1.1" xmlns="http://www.w3.org/2000/svg" xmlns:xlink="http://www.w3.org/1999/xlink">
    <!-- Generator: Sketch 52.5 (67469) - http://www.bohemiancoding.com/sketch -->
    <title>Logo/Breitling</title>
    <desc>Created with Sketch.</desc>
    <g id="Logo/Breitling" stroke="none" stroke-width="1" fill="none" fill-rule="evenodd">
        <path d="M176.044,118.716729 L171.801179,118.716729 L174.126617,113.652483 L176.044,113.652483 L176.044,118.716729 Z M178.019988,111.663567 L172.86705,111.663567 L169.626421,118.721562 L169.612163,120.69175 L176.044,120.69175 L176.044,122.966437 L178.019988,122.966437 L178.019988,120.69175 L179.311937,120.69175 L179.311937,118.716729 L178.019988,118.716729 L178.019988,111.663567 Z M166.066067,119.743208 C165.973146,120.816087 164.36715,121.197679 162.895279,121.197679 C161.427758,121.197679 159.827442,120.816087 159.735729,119.742725 C159.700446,119.3505 159.778383,119.074033 159.987908,118.845417 C160.430521,118.362567 161.520317,118.074379 162.904221,118.074379 C163.420662,118.074379 165.156433,118.130325 165.812679,118.845779 C166.021842,119.072825 166.100262,119.349775 166.066067,119.743208 Z M160.290838,114.039875 C160.697683,113.589046 161.650333,113.330825 162.904221,113.330825 C164.159679,113.330825 165.113054,113.589892 165.520263,114.041446 C165.677104,114.215204 165.734379,114.408537 165.706708,114.668813 C165.643029,115.283129 164.751762,115.903608 162.904221,115.903608 C161.059458,115.903608 160.169038,115.283129 160.104029,114.669175 C160.077687,114.407692 160.135325,114.213513 160.290838,114.039875 Z M166.782729,117.086446 L166.522454,116.8971 L166.757233,116.6767 C167.424354,116.049817 167.622521,115.349829 167.671217,114.873021 C167.755679,114.053167 167.518483,113.308108 166.985729,112.719287 C166.183517,111.827175 164.772063,111.355804 162.904221,111.355804 C161.037225,111.355804 159.626496,111.827175 158.825008,112.719287 C158.292254,113.3098 158.055058,114.054375 158.139642,114.873021 C158.189908,115.350554 158.388075,116.050663 159.049879,116.673558 L159.283812,116.893596 L159.024021,117.082821 C158.825008,117.226492 158.664179,117.366658 158.532592,117.510812 C157.951142,118.143375 157.686396,118.975071 157.767596,119.915033 C157.9045,121.489975 159.323567,123.173546 162.895279,123.173546 L162.904221,123.173546 C166.477383,123.173546 167.896571,121.489975 168.033837,119.91455 C168.113829,118.972896 167.849567,118.141683 167.269204,117.511538 C167.1381,117.367867 166.978962,117.228908 166.782729,117.086446 Z M154.208208,119.743208 C154.115046,120.816087 152.50905,121.197679 151.037058,121.197679 C149.569417,121.197679 147.968375,120.816087 147.876663,119.743208 C147.842104,119.350137 147.919679,119.073188 148.127512,118.845779 C148.578221,118.355317 149.642279,118.074379 151.046846,118.074379 C151.563046,118.074379 153.298696,118.130325 153.955183,118.845054 C154.163862,119.073188 154.2418,119.3505 154.208208,119.743208 Z M148.432254,114.039875 C148.8391,113.589046 149.792233,113.330825 151.046846,113.330825 C152.302908,113.330825 153.255558,113.589892 153.661075,114.041929 C153.818279,114.215204 153.876642,114.408537 153.849454,114.66845 C153.784808,115.283129 152.893179,115.903608 151.046846,115.903608 C149.2016,115.903608 148.310454,115.283129 148.245929,114.669175 C148.219346,114.407692 148.276983,114.213513 148.432254,114.039875 Z M154.924629,117.086446 L154.664112,116.896738 L154.898046,116.6767 C155.565046,116.051388 155.763333,115.350554 155.812271,114.873021 C155.897337,114.055342 155.660625,113.310525 155.127387,112.719287 C154.325296,111.827175 152.914325,111.355804 151.046846,111.355804 C149.178642,111.355804 147.767188,111.827175 146.965458,112.719287 C146.433308,113.310525 146.196958,114.055342 146.282267,114.873021 C146.331446,115.349829 146.528887,116.048971 147.192021,116.673558 L147.425108,116.893113 L147.165437,117.082821 C146.966667,117.226492 146.805596,117.366658 146.67425,117.510812 C146.091592,118.144583 145.827329,118.975796 145.9101,119.91455 C146.045312,121.489975 147.463292,123.173546 151.037058,123.173546 L151.046846,123.173546 C154.618075,123.173546 156.037867,121.490458 156.175496,119.91455 C156.255729,118.974587 155.991104,118.143375 155.410742,117.511054 C155.277463,117.365692 155.118325,117.226975 154.924629,117.086446 Z M141.199292,122.972238 L143.3871,122.972238 L143.3871,111.662842 L141.199292,111.662842 L141.199292,122.972238 Z M162.695058,68.85425 C161.893933,68.3600417 162.6808,67.6219917 163.427188,67.6219917 C164.625371,67.6219917 165.712025,68.6638167 165.712025,68.6638167 C165.712025,68.6638167 163.641062,69.4376333 162.695058,68.85425 Z M151.5622,79.2699625 C148.791612,80.0118792 149.526763,73.932875 153.042408,69.0773083 C156.625237,64.129425 159.436062,62.6436583 159.436062,62.6436583 C158.828996,69.8687667 154.512587,78.4794708 151.5622,79.2699625 Z M168.820342,59.6374458 C167.057262,58.8022458 164.561329,59.2198458 162.283742,60.0504542 L162.278788,60.0427208 C162.449767,56.9108417 161.967883,56 161.967883,56 L159.374317,56.7258458 C159.374317,56.7258458 159.716638,58.544025 159.546746,61.3491708 L159.547229,61.3489292 C152.804246,65.2505167 148.259704,71.7751542 147.006421,76.1627333 C145.640762,80.942175 149.450517,82.5659333 152.655863,80.21355 C160.568512,74.405575 162.176442,61.18955 162.176442,61.18955 C164.561329,60.460925 166.460346,60.8515792 167.576604,61.8132917 C170.380421,64.2279042 166.741767,67.940025 166.741767,67.940025 C166.741767,67.940025 165.804583,66.8417708 164.030508,66.6811833 C161.196725,66.4253792 159.756512,69.8305833 163.518175,70.1941708 C164.145904,70.2550708 165.814371,70.0134042 166.435575,69.7076958 C167.063788,70.8716833 166.874079,76.2665292 163.232767,77.8614083 C159.962292,79.2943708 158.748038,77.283825 158.748038,77.283825 C158.645933,77.283825 156.985079,79.4694583 157.089358,79.673425 C157.089358,79.673425 158.821504,82.2585333 162.621592,81.1496458 C165.618258,80.2754167 167.059679,77.6616708 167.826729,75.7869417 C169.105871,72.6625542 168.184517,69.9132333 167.688738,69.1879917 C172.669729,65.7089583 171.938808,60.98075 168.820342,59.6374458 Z M225.764621,95.0626375 L225.764621,97.5415333 L230.285238,97.5415333 L230.285238,100.558137 C228.780258,101.641529 225.528633,101.456292 225.528633,101.456292 C222.527496,101.456292 219.757996,100.172679 219.757996,96.3347708 C219.757996,92.9316208 222.249458,90.7967375 225.528633,90.7967375 C227.914246,90.7967375 229.621258,91.4389667 230.547808,92.004225 L231.66455,89.6053208 C230.437004,88.9040042 228.345138,88.2002708 225.528633,88.2002708 C220.355154,88.2002708 217.042992,91.2046708 217.042992,96.3347708 C217.042992,101.308875 220.660863,104.053 225.528633,104.053 C230.787904,104.053 233,102.027229 233,101.870871 L233,95.0626375 L225.764621,95.0626375 Z M209.616817,98.9590292 L200.473238,88.7574333 L200.226013,88.4849542 L198.095842,88.4849542 L198.095842,103.869454 L200.810725,103.869454 L200.810725,93.2123167 L210.379638,103.86015 L212.3317,103.86015 L212.3317,88.4704542 L209.616817,88.4704542 L209.616817,98.9590292 Z M188.550371,103.869454 L191.265254,103.869454 L191.265254,88.4849542 L188.550371,88.4849542 L188.550371,103.869454 Z M174.882308,88.4849542 L172.167425,88.4849542 L172.167425,103.871871 L184.151313,103.871871 L184.151313,101.2748 L174.882308,101.2748 L174.882308,88.4849542 Z M161.221013,103.865467 L161.221013,91.0756208 L166.953346,91.0756208 L166.953346,88.479275 L152.773554,88.479275 L152.773554,91.0756208 L158.506008,91.0756208 L158.506008,103.865467 L161.221013,103.865467 Z M145.038046,103.852417 L147.752929,103.852417 L147.752929,88.4833833 L145.038046,88.4833833 L145.038046,103.852417 Z M129.785617,97.4237208 L137.222908,97.4237208 L137.222908,94.9444625 L129.785617,94.9444625 L129.785617,91.0756208 L140.03615,91.0756208 L140.03615,88.479275 L127.070733,88.479275 L127.070733,103.852417 L140.050771,103.852417 L140.050771,101.255225 L129.785617,101.255225 L129.785617,97.4237208 Z M116.363208,95.0505542 C115.156929,95.0505542 110.549554,95.0495875 110.549554,95.0495875 L110.549554,90.9643333 L116.380367,90.9643333 C117.408296,90.9643333 119.174879,91.2368125 119.174879,93.1863375 C119.174879,94.82665 117.569367,95.0505542 116.363208,95.0505542 Z M121.880942,92.9730667 C121.880942,89.2845083 119.012237,88.4849542 116.343633,88.4849542 L107.834671,88.4849542 L107.834671,103.868608 L110.549554,103.868608 L110.549554,97.5284833 L114.575479,97.5293292 L118.543887,103.856525 L121.746817,103.856525 L117.628817,97.5293292 C119.936975,97.344575 121.880942,95.9563208 121.880942,92.9730667 Z M97.7146375,101.425842 L90.6564,101.425842 L90.6564,97.3308 L97.3469417,97.3308 C98.807575,97.3308 100.060858,97.6511292 100.060858,99.3935458 C100.060858,101.120013 98.5831875,101.425842 97.7146375,101.425842 Z M90.6564,90.8957 L96.6084083,90.8957 C98.2482375,90.8957 99.2994875,91.5530333 99.2994875,92.8235958 C99.2994875,93.5820667 99.0766708,94.8978208 97.21765,94.8978208 L90.6564,94.8964917 L90.6564,90.8957 Z M100.625271,95.7448625 C101.655737,94.9838542 101.978604,94.0162208 101.978604,92.7643875 C101.978604,89.6633208 100.304096,88.4655 96.7125667,88.4655 L88,88.4655 L88,103.856525 L97.7146375,103.856525 C101.892571,103.856525 102.835192,101.563471 102.835192,99.1405208 C102.835192,97.9236083 102.176408,96.3822583 100.625271,95.7448625 Z" id="Fill-1" fill="#1F1F1F"></path>
    </g>
</svg>