<?xml version="1.0" encoding="utf-8"?>
<!-- Generator: Adobe Illustrator 25.3.1, SVG Export Plug-In . SVG Version: 6.00 Build 0)  -->
<svg version="1.1" id="Layer_1" xmlns="http://www.w3.org/2000/svg" xmlns:xlink="http://www.w3.org/1999/xlink" x="0px" y="0px"
	 viewBox="0 0 200 180" style="enable-background:new 0 0 200 180;" xml:space="preserve">
<style type="text/css">
	.st0{fill-rule:evenodd;clip-rule:evenodd;fill:#1F1F1F;}
</style>
<desc>Created with Sketch.</desc>
<g id="Logo_x2F_Breitling">
	<path id="Fill-1" class="st0" d="M116,118.7h-4.2l2.3-5.1h1.9V118.7z M118,111.7h-5.2l-3.2,7.1l0,2h6.4v2.3h2v-2.3h1.3v-2H118
		V111.7z M106.1,119.7c-0.1,1.1-1.7,1.5-3.2,1.5c-1.5,0-3.1-0.4-3.2-1.5c0-0.4,0-0.7,0.3-0.9c0.4-0.5,1.5-0.8,2.9-0.8
		c0.5,0,2.3,0.1,2.9,0.8C106,119.1,106.1,119.3,106.1,119.7z M100.3,114c0.4-0.5,1.4-0.7,2.6-0.7c1.3,0,2.2,0.3,2.6,0.7
		c0.2,0.2,0.2,0.4,0.2,0.6c-0.1,0.6-1,1.2-2.8,1.2c-1.8,0-2.7-0.6-2.8-1.2C100.1,114.4,100.1,114.2,100.3,114z M106.8,117.1
		l-0.3-0.2l0.2-0.2c0.7-0.6,0.9-1.3,0.9-1.8c0.1-0.8-0.2-1.6-0.7-2.2c-0.8-0.9-2.2-1.4-4.1-1.4c-1.9,0-3.3,0.5-4.1,1.4
		c-0.5,0.6-0.8,1.3-0.7,2.2c0.1,0.5,0.2,1.2,0.9,1.8l0.2,0.2l-0.3,0.2c-0.2,0.1-0.4,0.3-0.5,0.4c-0.6,0.6-0.8,1.5-0.8,2.4
		c0.1,1.6,1.6,3.3,5.1,3.3h0c3.6,0,5-1.7,5.1-3.3c0.1-0.9-0.2-1.8-0.8-2.4C107.1,117.4,107,117.2,106.8,117.1z M94.2,119.7
		c-0.1,1.1-1.7,1.5-3.2,1.5c-1.5,0-3.1-0.4-3.2-1.5c0-0.4,0-0.7,0.3-0.9c0.5-0.5,1.5-0.8,2.9-0.8c0.5,0,2.3,0.1,2.9,0.8
		C94.2,119.1,94.2,119.4,94.2,119.7z M88.4,114c0.4-0.5,1.4-0.7,2.6-0.7c1.3,0,2.2,0.3,2.6,0.7c0.2,0.2,0.2,0.4,0.2,0.6
		c-0.1,0.6-1,1.2-2.8,1.2c-1.8,0-2.7-0.6-2.8-1.2C88.2,114.4,88.3,114.2,88.4,114z M94.9,117.1l-0.3-0.2l0.2-0.2
		c0.7-0.6,0.9-1.3,0.9-1.8c0.1-0.8-0.2-1.6-0.7-2.2c-0.8-0.9-2.2-1.4-4.1-1.4c-1.9,0-3.3,0.5-4.1,1.4c-0.5,0.6-0.8,1.3-0.7,2.2
		c0,0.5,0.2,1.2,0.9,1.8l0.2,0.2l-0.3,0.2c-0.2,0.1-0.4,0.3-0.5,0.4c-0.6,0.6-0.8,1.5-0.8,2.4c0.1,1.6,1.6,3.3,5.1,3.3h0
		c3.6,0,5-1.7,5.1-3.3c0.1-0.9-0.2-1.8-0.8-2.4C95.3,117.4,95.1,117.2,94.9,117.1z M81.2,123h2.2v-11.3h-2.2V123z M102.7,68.9
		c-0.8-0.5,0-1.2,0.7-1.2c1.2,0,2.3,1,2.3,1S103.6,69.4,102.7,68.9z M91.6,79.3c-2.8,0.7-2-5.3,1.5-10.2c3.6-4.9,6.4-6.4,6.4-6.4
		C98.8,69.9,94.5,78.5,91.6,79.3z M108.8,59.6c-1.8-0.8-4.3-0.4-6.5,0.4l0,0c0.2-3.1-0.3-4-0.3-4l-2.6,0.7c0,0,0.3,1.8,0.2,4.6l0,0
		C92.8,65.3,88.3,71.8,87,76.2c-1.4,4.8,2.4,6.4,5.6,4.1c7.9-5.8,9.5-19,9.5-19c2.4-0.7,4.3-0.3,5.4,0.6c2.8,2.4-0.8,6.1-0.8,6.1
		s-0.9-1.1-2.7-1.3c-2.8-0.3-4.3,3.1-0.5,3.5c0.6,0.1,2.3-0.2,2.9-0.5c0.6,1.2,0.4,6.6-3.2,8.2c-3.3,1.4-4.5-0.6-4.5-0.6
		c-0.1,0-1.8,2.2-1.7,2.4c0,0,1.7,2.6,5.5,1.5c3-0.9,4.4-3.5,5.2-5.4c1.3-3.1,0.4-5.9-0.1-6.6C112.7,65.7,111.9,61,108.8,59.6z
		 M165.8,95.1v2.5h4.5v3c-1.5,1.1-4.8,0.9-4.8,0.9c-3,0-5.8-1.3-5.8-5.1c0-3.4,2.5-5.5,5.8-5.5c2.4,0,4.1,0.6,5,1.2l1.1-2.4
		c-1.2-0.7-3.3-1.4-6.1-1.4c-5.2,0-8.5,3-8.5,8.1c0,5,3.6,7.7,8.5,7.7c5.3,0,7.5-2,7.5-2.2v-6.8H165.8z M149.6,99l-9.1-10.2
		l-0.2-0.3h-2.1v15.4h2.7V93.2l9.6,10.6h2V88.5h-2.7V99z M128.6,103.9h2.7V88.5h-2.7V103.9z M114.9,88.5h-2.7v15.4h12v-2.6h-9.3
		V88.5z M101.2,103.9V91.1h5.7v-2.6H92.8v2.6h5.7v12.8H101.2z M85,103.9h2.7V88.5H85V103.9z M69.8,97.4h7.4v-2.5h-7.4v-3.9H80v-2.6
		h-13v15.4h13v-2.6H69.8V97.4z M56.4,95.1c-1.2,0-5.8,0-5.8,0V91h5.8c1,0,2.8,0.3,2.8,2.2C59.2,94.8,57.6,95.1,56.4,95.1z M61.9,93
		c0-3.7-2.9-4.5-5.5-4.5h-8.5v15.4h2.7v-6.3l4,0l4,6.3h3.2l-4.1-6.3C59.9,97.3,61.9,96,61.9,93z M37.7,101.4h-7.1v-4.1h6.7
		c1.5,0,2.7,0.3,2.7,2.1C40.1,101.1,38.6,101.4,37.7,101.4z M30.7,90.9h6c1.6,0,2.7,0.7,2.7,1.9c0,0.8-0.2,2.1-2.1,2.1l-6.6,0V90.9z
		 M40.6,95.7c1-0.8,1.4-1.7,1.4-3c0-3.1-1.7-4.3-5.3-4.3H28v15.4h9.7c4.2,0,5.1-2.3,5.1-4.7C42.8,97.9,42.2,96.4,40.6,95.7z"/>
</g>
</svg>
