<?xml version="1.0" encoding="utf-8"?>
<!-- Generator: Adobe Illustrator 16.0.0, SVG Export Plug-In . SVG Version: 6.00 Build 0)  -->
<!DOCTYPE svg PUBLIC "-//W3C//DTD SVG 1.1//EN" "http://www.w3.org/Graphics/SVG/1.1/DTD/svg11.dtd">
<svg version="1.1" id="Layer_1" xmlns="http://www.w3.org/2000/svg" xmlns:xlink="http://www.w3.org/1999/xlink" x="0px" y="0px"
	 width="320px" height="180px" viewBox="0 0 320 180" enable-background="new 0 0 320 180" xml:space="preserve">
<path d="M183.867,73.896h-47.89c-4.647,0-9.027,1.79-12.335,5.061c-3.315,3.278-5.143,7.637-5.143,12.283
	c0,4.588,1.828,8.924,5.143,12.217c3.308,3.256,7.688,5.046,12.335,5.046h47.882c4.647,0,9.042-1.79,12.343-5.046
	c3.314-3.285,5.143-7.637,5.143-12.269c0-4.617-1.828-8.945-5.143-12.216C192.901,75.686,188.514,73.896,183.867,73.896z
	 M198.185,91.202c0,3.907-1.605,7.451-4.225,10.026c-0.081,0.082-0.163,0.155-0.244,0.229l-6.578-9.567l4.75-6.793
	c0,0-1.361,0-1.628,0c-0.828,0-1.376,0.267-1.85,0.992c-0.178,0.273-2.604,3.87-2.604,3.87s-2.183-3.234-2.686-3.967
	c-0.504-0.725-1.229-0.91-1.857-0.91h-1.613l4.802,6.852l-4.684,6.838h2.738l3.285-4.914c0,0,4.025,5.905,6.148,9.035
	c-2.323,1.584-5.127,2.516-8.146,2.516h-47.86c-3.958,0-7.562-1.598-10.174-4.181c-2.604-2.575-4.225-6.119-4.225-10.026v-0.037
	c0-3.898,1.613-7.443,4.225-10.025c2.62-2.575,6.216-4.174,10.174-4.174h47.845c3.966,0,7.562,1.599,10.174,4.174
	c2.62,2.582,4.226,6.127,4.226,10.025v0.037H198.185z M179.494,89.826c-0.836-2.915-3.33-4.973-6.719-4.973
	c-3.996,0-7.148,3.057-7.148,7.237s3.078,7.199,7.148,7.199c3.041,0,5.616-1.843,6.637-4.506h-2.486
	c-0.836,1.405-2.175,2.36-4.076,2.36c-2.391,0-4.329-1.71-4.751-4.056c0,0,7.304,0,9.057,0
	C179.228,93.082,179.931,91.373,179.494,89.826z M176.497,91.04c-0.792,0-8.391,0-8.391,0c0.451-2.271,2.346-3.996,4.721-3.996
	c2.108,0,3.84,1.288,4.336,3.093C177.296,90.573,177.155,91.04,176.497,91.04z M166.138,85.498c0-0.274,0.022-0.659,0.015-0.726
	c-3.308-0.178-4.669,0.747-5.35,2.228c0-1.976-1.051-2.116-2.39-2.116v14.029h2.39v-7.141c0-3.308,1.688-4.595,3.744-4.691
	C165.627,87.044,166.138,86.504,166.138,85.498z M153.374,86.889c0,1.769,0,7,0,7c0,2.22-1.147,3.241-3.13,3.241
	c-1.976,0-3.123-1.021-3.123-3.241l-0.007-6.971c0-2.005-1.199-2.064-2.383-2.064v9.375c0,3.463,2.561,5.062,5.513,5.062
	c2.96,0,5.52-1.591,5.52-5.062v-9.359C154.957,84.869,153.374,84.729,153.374,86.889z M139.67,81.361c0,0.097,0,5.542,0,5.542
	c-1.125-1.324-3.012-2.05-4.965-2.05c-3.981,0-7.141,3.057-7.141,7.229c0,4.166,3.152,7.229,7.141,7.229
	c1.953,0,3.7-0.777,4.965-2.05v1.643h2.383V79.481C142.053,79.481,139.67,79.208,139.67,81.361z M134.809,97.1
	c-2.686,0-4.862-2.249-4.862-5.024c0-2.774,2.176-5.023,4.862-5.023c2.804,0,4.861,2.16,4.861,5.023
	C139.67,94.843,137.99,97.1,134.809,97.1z M198.333,74.324h0.511l0.821,1.317h0.518l-0.88-1.347
	c0.236-0.029,0.414-0.104,0.569-0.222c0.163-0.134,0.244-0.341,0.244-0.607c0-0.296-0.089-0.518-0.281-0.666
	c-0.17-0.141-0.437-0.214-0.807-0.214h-1.169v3.056h0.466v-1.317H198.333z M198.333,72.971h0.621c0.074,0,0.163,0.007,0.244,0.021
	c0.082,0.008,0.156,0.037,0.229,0.06c0.06,0.029,0.111,0.081,0.148,0.133c0.037,0.06,0.059,0.148,0.059,0.252
	c0,0.118-0.021,0.215-0.059,0.289c-0.045,0.066-0.097,0.11-0.185,0.147c-0.074,0.037-0.163,0.052-0.26,0.06
	c-0.096,0.007-0.199,0.007-0.296,0.007h-0.503V72.971z M197.023,75.982c0.251,0.244,0.511,0.421,0.844,0.555
	c0.317,0.126,0.65,0.192,1.006,0.192c0.37,0,0.703-0.066,1.014-0.192c0.326-0.141,0.592-0.318,0.829-0.555
	c0.251-0.237,0.422-0.511,0.569-0.829c0.148-0.318,0.215-0.666,0.215-1.051c0-0.37-0.074-0.71-0.215-1.028
	c-0.147-0.318-0.318-0.592-0.569-0.829c-0.237-0.229-0.511-0.414-0.829-0.548c-0.311-0.133-0.651-0.199-1.014-0.199
	c-0.355,0-0.688,0.066-1.006,0.199c-0.341,0.134-0.593,0.318-0.844,0.548c-0.244,0.229-0.415,0.511-0.562,0.829
	c-0.155,0.318-0.222,0.658-0.222,1.028c0,0.385,0.066,0.725,0.222,1.051C196.602,75.472,196.779,75.745,197.023,75.982z
	 M196.875,73.229c0.111-0.273,0.274-0.511,0.474-0.711c0.17-0.192,0.415-0.348,0.681-0.466c0.244-0.111,0.54-0.17,0.836-0.17
	c0.312,0,0.6,0.059,0.844,0.17c0.274,0.118,0.496,0.273,0.681,0.466c0.2,0.2,0.355,0.438,0.474,0.711
	c0.104,0.267,0.156,0.562,0.156,0.873c0,0.325-0.053,0.621-0.156,0.896c-0.118,0.273-0.273,0.511-0.474,0.71
	c-0.185,0.2-0.406,0.355-0.681,0.474c-0.244,0.118-0.532,0.17-0.844,0.17c-0.303,0-0.592-0.052-0.836-0.17
	c-0.273-0.118-0.511-0.273-0.681-0.474c-0.199-0.199-0.362-0.437-0.474-0.71c-0.104-0.274-0.147-0.562-0.147-0.896
	C196.734,73.784,196.771,73.496,196.875,73.229z"/>
</svg>
