<svg xmlns="http://www.w3.org/2000/svg" xmlns:xlink="http://www.w3.org/1999/xlink" id="Layer_1" x="0" y="0" version="1.1" viewBox="0 0 200 180" style="enable-background:new 0 0 200 180" xml:space="preserve"><path d="M123.9,73.9H76c-4.6,0-9,1.8-12.3,5.1c-3.3,3.3-5.1,7.6-5.1,12.3c0,4.6,1.8,8.9,5.1,12.2c3.3,3.3,7.7,5,12.3,5h47.9	c4.6,0,9-1.8,12.3-5c3.3-3.3,5.1-7.6,5.1-12.3c0-4.6-1.8-8.9-5.1-12.2C132.9,75.7,128.5,73.9,123.9,73.9z M138.2,91.2	c0,3.9-1.6,7.5-4.2,10c-0.1,0.1-0.2,0.2-0.2,0.2l-6.6-9.6l4.8-6.8c0,0-1.4,0-1.6,0c-0.8,0-1.4,0.3-1.9,1c-0.2,0.3-2.6,3.9-2.6,3.9	s-2.2-3.2-2.7-4c-0.5-0.7-1.2-0.9-1.9-0.9h-1.6l4.8,6.9l-4.7,6.8h2.7l3.3-4.9c0,0,4,5.9,6.1,9c-2.3,1.6-5.1,2.5-8.1,2.5H75.9	c-4,0-7.6-1.6-10.2-4.2c-2.6-2.6-4.2-6.1-4.2-10v0c0-3.9,1.6-7.4,4.2-10C68.4,78.6,72,77,75.9,77h47.8c4,0,7.6,1.6,10.2,4.2	C136.6,83.7,138.2,87.3,138.2,91.2L138.2,91.2L138.2,91.2L138.2,91.2z M119.5,89.8c-0.8-2.9-3.3-5-6.7-5c-4,0-7.1,3.1-7.1,7.2	s3.1,7.2,7.1,7.2c3,0,5.6-1.8,6.6-4.5h-2.5c-0.8,1.4-2.2,2.4-4.1,2.4c-2.4,0-4.3-1.7-4.8-4.1c0,0,7.3,0,9.1,0	C119.2,93.1,119.9,91.4,119.5,89.8z M116.5,91c-0.8,0-8.4,0-8.4,0c0.5-2.3,2.3-4,4.7-4c2.1,0,3.8,1.3,4.3,3.1	C117.3,90.6,117.2,91,116.5,91z M106.1,85.5c0-0.3,0-0.7,0-0.7c-3.3-0.2-4.7,0.7-5.4,2.2c0-2-1.1-2.1-2.4-2.1v14h2.4v-7.1	c0-3.3,1.7-4.6,3.7-4.7C105.6,87,106.1,86.5,106.1,85.5z M93.4,86.9c0,1.8,0,7,0,7c0,2.2-1.1,3.2-3.1,3.2c-2,0-3.1-1-3.1-3.2l0-7	c0-2-1.2-2.1-2.4-2.1v9.4c0,3.5,2.6,5.1,5.5,5.1c3,0,5.5-1.6,5.5-5.1v-9.4C95,84.9,93.4,84.7,93.4,86.9z M79.7,81.4	c0,0.1,0,5.5,0,5.5c-1.1-1.3-3-2.1-5-2.1c-4,0-7.1,3.1-7.1,7.2c0,4.2,3.2,7.2,7.1,7.2c2,0,3.7-0.8,5-2.1v1.6h2.4V79.5	C82.1,79.5,79.7,79.2,79.7,81.4z M74.8,97.1c-2.7,0-4.9-2.2-4.9-5c0-2.8,2.2-5,4.9-5c2.8,0,4.9,2.2,4.9,5	C79.7,94.8,78,97.1,74.8,97.1z M138.3,74.3h0.5l0.8,1.3h0.5l-0.9-1.3c0.2,0,0.4-0.1,0.6-0.2c0.2-0.1,0.2-0.3,0.2-0.6	c0-0.3-0.1-0.5-0.3-0.7c-0.2-0.1-0.4-0.2-0.8-0.2h-1.2v3.1h0.5L138.3,74.3L138.3,74.3z M138.3,73h0.6c0.1,0,0.2,0,0.2,0	c0.1,0,0.2,0,0.2,0.1c0.1,0,0.1,0.1,0.1,0.1c0,0.1,0.1,0.1,0.1,0.3c0,0.1,0,0.2-0.1,0.3c0,0.1-0.1,0.1-0.2,0.1	c-0.1,0-0.2,0.1-0.3,0.1c-0.1,0-0.2,0-0.3,0h-0.5L138.3,73L138.3,73z M137,76c0.3,0.2,0.5,0.4,0.8,0.6c0.3,0.1,0.6,0.2,1,0.2	c0.4,0,0.7-0.1,1-0.2c0.3-0.1,0.6-0.3,0.8-0.6c0.3-0.2,0.4-0.5,0.6-0.8c0.1-0.3,0.2-0.7,0.2-1.1c0-0.4-0.1-0.7-0.2-1	c-0.1-0.3-0.3-0.6-0.6-0.8c-0.2-0.2-0.5-0.4-0.8-0.5c-0.3-0.1-0.7-0.2-1-0.2c-0.4,0-0.7,0.1-1,0.2c-0.3,0.1-0.6,0.3-0.8,0.5	c-0.2,0.2-0.4,0.5-0.6,0.8c-0.2,0.3-0.2,0.7-0.2,1c0,0.4,0.1,0.7,0.2,1.1C136.6,75.5,136.8,75.7,137,76z M136.9,73.2	c0.1-0.3,0.3-0.5,0.5-0.7c0.2-0.2,0.4-0.3,0.7-0.5c0.2-0.1,0.5-0.2,0.8-0.2c0.3,0,0.6,0.1,0.8,0.2c0.3,0.1,0.5,0.3,0.7,0.5	c0.2,0.2,0.4,0.4,0.5,0.7c0.1,0.3,0.2,0.6,0.2,0.9c0,0.3-0.1,0.6-0.2,0.9c-0.1,0.3-0.3,0.5-0.5,0.7c-0.2,0.2-0.4,0.4-0.7,0.5	c-0.2,0.1-0.5,0.2-0.8,0.2c-0.3,0-0.6-0.1-0.8-0.2c-0.3-0.1-0.5-0.3-0.7-0.5c-0.2-0.2-0.4-0.4-0.5-0.7c-0.1-0.3-0.1-0.6-0.1-0.9	C136.7,73.8,136.8,73.5,136.9,73.2z"/></svg>