<?xml version="1.0" encoding="utf-8"?>
<!-- Generator: Adobe Illustrator 25.3.1, SVG Export Plug-In . SVG Version: 6.00 Build 0)  -->
<svg version="1.1" id="Layer_1" xmlns="http://www.w3.org/2000/svg" xmlns:xlink="http://www.w3.org/1999/xlink" x="0px" y="0px"
	 viewBox="0 0 200 180" style="enable-background:new 0 0 200 180;" xml:space="preserve">
<style type="text/css">
	.st0{fill-rule:evenodd;clip-rule:evenodd;fill:#1F1F1F;}
</style>
<desc>Created with Sketch.</desc>
<g id="Logo_x2F_MOP">
	<path id="Fill-1" class="st0" d="M178,97.3c-3,0-4.2-2.6-4.2-4.8c0-2.3,1.2-4.8,4.2-4.8c3,0,4.2,2.6,4.2,4.8
		C182.2,94.8,181,97.3,178,97.3 M178,86.9c-4.3,0-7,2.9-7,5.7c0,2.8,2.7,5.7,7,5.7s7-2.9,7-5.7C185,89.7,182.3,86.9,178,86.9
		 M107.3,97.6c-4.9,0-6.5-3.9-6.5-7.3c0-3.4,1.6-7.3,6.5-7.3c4.9,0,6.5,3.9,6.5,7.3C113.9,93.7,112.3,97.6,107.3,97.6 M107.3,82.1
		c-6.5,0-10.1,4.4-10.1,8.2c0,3.7,3.6,8.2,10.1,8.2c6.5,0,10.1-4.4,10.1-8.2C117.5,86.5,113.8,82.1,107.3,82.1 M121.2,82
		c-0.8,0-1.5,0.6-1.5,1.3c0,1.5,1.7,1.5,1.7,1.7c0,0.7-0.7,1.5-1.8,2.3l0.7,0.5c1.3-1,2.8-2.1,2.8-3.9C123.3,82.7,122.5,82,121.2,82
		 M166.6,95.7V82.2l-5.5,0.4v0.8c2.4,0.1,2.8,0.3,2.8,1.5c0,0,0.1,0.5,0.1,5.3c0,4.8-0.1,5.3-0.1,5.3c0,1.5-0.3,1.7-2.4,1.7V98h7.5
		v-0.9C167,97.2,166.6,96.8,166.6,95.7 M132,89.9v-5.1c0-1.2,0.8-1.3,3.9-1.3c3.6,0,5.7,1,5.7,3.1C141.6,89.3,139.8,89.9,132,89.9
		 M136.4,82.5H126v0.9c3,0,3,0.3,3.1,1.9c0,0,0,0.5,0,4.8c0,4.3,0,4.8,0,4.8c-0.1,2-0.3,2.3-3.1,2.3V98h9.4v-0.8
		c-3.3,0-3.3-0.1-3.3-2.3v-3.9h3.6c3.8,0,9.3-0.5,9.3-4.1C145,83.6,141.3,82.5,136.4,82.5 M52,93.2c-0.1,1.9-1.8,3.8-4.6,3.8
		c-1,0-2-0.6-2.1-1.5c-0.3-2.6,4.6-2.9,6.7-3.4C52,92.2,52,92.2,52,93.2 M55.7,97.1c-0.9,0-1.1-0.7-1.1-1.8v-5.1
		c0-3-3.3-3.4-5.8-3.4c-0.6,0-1.3,0-1.9,0.1c-0.6,0.1-1.1,0.2-1.6,0.4c0,0,0,0,0,0c0,0,0,0,0,0c-1.2,0.4-2.2,1.4-2.2,2.4
		c0,0.7,0.7,1.5,1.6,1.5c1,0,1.7-0.6,1.7-1.4c0-0.7-0.4-1.2-1.2-1.4c0.1-0.1,0.6-0.3,1.1-0.5c0.7-0.2,1.7-0.2,2.2-0.2
		c2.4,0,3.4,0.9,3.5,2.6c0,0.8,0,0.9,0,0.9c-3.6,0.9-9.5,0.8-9.6,4.1c0,1.5,1.6,2.8,3.8,2.8c2.8,0,4.4-0.9,5.7-2.6H52
		c0.1,1.4,1,2.6,2.8,2.6c1.9,0,2.5-1,2.6-1.1l-0.6-0.6C56.6,96.7,56.2,97.1,55.7,97.1 M36.9,95.4c0,0,0-0.2,0-5.4c0-5,0-5,0-5
		c0.1-1.4-0.1-1.7,3.1-1.7v-0.8h-7.5l-5,11.3h-0.1l-4.6-11.3H15v0.8c3.4,0,3.1,0.1,3.2,1.7c0,0,0,0.4,0,4.5c0,4,0,4.6,0,4.6
		c-0.1,2.6-0.8,3.1-3.2,3.1V98h7.6v-0.8c-2.5-0.2-2.9-0.6-2.9-2.7v-11h0.5l6.3,15H27l6.6-15.1H34v12.3c0,1.2-0.2,1.4-3.1,1.5V98h9.2
		v-0.8C37.1,97.1,36.9,97,36.9,95.4 M152.6,97.3c-3,0-4.2-2.6-4.2-4.8c0-2.3,1.2-4.8,4.2-4.8c3,0,4.1,2.6,4.1,4.8
		C156.7,94.8,155.6,97.3,152.6,97.3 M152.6,86.9c-4.3,0-7,2.9-7,5.7c0,2.8,2.7,5.7,7,5.7c4.3,0,7-2.9,7-5.7
		C159.6,89.7,156.9,86.9,152.6,86.9 M69.9,86.8c-0.1,0-0.3,0-0.5,0c-0.3,0-0.5,0-0.8,0.1c0,0,0,0,0,0c-2.4,0.4-3.7,2.1-4.5,4H64
		v-4.1l-5,0.2v0.8c2.4,0.1,2.4,0.3,2.4,2.3c0,0,0,0.6,0,2.9c0,2.3,0,2.9,0,2.9c0,1.1-0.2,1.3-2.4,1.3V98h7.6v-0.8
		c-2.7,0-2.7-0.1-2.7-1.8c0-3.4,2.3-7.8,5.1-7.7c0.2,0,0.5,0,0.5,0.1c0,0,0,0,0,0.1c0,0.2-0.9,0.4-0.9,1.4c0,1,1,1.3,1.6,1.3
		c1.1,0,1.6-1,1.7-1.5C72.1,88.1,71.6,87.1,69.9,86.8 M81.5,97c-3.6,0-4.5-2.9-4.5-4.7c0-1.8,1.2-4.6,4.4-4.6c0.9,0,2.5,0.2,3.1,0.9
		c0,0.1,0.1,0.1,0.1,0.2c0,0-0.1,0.1-0.1,0.1c-0.7,0-1.7,0.3-1.7,1.3c0,0.7,0.7,1.3,1.6,1.3c1.2,0,1.7-1,1.7-1.9
		c0-0.5-0.2-1-0.5-1.3c-0.8-1.1-2.8-1.7-4.4-1.7c-3.9,0-7.4,2.8-7.4,5.8c0,3,2.9,5.6,7,5.6c3,0,4.6-1,5.9-2.6l-0.8-0.5
		C85,96.2,83.6,97,81.5,97"/>
</g>
</svg>
