<?xml version="1.0" encoding="UTF-8"?>
<svg width="320px" height="180px" viewBox="0 0 320 180" version="1.1" xmlns="http://www.w3.org/2000/svg" xmlns:xlink="http://www.w3.org/1999/xlink">
    <!-- Generator: Sketch 52.5 (67469) - http://www.bohemiancoding.com/sketch -->
    <title>Logo/MOP</title>
    <desc>Created with Sketch.</desc>
    <g id="Logo/MOP" stroke="none" stroke-width="1" fill="none" fill-rule="evenodd">
        <path d="M237.983371,97.3358214 C234.984086,97.3358214 233.766521,94.7819357 233.766521,92.5197214 C233.766521,90.2573857 234.984086,87.7011929 237.983371,87.7011929 C240.984114,87.7011929 242.197914,90.2573857 242.197914,92.5197214 C242.197914,94.7819357 240.984114,97.3358214 237.983371,97.3358214 M237.983371,86.85095 C233.667557,86.85095 230.966743,89.7176357 230.966743,92.5197214 C230.966743,95.3198643 233.667557,98.1861857 237.983371,98.1861857 C242.299186,98.1861857 245,95.3198643 245,92.5197214 C245,89.7176357 242.299186,86.85095 237.983371,86.85095 M167.34485,97.5797714 C162.397729,97.5797714 160.805436,93.7069286 160.805436,90.2604214 C160.805436,86.8185286 162.397729,82.9415571 167.34485,82.9415571 C172.286993,82.9415571 173.878436,86.8185286 173.878436,90.2604214 C173.878436,93.7069286 172.286993,97.5797714 167.34485,97.5797714 M167.34485,82.0813571 C160.846721,82.0813571 157.22985,86.5144714 157.22985,90.2604214 C157.22985,94.0083143 160.846721,98.4413071 167.34485,98.4413071 C173.836179,98.4413071 177.453171,94.0083143 177.453171,90.2604214 C177.453171,86.5144714 173.836179,82.0813571 167.34485,82.0813571 M181.237371,82 C180.477593,82 179.7336,82.6311857 179.749993,83.2824071 C179.784964,84.8179929 181.497714,84.7416143 181.497714,85.0107 C181.497714,85.7568786 180.828764,86.4785286 179.6809,87.3246429 L180.421129,87.7909286 C181.691393,86.8371071 183.255514,85.6455286 183.255514,83.8604071 C183.255514,82.7302714 182.528764,82 181.237371,82 M226.642671,95.6618071 L226.642671,82.1738857 L221.182636,82.5260286 L221.182636,83.3576929 C223.564336,83.4435429 223.9557,83.6190071 223.9557,84.85685 C223.9557,84.85685 224.024186,85.38045 224.024186,90.1615786 C224.024186,94.9405214 223.9557,95.4859786 223.9557,95.4859786 C223.9557,96.9447 223.627843,97.1837929 221.51025,97.1837929 L221.51025,98.0370714 L228.990371,98.0370714 L228.990371,97.1837929 C227.001371,97.1837929 226.642671,96.7906071 226.642671,95.6618071 M192.035771,89.87865 L192.035771,84.7643214 C192.035771,83.5800286 192.843393,83.4287286 195.944071,83.4287286 C199.593729,83.4287286 201.612843,84.4089 201.607864,86.4966214 C201.601429,89.3288214 199.790929,89.9464071 192.035771,89.87865 M196.363121,82.5362286 L185.963614,82.5362286 L185.963614,83.3977643 C188.934121,83.3977643 188.975529,83.6713429 189.073764,85.3078357 C189.073764,85.3078357 189.08785,85.81905 189.08785,90.0940643 C189.08785,94.3694429 189.060164,94.89025 189.060164,94.89025 C188.965086,96.9317071 188.772379,97.1912 185.932164,97.1912 L185.932164,98.0350071 L195.320536,98.0350071 L195.320536,97.1912 C191.993636,97.1484571 192.035771,97.1029214 192.035771,94.8652357 L192.035771,90.9311929 L195.684093,90.9311929 C199.524636,90.9311929 204.939379,90.4267786 204.975807,86.8647929 C205.012114,83.5687357 201.335014,82.5362286 196.363121,82.5362286 M111.982164,93.1730071 C111.897164,95.1162286 110.1475,96.9825857 107.426286,96.9825857 C106.416486,96.9825857 105.401707,96.3968143 105.308571,95.50565 C105.040943,92.9084143 109.93075,92.5645286 111.998557,92.0755357 C111.998557,92.2445643 112.00475,92.1995143 111.982164,93.1730071 M115.652221,97.0735357 C114.755593,97.0735357 114.581586,96.3885571 114.581586,95.2892643 L114.581586,90.1640071 C114.581586,87.1661786 111.235379,86.8094214 108.76965,86.8094214 C108.138343,86.8094214 107.50995,86.8556857 106.909121,86.94615 C106.331607,87.0157286 105.776193,87.1420143 105.270321,87.3234286 C105.262186,87.3259786 105.252714,87.3274357 105.244943,87.3310786 C105.244943,87.3310786 105.245914,87.3310786 105.24725,87.3319286 C103.999329,87.7809714 103.079993,88.7062571 103.079993,89.7029429 C103.079993,90.44135 103.780271,91.20295 104.639621,91.20295 C105.608136,91.20295 106.360143,90.6426786 106.360143,89.8363929 C106.360143,89.1211786 105.96975,88.6285429 105.162736,88.4262429 C105.26085,88.3276429 105.766236,88.1099214 106.281093,87.9759857 C106.943729,87.7996714 108.003436,87.7673714 108.500079,87.7673714 C110.919664,87.7673714 111.928007,88.6539214 111.982164,90.3854929 C111.998557,91.2152143 111.982164,91.3315429 111.982164,91.3315429 C108.386543,92.2044929 102.465564,92.1204643 102.416021,95.3865286 C102.391979,96.8871429 104.065264,98.2263786 106.216129,98.2263786 C109.020521,98.2263786 110.602007,97.3133571 111.928007,95.6455357 L111.996614,95.6455357 C112.061214,97.0120929 113.036893,98.2263786 114.750129,98.2263786 C116.632029,98.2263786 117.201407,97.2283571 117.307779,97.1511286 L116.662021,96.5572214 C116.5752,96.6631071 116.210307,97.0735357 115.652221,97.0735357 M96.8943,95.4471214 C96.8943,95.4471214 96.8488857,95.2716571 96.8488857,90.0595786 C96.8488857,85.0638857 96.8774214,85.0516214 96.8774214,85.0516214 C96.9307286,83.6096571 96.7589071,83.3824643 100.018536,83.3824643 L100.018536,82.5358643 L92.5339214,82.5358643 L87.5231714,93.7862214 L87.4577214,93.7862214 L82.8459857,82.5358643 L75,82.5358643 L75,83.3824643 C78.4219786,83.3824643 78.1306714,83.5110571 78.2133643,85.0476143 C78.2133643,85.0476143 78.2329143,85.4839071 78.2329143,89.5225 C78.2329143,93.5597571 78.1969714,94.0959857 78.1969714,94.0959857 C78.1252071,96.6558214 77.3563214,97.1890143 75,97.1890143 L75,98.0361 L82.6005786,98.0361 L82.6005786,97.1890143 C80.1125071,96.9967929 79.6617643,96.5445929 79.6617643,94.4578429 L79.6617643,83.4810643 L80.1461429,83.4810643 L86.4125857,98.4660786 L87.0242214,98.4660786 L93.6105071,83.3975214 L94.0294357,83.3975214 L94.0294357,95.7279857 C94.0294357,96.9736 93.87,97.1480929 90.9307,97.1890143 L90.9307,98.0361 L100.0835,98.0361 L100.0835,97.1890143 C97.1442,97.1035286 96.9496714,96.9532 96.8943,95.4471214 M212.6099,97.3349714 C209.610614,97.3349714 208.395479,94.7819357 208.395479,92.51875 C208.395479,90.2555643 209.610614,87.7025286 212.6099,87.7025286 C215.609307,87.7025286 216.705443,90.2555643 216.705443,92.51875 C216.705443,94.7819357 215.609307,97.3349714 212.6099,97.3349714 M212.6099,86.85095 C208.291414,86.85095 205.593393,89.7176357 205.593393,92.51875 C205.593393,95.3198643 208.291414,98.1861857 212.6099,98.1861857 C216.92535,98.1861857 219.626043,95.3198643 219.626043,92.51875 C219.626043,89.7176357 216.92535,86.85095 212.6099,86.85095 M129.863736,86.8333429 C129.720571,86.8069929 129.568786,86.7919357 129.409714,86.7919357 C129.139293,86.7919357 128.880771,86.8205929 128.632207,86.862 C128.627107,86.8633357 128.620793,86.8633357 128.613993,86.8646714 C126.2482,87.2268929 124.913457,88.9387929 124.102679,90.8978 L124.035893,90.8978 L124.035893,86.8046857 L119.030607,87.0510643 L119.030607,87.83355 C121.4151,87.9285071 121.404657,88.1071286 121.431493,90.1267286 C121.431493,90.1267286 121.441936,90.7179643 121.441936,93.0632357 C121.441936,95.4077786 121.4151,95.9304071 121.4151,95.9304071 C121.4151,97.0493714 121.177829,97.2278714 119.062907,97.2278714 L119.062907,98.0350071 L126.688986,98.0350071 L126.688986,97.2278714 C124.002257,97.2278714 124.035893,97.0919929 124.035893,95.4372857 C124.035893,92.01045 126.364893,87.6845571 129.17475,87.7586286 C129.376564,87.7649429 129.646864,87.79445 129.682321,87.8744714 C129.690093,87.89135 129.701507,87.9084714 129.698229,87.9258357 C129.649171,88.1720929 128.758007,88.3512 128.758007,89.3586929 C128.758007,90.3252643 129.735993,90.6710929 130.396807,90.6574929 C131.50205,90.6389143 132.032329,89.6589857 132.065964,89.1123143 C132.129107,88.0920714 131.559729,87.0632071 129.863736,86.8333429 M141.479593,97.0348 C137.850336,97.0348 137.012843,94.1666571 137.012843,92.3829929 C137.012843,90.56885 138.2485,87.7576571 141.440979,87.7576571 C142.296686,87.7576571 143.945807,87.9876429 144.550764,88.7038286 C144.595329,88.7661214 144.620707,88.8296286 144.620707,88.8996929 C144.620707,88.9451071 144.568493,89.0110429 144.487136,89.0110429 C143.8177,89.0110429 142.779364,89.2814643 142.779364,90.3516143 C142.779364,91.0178929 143.510486,91.6954643 144.42715,91.6954643 C145.637793,91.6954643 146.147186,90.6629571 146.147186,89.8099214 C146.147186,89.3038071 145.978157,88.8551286 145.673736,88.4638857 C144.834786,87.3273143 142.874686,86.8046857 141.281907,86.8046857 C137.415014,86.8046857 133.923093,89.6026429 133.923093,92.5821357 C133.923093,95.5381929 136.776057,98.2262571 140.946521,98.2262571 C143.936821,98.2262571 145.550121,97.2619929 146.8947,95.5826357 L146.064129,95.0655929 C144.954757,96.1831 143.564643,97.0348 141.479593,97.0348" id="Fill-1" fill="#1F1F1F"></path>
    </g>
</svg>