<svg xmlns="http://www.w3.org/2000/svg" xmlns:xlink="http://www.w3.org/1999/xlink" id="Layer_1" x="0" y="0" version="1.1" viewBox="0 0 200 180" style="enable-background:new 0 0 200 180" xml:space="preserve"><g><path id="path31407" d="M164.3,96.1c0.5,0,3.8,0.1,3.8-6.5c0-6.2-3.3-6-3.8-6h0c-0.5,0-3.8-0.2-3.8,6 C160.4,96.3,163.7,96.1,164.3,96.1C164.2,96.1,164.3,96.1,164.3,96.1z M164.3,98.4c-1.1,0-8.3-0.2-8.3-8.5c0-8.2,7.2-8.3,8.3-8.3 c1.1,0,8.3,0.1,8.3,8.3C172.5,98.2,165.3,98.4,164.3,98.4"/><path id="path31409" d="M153.9,82.5v2c-0.8-0.4-1.3-0.6-2.2-0.9c-0.7-0.2-3.7-0.9-5.2,0.6c-0.6,0.6-0.8,1.7,0.4,2.6 c1.7,1.1,4.1,1.6,6.1,3.2c1.3,1,1.7,2.3,1.4,4.1c-0.3,1.9-2.4,3.4-4.3,3.8c-2.7,0.5-5.7,0.3-8.2-0.7l0-2c2.2,0.9,5.7,2.1,7.8,0.2 c0.6-0.5,0.9-1.3,0.6-2.1c-0.5-1.5-4.5-2.3-6.9-4.1c-2.4-1.5-2.2-4-1.3-5.4C144.5,80.6,150.3,81.6,153.9,82.5"/><path id="path31411" d="M140,82.5v2c-0.8-0.4-1.3-0.6-2.2-0.9c-0.7-0.2-3.7-0.9-5.2,0.6c-0.6,0.6-0.8,1.7,0.4,2.6 c1.7,1.1,4.2,1.6,6.2,3.2c1.3,1,1.7,2.3,1.4,4.1c-0.3,1.9-2.4,3.4-4.3,3.8c-2.7,0.5-5.7,0.3-8.2-0.7l0-2c2.2,0.9,5.7,2.1,7.8,0.2 c0.6-0.5,0.9-1.3,0.6-2.1c-0.5-1.5-4.5-2.3-6.9-4.1c-2.4-1.5-2.2-4-1.4-5.4C130.6,80.6,136.4,81.6,140,82.5"/><path id="path31413" d="M83.1,82.5v2c-0.9-0.4-1.3-0.6-2.2-0.9c-0.7-0.2-3.7-0.9-5.1,0.6C75.1,85,75,86.1,76.2,87 c1.7,1.1,4.1,1.6,6.1,3.2c1.3,1,1.7,2.3,1.4,4.1c-0.3,1.9-2.4,3.4-4.3,3.8c-2.7,0.5-5.8,0.3-8.2-0.7l0-2c2.2,0.9,5.7,2.1,7.8,0.2 c0.6-0.5,0.9-1.3,0.6-2.1c-0.5-1.5-4.4-2.3-6.9-4.1c-2.4-1.5-2.2-4-1.4-5.4C73.8,80.6,79.5,81.6,83.1,82.5"/><path id="path31415" d="M62.6,96.5c2.2,0.2,4.9-0.1,7-0.2l0,1.8H58.1c0,0,0.4-0.4,0.4-1V82.9c0-0.6-0.4-1-0.4-1h11.6l0,1.8 c-2.1,0-4.8-0.4-7-0.2c0,0,0,5,0,5.4c1.8,0.1,3.9,0.1,5.6-0.1v1.9c-1.7-0.2-3.8-0.2-5.6-0.1l0,0.6"/><path id="path31417" d="M119.6,96.5c2.2,0.2,4.9-0.1,7-0.2l0,1.8H115c0,0,0.4-0.4,0.4-1V82.9c0-0.6-0.4-1-0.4-1h11.6l0,1.8 c-2.1,0-4.8-0.4-7-0.2c0,0,0,5,0,5.4c1.8,0.1,3.9,0.1,5.6-0.1v1.9c-1.7-0.2-3.8-0.2-5.6-0.1v0.6"/><path id="path31419" d="M103.8,83.9v5.5c1.4,0,3.1,0.2,4.1-0.9c0.8-1.1,0.7-2.5,0.1-3.5C107,83.3,103.8,83.9,103.8,83.9 M103.8,91.4v5.7c0,0.6,0.4,1,0.4,1l-5,0c0,0,0.4-0.4,0.4-1l0-14.2c0-0.6-0.4-1-0.4-1h8.4c2.3,0.1,4.7,1.4,4.8,4.1 c0,2.3-1,3.6-2.5,4.3c-0.3,0.1-0.3,0.1-0.4,0.2c1.1,2.5,2,4.3,3.3,6.7c0.3,0.6,0.8,1,0.8,1h-5.1c0,0,0.3-0.4,0-1 c0,0-1.8-4.3-2.7-5.7"/><path id="path31421" d="M89.9,83.9l0,6.1c1.4,0.1,3.1,0.3,4.1-0.9c0.8-1.1,0.7-3.2,0.1-4.2C93.1,83.3,89.9,83.9,89.9,83.9 M89.9,97.1c0,0.6,0.4,1,0.4,1l-4.9,0c0,0,0.4-0.4,0.4-1V82.9c0-0.6-0.4-1-0.4-1h8.2c2.1,0.1,3.6,1,4.3,3c0.5,1.7,0.4,4-0.8,5.4 c-1.7,2.2-7.1,1.9-7.1,1.9"/><g id="g31425"><path id="path31431" d="M52.6,81.9c0,0,0.4,0.4,0.4,1v7.2c-2.2-2.5-4.1-5.4-6.3-8c-0.8-1-2.4-2.7-3-3.2 c-3.9-3.8-10.3-5.6-16.2-3.5v0.2c2-0.4,4.7-0.3,7.3,0.8c1.9,0.7,4.7,2.9,6.3,4.9c2.1,2.4,6.5,8.5,6.5,8.5c2.5,3.3,4.8,6.3,7.4,9.4 V82.9c0-0.6,0.4-1,0.4-1"/><path id="path31433" d="M41.1,98.1c0,0-0.4-0.4-0.4-1v-7.2c2.1,2.5,4.1,5.4,6.3,8c0.8,1,2.4,2.7,3,3.2c3.9,3.8,10.3,5.6,16.2,3.4 v-0.2c-2,0.4-4.7,0.3-7.3-0.8c-1.9-0.7-4.7-2.9-6.3-4.9c-2.1-2.4-6.5-8.5-6.5-8.5c-2.5-3.3-4.8-6.3-7.4-9.4v16.3 c0,0.6-0.4,1-0.4,1"/></g></g></svg>