<?xml version="1.0" encoding="utf-8"?>
<!-- Generator: Adobe Illustrator 16.0.0, SVG Export Plug-In . SVG Version: 6.00 Build 0)  -->
<!DOCTYPE svg PUBLIC "-//W3C//DTD SVG 1.1//EN" "http://www.w3.org/Graphics/SVG/1.1/DTD/svg11.dtd">
<svg version="1.1" id="Layer_1" xmlns="http://www.w3.org/2000/svg" xmlns:xlink="http://www.w3.org/1999/xlink" x="0px" y="0px"
	 width="320px" height="180px" viewBox="0 0 320 180" enable-background="new 0 0 320 180" xml:space="preserve">
<g>
	<path id="path31407" d="M224.255,96.129c0.46,0,3.798,0.141,3.771-6.514
		c-0.022-6.178-3.27-5.993-3.801-5.993h0.01c-0.531,0-3.777-0.185-3.805,5.993c-0.03,6.655,3.308,6.514,3.765,6.514H224.255z
		 M224.268,98.394c-1.105,0.018-8.332-0.231-8.332-8.466c0.03-8.208,7.183-8.319,8.289-8.312c1.112-0.007,8.262,0.104,8.275,8.312
		c0.02,8.235-7.214,8.484-8.319,8.466"/>
	<path id="path31409"  d="M213.868,82.542v2.043c-0.84-0.359-1.32-0.622-2.215-0.864
		c-0.702-0.155-3.711-0.867-5.156,0.646c-0.604,0.612-0.786,1.734,0.424,2.608c1.704,1.103,4.141,1.613,6.141,3.247
		c1.314,1.035,1.738,2.255,1.405,4.121c-0.343,1.896-2.413,3.425-4.272,3.815c-2.705,0.544-5.747,0.289-8.161-0.729l0.018-2.014
		c2.215,0.928,5.66,2.107,7.798,0.231c0.592-0.541,0.948-1.304,0.639-2.097c-0.48-1.456-4.454-2.323-6.877-4.128
		c-2.407-1.476-2.188-4.01-1.349-5.405C204.527,80.623,210.272,81.561,213.868,82.542"/>
	<path id="path31411" d="M199.99,82.542v2.043c-0.848-0.359-1.324-0.622-2.215-0.864
		c-0.696-0.155-3.718-0.867-5.153,0.646c-0.611,0.612-0.796,1.734,0.403,2.608c1.718,1.103,4.151,1.613,6.158,3.247
		c1.311,1.035,1.73,2.255,1.395,4.121c-0.336,1.896-2.417,3.425-4.266,3.815c-2.706,0.544-5.747,0.289-8.153-0.729l0.01-2.014
		c2.218,0.928,5.66,2.107,7.808,0.231c0.571-0.541,0.935-1.304,0.632-2.097c-0.494-1.456-4.46-2.323-6.88-4.128
		c-2.403-1.476-2.188-4.01-1.352-5.405C190.643,80.623,196.391,81.561,199.99,82.542"/>
	<path id="path31413" d="M143.125,82.542v2.043c-0.854-0.359-1.325-0.622-2.226-0.864
		c-0.699-0.155-3.708-0.867-5.143,0.646c-0.615,0.612-0.796,1.734,0.414,2.608c1.701,1.103,4.144,1.613,6.144,3.247
		c1.314,1.035,1.734,2.255,1.401,4.121c-0.336,1.896-2.419,3.425-4.269,3.815c-2.702,0.544-5.751,0.289-8.161-0.729l0.01-2.014
		c2.225,0.928,5.667,2.107,7.812,0.231c0.582-0.541,0.938-1.304,0.625-2.097c-0.481-1.456-4.447-2.323-6.874-4.128
		c-2.403-1.476-2.181-4.01-1.354-5.405C133.777,80.623,139.528,81.561,143.125,82.542"/>
	<path id="path31415" d="M122.645,96.479c2.192,0.218,4.871-0.118,7.008-0.175l0.01,1.818H118.06
		c0,0,0.363-0.377,0.363-1.009V82.875c0-0.628-0.363-1.018-0.363-1.018h11.603l-0.01,1.818c-2.138-0.037-4.816-0.387-7.008-0.162
		c0,0-0.003,5.029-0.003,5.372c1.798,0.111,3.912,0.127,5.593-0.084v1.929c-1.65-0.155-3.812-0.185-5.593-0.091l0.003,0.618"/>
	<path id="path31417" d="M179.577,96.479c2.191,0.218,4.864-0.118,7.012-0.175l0.004,1.818
		h-11.587c0,0,0.356-0.377,0.356-1.009V82.875c0-0.628-0.356-1.018-0.356-1.018h11.587l-0.004,1.818
		c-2.147-0.037-4.82-0.387-7.012-0.162c0,0-0.007,5.029-0.007,5.372c1.802,0.111,3.916,0.127,5.606-0.084v1.929
		c-1.653-0.155-3.821-0.185-5.6-0.091v0.618"/>
	<path id="path31419"  d="M163.796,83.907v5.489c1.398,0,3.093,0.185,4.064-0.938
		c0.826-1.099,0.686-2.515,0.138-3.52C167.026,83.302,163.796,83.907,163.796,83.907 M163.823,91.406v5.707
		c0.003,0.629,0.363,1.019,0.363,1.019l-4.955-0.01c0,0,0.356-0.377,0.36-1.009l-0.004-14.238c0-0.629-0.356-1.019-0.356-1.019h8.45
		c2.296,0.098,4.726,1.364,4.797,4.124c0.026,2.252-0.972,3.553-2.474,4.272c-0.286,0.134-0.266,0.101-0.363,0.168
		c1.065,2.477,2.03,4.302,3.314,6.692c0.262,0.629,0.779,1.009,0.779,1.009h-5.119c0,0,0.31-0.38-0.007-1.009
		c0,0-1.818-4.285-2.672-5.707"/>
	<path id="path31421" d="M149.904,83.927l-0.017,6.111c1.415,0.094,3.096,0.252,4.063-0.877
		c0.827-1.096,0.692-3.217,0.138-4.205C153.117,83.309,149.904,83.927,149.904,83.927 M149.921,97.113
		c0,0.629,0.359,1.016,0.359,1.016l-4.95-0.007c0,0,0.366-0.377,0.366-1.009V82.875c0-0.628-0.366-1.018-0.366-1.018h8.185
		c2.054,0.074,3.649,1.018,4.325,3.008c0.512,1.745,0.444,4.006-0.8,5.425c-1.657,2.198-7.129,1.875-7.129,1.875"/>
	<g id="g31425">
		<path id="path31431" d="M112.632,81.857c0,0,0.37,0.414,0.37,1.008v7.203
			c-2.151-2.547-4.057-5.425-6.275-8.017c-0.824-0.995-2.39-2.662-2.988-3.169c-3.889-3.808-10.285-5.556-16.238-3.455v0.242
			c2.04-0.444,4.686-0.286,7.284,0.763c1.949,0.716,4.726,2.884,6.333,4.871c2.077,2.366,6.5,8.453,6.5,8.453
			c2.541,3.301,4.783,6.303,7.378,9.429V82.865c0.007-0.595,0.37-1.008,0.37-1.008"/>
		<path id="path31433" d="M101.069,98.143c0,0-0.37-0.41-0.37-1.009v-7.206
			c2.148,2.548,4.061,5.428,6.279,8.02c0.824,0.991,2.38,2.662,2.985,3.173c3.893,3.809,10.279,5.557,16.238,3.448v-0.238
			c-2.041,0.438-4.689,0.289-7.284-0.77c-1.946-0.716-4.726-2.877-6.329-4.863c-2.081-2.37-6.504-8.454-6.504-8.454
			c-2.544-3.301-4.787-6.309-7.385-9.425v16.315c0,0.599-0.37,1.008-0.37,1.008"/>
	</g>
</g>
</svg>
