<?xml version="1.0" encoding="utf-8"?>
<!-- Generator: Adobe Illustrator 25.3.1, SVG Export Plug-In . SVG Version: 6.00 Build 0)  -->
<svg version="1.1" id="Layer_1" xmlns="http://www.w3.org/2000/svg" xmlns:xlink="http://www.w3.org/1999/xlink" x="0px" y="0px"
	 viewBox="0 0 200 180" style="enable-background:new 0 0 200 180;" xml:space="preserve">
<style type="text/css">
	.st0{fill:#1F1F1F;}
</style>
<desc>Created with Sketch.</desc>
<g id="Logo_x2F_Porsche">
	<path id="Shape" class="st0" d="M167,117.5v-1.7h-17.9v9.3H167v-1.7h-15.9v-2H167v-1.7h-15.9v-2H167z M144.7,119.5h-12.3v-3.7h-2
		v9.3h2v-3.5h12.3v3.5h2v-9.3h-2V119.5z M111.4,117.8l0,5.2c0,0.5,0.2,1.1,0.6,1.4c0.4,0.4,0.9,0.6,1.4,0.6h14.6v-2h-14.3
		c-0.1,0-0.3-0.1-0.3-0.2v-4.6c0-0.2,0.2-0.3,0.3-0.3h14.3v-2h-14.6C112.3,115.7,111.4,116.7,111.4,117.8z M107,119.5l-12.9,0l0,0
		c-0.1,0-0.2,0-0.2-0.1s-0.1-0.1-0.1-0.2v-1.4c0-0.1,0-0.2,0.1-0.2c0.1-0.1,0.1-0.1,0.2-0.1h14.6v-1.7h-15c-1.1,0-2,0.9-2,2.1v1.4
		c0,1.1,0.9,2.1,2,2.1l12.9,0c0.1,0,0.2,0,0.2,0.1s0.1,0.1,0.1,0.2h0l0,1.4c0,0.1,0,0.2-0.1,0.2c-0.1,0.1-0.1,0.1-0.2,0.1H92v1.7h15
		c1.1,0,2-0.9,2-2.1l0,0v-1.4C109,120.4,108.1,119.5,107,119.5L107,119.5z M87.4,121.8c1.1,0,2-0.9,2-2.1l0-2c0-0.5-0.2-1.1-0.6-1.4
		c-0.4-0.4-0.9-0.6-1.4-0.6v0l-15.3,0v9.3h2v-2.4h11.2l0,0c1.1,0,2,0.9,2,2.1v0.4h2v-0.1C89.4,123.6,88.6,122.4,87.4,121.8
		L87.4,121.8z M87.4,120.2L87.4,120.2c0,0.2-0.1,0.3-0.3,0.3h-13v-2.7l12.9,0c0.2,0,0.3,0.2,0.3,0.4V120.2L87.4,120.2z M67.6,115.7
		L67.6,115.7l-12.9,0c-1.1,0-2,0.9-2,2v5.2c0,1.1,0.9,2.1,2,2.1h12.9c0.5,0,1.1-0.2,1.4-0.6c0.4-0.4,0.6-0.9,0.6-1.5l0,0l0-5.2
		C69.6,116.7,68.7,115.8,67.6,115.7z M67.6,122.6c0,0.2-0.1,0.3-0.3,0.3H54.9c-0.1,0-0.3-0.1-0.3-0.2v-4.6c0-0.2,0.2-0.3,0.3-0.3
		l12.3,0c0.2,0,0.3,0.2,0.4,0.3V122.6L67.6,122.6z M48.2,115.7L48.2,115.7l-15.2,0v9.3h2v-2.4h13.2c0.5,0,1.1-0.2,1.4-0.6
		c0.4-0.4,0.6-0.9,0.6-1.4l0-2.7c0-0.5-0.2-1.1-0.6-1.4C49.3,116,48.8,115.7,48.2,115.7L48.2,115.7z M48.2,120.2
		c0,0.2-0.1,0.3-0.3,0.3H35v-2.7l12.9,0c0.2,0,0.3,0.2,0.3,0.4L48.2,120.2z M85.3,91.5c0.1,0.2,0,0.4-0.2,0.5
		c-0.2,0.1-0.4,0-0.5-0.2c-0.1-0.3,0.2,0,0.4,0C85.3,91.8,85.2,91.3,85.3,91.5z M85,91.2c0.1,0,0.2-0.1,0.2-0.2c0-0.1,0-0.2,0-0.3
		c-0.1-0.2,0,0.2-0.2,0.3c-0.2,0.1-0.6-0.2-0.4,0c0,0.1,0.1,0.2,0.2,0.2C84.8,91.3,84.9,91.3,85,91.2L85,91.2z M84.5,89.7
		c-0.1-0.2,0,0.2-0.2,0.3c-0.2,0.1-0.6-0.2-0.4,0c0.1,0.2,0.3,0.3,0.5,0.2C84.5,90.1,84.6,89.9,84.5,89.7L84.5,89.7z M84.6,89.1
		c0.1,0,0.2-0.1,0.2-0.2c0-0.1,0-0.2,0-0.3c-0.1-0.2,0,0.2-0.2,0.3c-0.2,0.1-0.6-0.2-0.4,0.1c0,0.1,0.1,0.2,0.2,0.2
		C84.4,89.1,84.5,89.1,84.6,89.1L84.6,89.1z M84.7,90c0.1,0.1,0.2,0.2,0.3,0.2c0.1,0,0.3-0.1,0.3-0.2c0.1-0.1,0-0.3,0-0.4
		c-0.2-0.2,0,0.2-0.2,0.3C85,90,84.6,89.8,84.7,90L84.7,90z M85.5,89.2c0.1,0,0.2-0.1,0.2-0.2c0-0.1,0-0.2,0-0.3
		c-0.1-0.2,0,0.2-0.2,0.3c-0.2,0.1-0.6-0.2-0.4,0.1c0,0.1,0.1,0.2,0.2,0.2C85.3,89.3,85.4,89.3,85.5,89.2L85.5,89.2z M85.7,90
		c0.1,0.2,0.4,0.2,0.5,0.1c0.2-0.1,0.2-0.4,0.1-0.5c-0.1-0.2,0,0.2-0.2,0.3C85.9,90,85.5,89.8,85.7,90L85.7,90z M85.9,91.1
		c0.1,0,0.2-0.1,0.2-0.2c0-0.1,0-0.2,0-0.3c-0.1-0.2,0,0.2-0.2,0.3c-0.2,0.1-0.6-0.2-0.4,0c0,0.1,0.1,0.2,0.2,0.2
		C85.7,91.1,85.8,91.1,85.9,91.1L85.9,91.1z M86.1,91.6c-0.2,0.1-0.6-0.2-0.4,0c0.1,0.1,0.2,0.2,0.3,0.2s0.3-0.1,0.3-0.2
		s0.1-0.3,0-0.4C86.3,91.1,86.3,91.5,86.1,91.6L86.1,91.6z M86.9,91.9c-0.2,0.1-0.6-0.2-0.4,0.1c0.1,0.1,0.2,0.2,0.3,0.2
		s0.3-0.1,0.3-0.2c0.1-0.1,0.1-0.3,0-0.4C87,91.4,87.2,91.8,86.9,91.9L86.9,91.9z M86.7,90.7c-0.2,0.1-0.6-0.2-0.4,0.1
		c0.1,0.2,0.3,0.2,0.5,0.1c0.2-0.1,0.2-0.3,0.1-0.5C86.8,90.2,86.9,90.6,86.7,90.7L86.7,90.7z M87.5,91c-0.2,0.1-0.6-0.1-0.4,0.1
		c0.1,0.2,0.3,0.2,0.5,0.1s0.2-0.4,0.1-0.5C87.6,90.4,87.7,90.9,87.5,91L87.5,91z M88.2,91.3c-0.2,0.1-0.6-0.1-0.4,0.1
		c0.1,0.1,0.2,0.2,0.4,0.1c0.1,0,0.2-0.1,0.3-0.2c0-0.1,0-0.3-0.1-0.4C88.2,90.7,88.4,91.1,88.2,91.3L88.2,91.3z M86.6,89
		c0.1-0.1,0.2-0.1,0.2-0.2c0-0.1,0-0.2,0-0.3c-0.1-0.2,0,0.2-0.2,0.3c-0.2,0.1-0.6-0.2-0.4,0.1c0.1,0.1,0.1,0.2,0.2,0.2
		C86.4,89.1,86.5,89,86.6,89L86.6,89z M86.6,89.8c0.1,0.2,0.4,0.2,0.5,0.1c0.2-0.1,0.2-0.4,0.1-0.5c-0.2-0.2,0,0.2-0.2,0.3
		C86.9,89.8,86.4,89.6,86.6,89.8L86.6,89.8z M87.6,89.2c0.1,0.1,0.2,0.2,0.3,0.2c0.1,0,0.3-0.1,0.3-0.2c0.1-0.1,0.1-0.3,0-0.4
		c-0.1-0.2,0,0.2-0.2,0.3C87.8,89.2,87.5,88.9,87.6,89.2L87.6,89.2z M89.1,89.2c0.1-0.1,0.1-0.2,0.1-0.3c0-0.1,0-0.2-0.1-0.3
		c-0.2-0.2,0,0.2-0.2,0.3c-0.2,0.1-0.6-0.1-0.4,0.1c0.1,0.1,0.2,0.1,0.3,0.1C88.9,89.3,89,89.2,89.1,89.2L89.1,89.2z M88.9,90.3
		c0.1,0,0.2-0.1,0.2-0.2c0-0.1,0-0.2,0-0.3c-0.1-0.2,0,0.2-0.3,0.3c-0.2,0.1-0.5-0.3-0.4,0c0,0.1,0.1,0.2,0.2,0.2
		S88.8,90.4,88.9,90.3L88.9,90.3z M89.7,90.5c-0.1-0.2,0,0.2-0.3,0.3c-0.2,0.1-0.6-0.2-0.4,0c0.1,0.1,0.2,0.2,0.3,0.2
		s0.3-0.1,0.3-0.2C89.7,90.7,89.8,90.6,89.7,90.5L89.7,90.5z M89.1,91.6c-0.2,0.1-0.6-0.1-0.4,0.1c0.1,0.1,0.2,0.2,0.4,0.1
		c0.1,0,0.2-0.1,0.3-0.2s0-0.3-0.1-0.4C89.1,91,89.3,91.5,89.1,91.6L89.1,91.6z M90,91.6c-0.2,0.1-0.6-0.2-0.4,0.1
		c0.1,0.2,0.3,0.2,0.5,0.1c0.2-0.1,0.2-0.3,0.1-0.5C90.1,91.1,90.2,91.5,90,91.6L90,91.6z M90.6,90.2c-0.1-0.2,0,0.2-0.3,0.3
		c-0.2,0-0.5-0.3-0.4,0c0.1,0.2,0.3,0.3,0.5,0.2C90.6,90.6,90.7,90.4,90.6,90.2L90.6,90.2z M89.2,89.5c0.1,0.2,0.3,0.2,0.5,0.1
		s0.2-0.3,0.1-0.5c-0.1-0.2,0,0.2-0.2,0.3C89.4,89.5,89,89.2,89.2,89.5L89.2,89.5z M90.5,89.4c-0.2,0.1-0.6-0.1-0.4,0.1
		c0.1,0.1,0.2,0.2,0.4,0.1s0.2-0.1,0.3-0.2c0-0.1,0-0.3-0.1-0.4C90.5,88.9,90.7,89.3,90.5,89.4L90.5,89.4z M90.4,88.6
		c0.1,0,0.2-0.1,0.2-0.2c0-0.1,0-0.2,0-0.3c-0.1-0.2,0,0.2-0.3,0.3c-0.2,0-0.5-0.3-0.4,0c0,0.1,0.1,0.2,0.2,0.2
		C90.2,88.6,90.3,88.6,90.4,88.6L90.4,88.6z M94.5,89.2c0.1,0,0.2-0.1,0.2-0.2c0-0.1,0-0.2,0-0.3c-0.1-0.2,0,0.2-0.2,0.3
		c-0.2,0.1-0.6-0.2-0.4,0c0,0.1,0.1,0.2,0.2,0.2C94.3,89.2,94.4,89.2,94.5,89.2L94.5,89.2z M93.3,89.5c0.1,0.2,0.3,0.3,0.5,0.2
		s0.3-0.3,0.2-0.5c-0.1-0.2,0,0.2-0.3,0.3C93.5,89.6,93.2,89.3,93.3,89.5L93.3,89.5z M94.1,90c-0.2-0.2,0,0.2-0.2,0.4
		c-0.2,0.1-0.6-0.1-0.4,0.1c0.1,0.2,0.4,0.2,0.5,0.1S94.2,90.1,94.1,90L94.1,90z M94.5,90.8c-0.1-0.2,0,0.2-0.2,0.3
		c-0.2,0.1-0.6-0.1-0.4,0.1c0.1,0.1,0.2,0.2,0.3,0.2c0.1,0,0.3-0.1,0.3-0.2C94.6,91,94.6,90.9,94.5,90.8L94.5,90.8z M93.5,91.8
		c-0.2,0.1-0.6-0.2-0.4,0.1c0.1,0.2,0.3,0.2,0.5,0.1c0.2-0.1,0.2-0.3,0.1-0.5C93.6,91.2,93.7,91.7,93.5,91.8L93.5,91.8z M94.8,91.9
		c-0.2,0.1-0.6-0.1-0.4,0.1c0.1,0.1,0.2,0.2,0.3,0.1s0.2-0.1,0.3-0.2c0.1-0.1,0-0.3-0.1-0.4C94.8,91.4,95,91.8,94.8,91.9L94.8,91.9z
		 M95.5,91.4c-0.2,0.1-0.6-0.2-0.4,0c0.1,0.2,0.3,0.3,0.5,0.2c0.2-0.1,0.3-0.3,0.2-0.5C95.7,90.9,95.8,91.3,95.5,91.4L95.5,91.4z
		 M97.4,92.1c-0.2,0.1-0.6-0.1-0.4,0.1c0.1,0.2,0.4,0.2,0.5,0.1s0.2-0.4,0.1-0.5C97.4,91.6,97.6,92,97.4,92.1L97.4,92.1z M96.4,92.1
		c-0.2,0.1-0.6-0.2-0.4,0.1c0.1,0.1,0.2,0.2,0.3,0.2s0.3-0.1,0.3-0.2c0.1-0.1,0.1-0.3,0-0.4C96.5,91.5,96.6,92,96.4,92.1L96.4,92.1z
		 M96.4,90.9c0.1-0.1,0.1-0.1,0.2-0.2c0-0.1,0-0.2,0-0.3c-0.1-0.2,0,0.2-0.2,0.3c-0.2,0.1-0.6-0.2-0.4,0.1
		C96,90.9,96.2,91,96.4,90.9L96.4,90.9z M95.3,90.8c0.1-0.1,0.1-0.1,0.2-0.2s0-0.2-0.1-0.3c-0.1-0.2,0,0.2-0.2,0.3
		c-0.2,0.1-0.6-0.1-0.4,0.1C94.9,90.9,95.1,90.9,95.3,90.8L95.3,90.8z M94.4,90c0.1,0.1,0.2,0.2,0.4,0.1c0.1,0,0.2-0.1,0.3-0.2
		s0-0.3-0.1-0.4c-0.2-0.2,0,0.2-0.2,0.3C94.6,89.9,94.2,89.7,94.4,90L94.4,90z M95.5,90c0.1,0.1,0.2,0.2,0.3,0.2s0.3-0.1,0.3-0.2
		c0.1-0.1,0.1-0.3,0-0.4c-0.1-0.2,0,0.2-0.2,0.3C95.7,90,95.3,89.7,95.5,90L95.5,90z M95.6,89.2c0.1-0.1,0.1-0.2,0.1-0.3
		c0-0.1,0-0.2-0.1-0.3c-0.2-0.2,0,0.2-0.2,0.4c-0.2,0.1-0.6-0.1-0.4,0.1C95.2,89.3,95.5,89.3,95.6,89.2L95.6,89.2z M97.2,90.2
		c0.1-0.1,0.1-0.1,0.2-0.2c0-0.1,0-0.2,0-0.3c-0.1-0.2,0,0.2-0.2,0.3c-0.2,0.1-0.6-0.2-0.4,0.1C96.8,90.3,97,90.3,97.2,90.2
		L97.2,90.2z M97.4,90.9c0.1,0.1,0.2,0.2,0.3,0.1c0.1,0,0.2-0.1,0.3-0.2c0.1-0.1,0-0.3,0-0.4c-0.2-0.2,0,0.2-0.2,0.3
		C97.6,90.9,97.2,90.6,97.4,90.9L97.4,90.9z M97.2,91c-0.1-0.2,0,0.2-0.3,0.3c-0.2,0.1-0.6-0.2-0.4,0c0.1,0.2,0.3,0.3,0.5,0.2
		C97.2,91.4,97.3,91.2,97.2,91L97.2,91z M98.2,91.6c-0.2,0.1-0.6-0.2-0.4,0c0.1,0.2,0.3,0.3,0.5,0.2s0.3-0.3,0.2-0.5
		C98.3,91,98.4,91.5,98.2,91.6L98.2,91.6z M99.2,92c-0.2,0.1-0.6-0.1-0.4,0.1c0.1,0.2,0.4,0.2,0.5,0.1c0.2-0.1,0.2-0.4,0.1-0.5
		C99.3,91.5,99.4,91.9,99.2,92L99.2,92z M99,91.2c0.1,0,0.2-0.1,0.2-0.2c0-0.1,0-0.2,0-0.3c-0.1-0.2,0,0.2-0.2,0.3
		c-0.2,0.1-0.6-0.2-0.4,0C98.6,91.2,98.8,91.3,99,91.2L99,91.2z M93.3,89c0.1-0.1,0.1-0.1,0.2-0.2c0-0.1,0-0.2-0.1-0.3
		c-0.1-0.2,0,0.2-0.2,0.3c-0.2,0.1-0.6-0.1-0.4,0.1C92.9,89.1,93.1,89.1,93.3,89L93.3,89z M92.4,89.3c0.1-0.1,0.1-0.1,0.2-0.2
		c0-0.1,0-0.2-0.1-0.3c-0.1-0.2,0,0.2-0.2,0.3c-0.2,0.1-0.6-0.1-0.4,0.1c0.1,0.1,0.1,0.1,0.2,0.2S92.3,89.3,92.4,89.3L92.4,89.3z
		 M92.2,90.2c0.1,0.2,0.4,0.2,0.5,0.1c0.2-0.1,0.2-0.4,0.1-0.5c-0.2-0.2,0,0.2-0.2,0.4C92.4,90.2,92,90,92.2,90.2L92.2,90.2z
		 M92.3,90.6c-0.1-0.2,0,0.2-0.2,0.3c-0.2,0.1-0.6-0.2-0.4,0.1c0.1,0.1,0.2,0.2,0.3,0.2c0.1,0,0.3-0.1,0.3-0.2S92.3,90.7,92.3,90.6
		L92.3,90.6z M92.5,91.7c-0.2,0.1-0.6-0.1-0.4,0.1c0.1,0.2,0.4,0.2,0.5,0.1c0.2-0.1,0.2-0.4,0.1-0.5C92.5,91.1,92.7,91.5,92.5,91.7
		L92.5,91.7z M93.3,90.5c-0.1-0.2,0,0.2-0.2,0.3c-0.2,0.1-0.6-0.1-0.4,0.1c0.1,0.2,0.4,0.2,0.5,0.1C93.4,90.9,93.4,90.7,93.3,90.5z
		 M91.5,88.5c0.1-0.1,0.1-0.1,0.2-0.2c0-0.1,0-0.2-0.1-0.3c-0.1-0.2,0,0.2-0.2,0.3c-0.2,0.1-0.6-0.1-0.4,0.1
		c0.1,0.1,0.1,0.1,0.2,0.2C91.3,88.6,91.4,88.6,91.5,88.5L91.5,88.5z M91.5,89.5c0.1-0.1,0.1-0.2,0.1-0.3c0-0.1,0-0.2-0.1-0.3
		c-0.2-0.2,0,0.2-0.2,0.3c-0.2,0.1-0.6-0.1-0.4,0.1c0.1,0.1,0.2,0.1,0.3,0.1S91.4,89.6,91.5,89.5L91.5,89.5z M91.4,90.3
		c-0.2,0.1-0.5-0.2-0.4,0c0.1,0.2,0.3,0.3,0.5,0.2c0.2-0.1,0.3-0.3,0.2-0.5C91.5,89.8,91.6,90.2,91.4,90.3L91.4,90.3z M91.2,90.9
		c-0.1-0.2,0,0.2-0.2,0.3c-0.2,0.1-0.6-0.2-0.4,0.1c0.1,0.2,0.3,0.2,0.5,0.1C91.3,91.4,91.3,91.1,91.2,90.9L91.2,90.9z M91.5,92
		c-0.2,0.1-0.6-0.1-0.4,0.1c0.1,0.1,0.2,0.2,0.3,0.2c0.1,0,0.3-0.1,0.3-0.2c0.1-0.1,0-0.3,0-0.4C91.5,91.4,91.7,91.9,91.5,92
		L91.5,92z M87.5,88.5c0.1-0.1,0.1-0.1,0.2-0.2c0-0.1,0-0.2,0-0.3c-0.1-0.2,0,0.2-0.2,0.3c-0.2,0.1-0.6-0.2-0.4,0.1
		c0.1,0.1,0.1,0.1,0.2,0.2S87.4,88.6,87.5,88.5L87.5,88.5z M109.7,78.4c0.1-0.1,0.1-0.1,0.2-0.2s0-0.2-0.1-0.3
		c-0.1-0.2,0,0.2-0.2,0.3c-0.2,0.1-0.6-0.1-0.4,0.1C109.3,78.5,109.5,78.5,109.7,78.4L109.7,78.4z M109.1,79.2
		c0.1-0.1,0.1-0.1,0.2-0.2c0-0.1,0-0.2-0.1-0.3c-0.1-0.2,0,0.2-0.2,0.3c-0.2,0.1-0.6-0.1-0.4,0.1c0.1,0.1,0.1,0.1,0.2,0.2
		S109,79.3,109.1,79.2L109.1,79.2z M109.6,79.8c-0.2,0.1-0.5-0.3-0.4,0c0.1,0.1,0.2,0.2,0.3,0.2c0.1,0,0.3,0,0.4-0.1
		c0.1-0.1,0.1-0.3,0.1-0.4C109.8,79.2,109.8,79.7,109.6,79.8L109.6,79.8z M110.2,80.5c-0.2,0.1-0.5-0.3-0.4,0
		c0.1,0.2,0.3,0.3,0.5,0.2c0.2-0.1,0.3-0.3,0.2-0.5C110.3,80,110.4,80.5,110.2,80.5L110.2,80.5z M111.2,80.7c-0.2,0.1-0.5-0.3-0.4,0
		c0.1,0.1,0.2,0.2,0.3,0.2c0.1,0,0.3,0,0.3-0.1c0.1-0.1,0.1-0.3,0-0.4C111.4,80.1,111.4,80.6,111.2,80.7L111.2,80.7z M111.2,81.5
		c-0.2,0.1-0.6-0.2-0.4,0c0.1,0.2,0.3,0.3,0.5,0.2c0.2-0.1,0.3-0.3,0.2-0.5C111.3,81,111.4,81.5,111.2,81.5L111.2,81.5z M112.1,81
		c-0.2,0.1-0.6-0.1-0.4,0.1c0.1,0.2,0.3,0.2,0.5,0.1c0.2-0.1,0.2-0.4,0.1-0.5C112.1,80.4,112.3,80.9,112.1,81L112.1,81z M111,79.3
		c-0.2-0.2,0,0.2-0.2,0.3c-0.2,0.1-0.6-0.1-0.4,0.1c0.1,0.1,0.2,0.2,0.3,0.2c0.1,0,0.2-0.1,0.3-0.2C111.1,79.6,111,79.5,111,79.3
		L111,79.3z M110.4,79.2c0.1-0.1,0.2-0.1,0.2-0.2c0-0.1,0-0.2,0-0.3c-0.1-0.2,0,0.2-0.2,0.3c-0.2,0.1-0.6-0.2-0.4,0.1
		c0.1,0.1,0.1,0.2,0.2,0.2C110.2,79.2,110.3,79.2,110.4,79.2L110.4,79.2z M110.9,78.3c0.1,0,0.2-0.1,0.2-0.2s0-0.2,0-0.3
		c-0.1-0.2,0,0.2-0.2,0.3c-0.2,0.1-0.6-0.2-0.4,0C110.5,78.4,110.7,78.4,110.9,78.3L110.9,78.3z M111.1,79c0.1,0.1,0.2,0.2,0.3,0.2
		c0.1,0,0.3-0.1,0.3-0.2s0-0.3,0-0.4c-0.1-0.2,0,0.2-0.2,0.3C111.3,79,110.9,78.8,111.1,79L111.1,79z M111.7,79.8
		c-0.2,0.1-0.5-0.2-0.4,0c0.1,0.2,0.3,0.3,0.5,0.2c0.2-0.1,0.3-0.3,0.2-0.5C111.9,79.3,111.9,79.7,111.7,79.8L111.7,79.8z
		 M112.6,80.1c-0.2,0.1-0.6-0.1-0.4,0.1c0.1,0.1,0.2,0.2,0.4,0.1c0.1,0,0.2-0.1,0.3-0.2s0-0.3-0.1-0.4
		C112.6,79.5,112.8,80,112.6,80.1L112.6,80.1z M112.5,78.3c0.1,0,0.2-0.1,0.2-0.2c0-0.1,0-0.2,0-0.3c-0.1-0.2,0,0.2-0.3,0.3
		c-0.2,0.1-0.6-0.2-0.4,0c0,0.1,0.1,0.2,0.2,0.2S112.4,78.3,112.5,78.3L112.5,78.3z M112.5,79c-0.2,0.1-0.6-0.1-0.4,0.1
		c0.1,0.2,0.4,0.2,0.5,0.1s0.2-0.4,0.1-0.5C112.6,78.5,112.7,78.9,112.5,79L112.5,79z M113.4,79.8c0.1-0.1,0.1-0.2,0.1-0.3
		c0-0.1,0-0.2-0.1-0.3c-0.2-0.2,0,0.2-0.2,0.3c-0.2,0.1-0.6-0.1-0.4,0.1c0.1,0.1,0.2,0.1,0.3,0.1S113.3,79.9,113.4,79.8L113.4,79.8z
		 M113.4,80.8c-0.2,0.1-0.5-0.2-0.4,0c0.1,0.1,0.2,0.2,0.3,0.2c0.1,0,0.3,0,0.3-0.2c0.1-0.1,0.1-0.3,0-0.4
		C113.5,80.3,113.6,80.7,113.4,80.8L113.4,80.8z M114.2,81.5c-0.2,0.1-0.6-0.2-0.4,0c0.1,0.1,0.2,0.2,0.3,0.2c0.1,0,0.3-0.1,0.3-0.2
		c0.1-0.1,0.1-0.3,0-0.4C114.3,81,114.4,81.4,114.2,81.5L114.2,81.5z M114.8,80.8c-0.2,0.1-0.6-0.1-0.4,0.1c0.1,0.2,0.4,0.2,0.5,0.1
		s0.2-0.4,0.1-0.5C114.8,80.3,115,80.7,114.8,80.8L114.8,80.8z M114.2,80.3c0.1-0.1,0.2-0.1,0.2-0.2c0-0.1,0-0.2,0-0.3
		c-0.1-0.2,0,0.2-0.2,0.3c-0.2,0.1-0.6-0.2-0.4,0.1c0.1,0.1,0.1,0.2,0.2,0.2C114,80.4,114.1,80.4,114.2,80.3L114.2,80.3z M114,79.4
		c0.1,0,0.2-0.1,0.2-0.2c0-0.1,0-0.2,0-0.3c-0.1-0.2,0,0.2-0.3,0.3c-0.2,0.1-0.5-0.2-0.4,0C113.6,79.4,113.8,79.5,114,79.4L114,79.4
		z M113.4,78.8c0.1,0,0.2-0.1,0.2-0.2c0-0.1,0-0.2,0-0.3c-0.1-0.2,0,0.2-0.2,0.3c-0.2,0.1-0.6-0.2-0.4,0.1c0,0.1,0.1,0.2,0.2,0.2
		C113.2,78.8,113.3,78.8,113.4,78.8L113.4,78.8z M114.2,78.3c0.1,0,0.2-0.1,0.2-0.2c0-0.1,0-0.2,0-0.3c-0.1-0.2,0,0.2-0.3,0.3
		c-0.2,0.1-0.5-0.3-0.4,0c0,0.1,0.1,0.2,0.2,0.2C114,78.3,114.1,78.3,114.2,78.3L114.2,78.3z M114.9,78.8c-0.2,0.1-0.6-0.1-0.4,0.1
		c0.1,0.2,0.4,0.2,0.5,0.1c0.2-0.1,0.2-0.4,0.1-0.5C115,78.2,115.1,78.7,114.9,78.8L114.9,78.8z M114.9,79.8
		c-0.2,0.1-0.6-0.2-0.4,0.1c0.1,0.2,0.3,0.3,0.5,0.1c0.2-0.1,0.2-0.3,0.1-0.5C115,79.3,115.1,79.8,114.9,79.8L114.9,79.8z
		 M115.4,77.4c-0.1-0.2,0,0.2-0.2,0.3c-0.2,0.1-0.6-0.2-0.4,0.1c0.1,0.1,0.2,0.2,0.3,0.2s0.3-0.1,0.3-0.2
		C115.5,77.6,115.5,77.5,115.4,77.4L115.4,77.4z M116,78.7c0.1,0,0.2-0.1,0.2-0.2c0-0.1,0-0.2,0-0.3c-0.1-0.2,0,0.2-0.3,0.3
		c-0.2,0.1-0.5-0.2-0.4,0C115.6,78.7,115.8,78.8,116,78.7L116,78.7z M115.9,79.7c0.1-0.1,0.2-0.1,0.2-0.2c0-0.1,0-0.2,0-0.3
		c-0.1-0.2,0,0.2-0.2,0.3c-0.2,0.1-0.6-0.2-0.4,0.1C115.4,79.8,115.7,79.8,115.9,79.7L115.9,79.7z M115.9,80.8
		c0.1,0,0.2-0.1,0.2-0.2s0-0.2,0-0.3c-0.1-0.2,0,0.2-0.2,0.3c-0.2,0.1-0.6-0.2-0.4,0.1C115.5,80.8,115.7,80.9,115.9,80.8L115.9,80.8
		z M115.9,81.5c-0.2,0.1-0.6-0.2-0.4,0.1c0.1,0.2,0.3,0.2,0.5,0.1c0.2-0.1,0.2-0.3,0.1-0.5C115.9,81,116.1,81.4,115.9,81.5
		L115.9,81.5z M116.5,77.9c0.1,0,0.2-0.1,0.2-0.2c0-0.1,0-0.2,0-0.3c-0.1-0.2,0,0.2-0.3,0.3c-0.2,0.1-0.6-0.2-0.4,0
		C116.1,77.9,116.3,78,116.5,77.9L116.5,77.9z M117.4,78.5c0.1,0.2,0.3,0.3,0.5,0.2c0.2-0.1,0.3-0.3,0.2-0.5c-0.1-0.2,0,0.2-0.3,0.3
		C117.6,78.5,117.3,78.2,117.4,78.5L117.4,78.5z M117.1,78.1c-0.2-0.2,0,0.2-0.2,0.4c-0.2,0.1-0.6-0.1-0.4,0.1
		c0.1,0.2,0.4,0.2,0.5,0.1C117.2,78.5,117.3,78.3,117.1,78.1L117.1,78.1z M116.7,79.8c0.1,0,0.2-0.1,0.2-0.2s0-0.2,0-0.3
		c-0.1-0.2,0,0.2-0.3,0.3c-0.2,0-0.5-0.3-0.4,0C116.3,79.8,116.5,79.9,116.7,79.8L116.7,79.8z M117.7,79.6c0.1,0,0.2-0.1,0.2-0.2
		c0-0.1,0-0.2,0-0.3c-0.1-0.2,0,0.2-0.2,0.3c-0.2,0.1-0.6-0.2-0.4,0.1C117.3,79.6,117.5,79.7,117.7,79.6L117.7,79.6z M116.8,80.8
		c0.1,0,0.2-0.1,0.2-0.2s0-0.2,0-0.3c-0.1-0.2,0,0.2-0.2,0.3c-0.2,0.1-0.6-0.2-0.4,0.1C116.4,80.8,116.6,80.9,116.8,80.8L116.8,80.8
		z M116.8,81.5c-0.2,0.1-0.6-0.2-0.4,0c0.1,0.2,0.3,0.3,0.5,0.2c0.2-0.1,0.3-0.3,0.2-0.5C116.9,81,117,81.4,116.8,81.5L116.8,81.5z
		 M117.7,81c-0.2,0.1-0.5-0.2-0.4,0c0.1,0.1,0.2,0.2,0.3,0.2c0.1,0,0.3,0,0.3-0.2s0.1-0.3,0-0.4C117.8,80.5,117.9,80.9,117.7,81
		L117.7,81z M117.7,80.4c0.1-0.1,0.1-0.1,0.2-0.2c0-0.1,0-0.2-0.1-0.3c-0.1-0.2,0,0.2-0.2,0.3c-0.2,0.1-0.6-0.1-0.4,0.1
		C117.3,80.4,117.5,80.5,117.7,80.4L117.7,80.4z M109.1,80c-0.2-0.2,0,0.2-0.2,0.4c-0.2,0.1-0.6-0.1-0.4,0.1c0.1,0.2,0.4,0.2,0.5,0
		C109.2,80.4,109.2,80.2,109.1,80L109.1,80z M109.6,80.8c-0.1-0.2,0,0.2-0.2,0.3c-0.2,0.1-0.6-0.1-0.4,0.1c0.1,0.2,0.3,0.2,0.5,0.1
		S109.7,81,109.6,80.8L109.6,80.8z M110,81.6c-0.2,0.1-0.6-0.2-0.4,0.1c0.1,0.1,0.2,0.2,0.3,0.2c0.1,0,0.3-0.1,0.3-0.2
		c0.1-0.1,0.1-0.3,0-0.4C110.1,81.1,110.2,81.5,110,81.6L110,81.6z M101,68.8c0.1,0,0.2-0.1,0.2-0.2c0-0.1,0-0.2,0-0.3
		c-0.1-0.2,0,0.2-0.3,0.3c-0.2,0-0.5-0.3-0.4,0C100.6,68.7,100.9,68.8,101,68.8L101,68.8z M102.5,67.9c0.1-0.1,0.1-0.1,0.2-0.2
		c0-0.1,0-0.2-0.1-0.3c-0.1-0.2,0,0.2-0.2,0.3c-0.2,0.1-0.6-0.1-0.4,0.1C102.1,68,102.4,68,102.5,67.9L102.5,67.9z M102.4,68.6
		c0.1,0.1,0.2,0.2,0.3,0.2c0.1,0,0.3-0.1,0.3-0.2s0.1-0.3,0-0.4c-0.1-0.2,0,0.2-0.2,0.3C102.6,68.6,102.2,68.3,102.4,68.6
		L102.4,68.6z M109.9,67.4c-0.1-0.2,0,0.2-0.2,0.3c-0.2,0.1-0.6-0.1-0.4,0.1c0.1,0.2,0.4,0.2,0.5,0.1
		C109.9,67.8,110,67.6,109.9,67.4L109.9,67.4z M110.5,68.5c0.1-0.1,0.1-0.1,0.2-0.2s0-0.2,0-0.3c-0.1-0.2,0,0.2-0.2,0.3
		c-0.2,0.1-0.6-0.2-0.4,0.1C110.1,68.5,110.3,68.6,110.5,68.5L110.5,68.5z M110.3,69.5c0.1-0.1,0.1-0.1,0.2-0.2s0-0.2,0-0.3
		c-0.1-0.2,0,0.2-0.2,0.3c-0.2,0.1-0.6-0.2-0.4,0.1C109.9,69.5,110.2,69.6,110.3,69.5L110.3,69.5z M110.4,70.6
		c0.1-0.1,0.1-0.2,0.1-0.3c0-0.1,0-0.2-0.1-0.3c-0.2-0.2,0,0.2-0.2,0.3c-0.2,0.1-0.6-0.1-0.4,0.1C110,70.7,110.3,70.7,110.4,70.6
		L110.4,70.6z M110.6,71.4c-0.2,0.1-0.6-0.1-0.4,0.1c0.1,0.2,0.4,0.2,0.5,0.1c0.2-0.1,0.2-0.4,0.1-0.5
		C110.6,70.9,110.8,71.3,110.6,71.4L110.6,71.4z M117.6,68.3c0.1,0,0.2-0.1,0.2-0.2s0-0.2,0-0.3c-0.1-0.2,0,0.2-0.2,0.3
		c-0.2,0.1-0.6-0.2-0.4,0C117.2,68.3,117.4,68.4,117.6,68.3L117.6,68.3z M117.6,69c0.1,0.2,0.3,0.3,0.5,0.2c0.2-0.1,0.3-0.3,0.2-0.5
		c-0.1-0.2,0,0.2-0.3,0.3C117.8,69,117.5,68.7,117.6,69L117.6,69z M117.9,69.9c0.1,0.2,0.4,0.2,0.5,0.1c0.2-0.1,0.2-0.4,0.1-0.5
		c-0.2-0.2,0,0.2-0.2,0.3C118.2,69.9,117.8,69.7,117.9,69.9L117.9,69.9z M116.6,69.4c0.1,0.2,0.4,0.2,0.5,0.1s0.2-0.4,0.1-0.5
		c-0.1-0.2,0,0.2-0.2,0.3C116.9,69.4,116.5,69.2,116.6,69.4L116.6,69.4z M117.6,69.8c-0.2-0.2,0,0.2-0.2,0.3
		c-0.2,0.1-0.6-0.1-0.4,0.1c0.1,0.2,0.4,0.2,0.5,0.1C117.7,70.2,117.7,69.9,117.6,69.8L117.6,69.8z M118.1,70.9
		c-0.2,0.1-0.6-0.1-0.4,0.1c0.1,0.2,0.4,0.2,0.5,0.1s0.2-0.4,0.1-0.5C118.1,70.4,118.3,70.8,118.1,70.9L118.1,70.9z M115.9,68.4
		c0.1,0,0.2-0.1,0.2-0.2c0-0.1,0-0.2,0-0.3c-0.1-0.2,0,0.2-0.3,0.3c-0.2,0.1-0.6-0.2-0.4,0C115.4,68.4,115.7,68.5,115.9,68.4
		L115.9,68.4z M116.7,68.7c0.1,0,0.2-0.1,0.2-0.2s0-0.2,0-0.3c-0.1-0.2,0,0.2-0.2,0.3c-0.2,0.1-0.6-0.2-0.4,0c0,0.1,0.1,0.2,0.2,0.2
		C116.5,68.8,116.7,68.8,116.7,68.7L116.7,68.7z M115.8,69.4c0.1,0,0.2-0.1,0.2-0.2c0-0.1,0-0.2,0-0.3c-0.1-0.2,0,0.2-0.3,0.3
		c-0.2,0.1-0.5-0.3-0.4,0c0,0.1,0.1,0.2,0.2,0.2S115.7,69.4,115.8,69.4L115.8,69.4z M115.5,70.1c-0.1-0.2,0,0.2-0.2,0.3
		c-0.2,0.1-0.6-0.2-0.4,0.1c0.1,0.2,0.3,0.2,0.5,0.1S115.6,70.3,115.5,70.1L115.5,70.1z M116.4,69.6c-0.1-0.2,0,0.2-0.2,0.3
		c-0.2,0.1-0.6-0.2-0.4,0c0.1,0.2,0.3,0.3,0.5,0.2C116.4,70.1,116.5,69.8,116.4,69.6L116.4,69.6z M115.8,71.1c-0.2,0-0.5-0.3-0.4,0
		c0,0.1,0.2,0.2,0.3,0.2c0.1,0,0.3,0,0.4-0.1s0.1-0.2,0.1-0.4C116,70.5,116,71,115.8,71.1z M116.9,71c0.1-0.1,0.1-0.1,0.2-0.2
		c0-0.1,0-0.2-0.1-0.3c-0.1-0.2,0,0.2-0.2,0.3c-0.2,0.1-0.6-0.1-0.4,0.1C116.5,71.1,116.7,71.1,116.9,71L116.9,71z M117.1,71.6
		c-0.2,0.1-0.5-0.2-0.4,0c0.1,0.2,0.3,0.3,0.5,0.2c0.2-0.1,0.3-0.3,0.2-0.5C117.3,71,117.3,71.5,117.1,71.6L117.1,71.6z M115.1,68
		c0.1-0.1,0.1-0.1,0.2-0.2c0-0.1,0-0.2-0.1-0.3c-0.1-0.2,0,0.2-0.2,0.3c-0.2,0.1-0.6-0.1-0.4,0.1C114.7,68,114.9,68.1,115.1,68
		L115.1,68z M114.9,68.9c0.1-0.1,0.2-0.1,0.2-0.2s0-0.2,0-0.3c-0.1-0.2,0,0.2-0.2,0.3c-0.2,0.1-0.6-0.2-0.4,0.1
		c0,0.1,0.1,0.2,0.2,0.2C114.7,69,114.8,69,114.9,68.9L114.9,68.9z M114.9,70c0.1,0,0.2-0.1,0.2-0.2c0-0.1,0-0.2,0-0.3
		c-0.1-0.2,0,0.2-0.3,0.3c-0.2,0-0.5-0.3-0.4,0C114.4,69.9,114.7,70,114.9,70L114.9,70z M114.6,71c-0.2,0.1-0.6-0.1-0.4,0.1
		c0.1,0.2,0.4,0.2,0.5,0.1c0.2-0.1,0.2-0.4,0.1-0.5C114.6,70.5,114.8,70.9,114.6,71L114.6,71z M113,68.6c0.1-0.1,0.1-0.1,0.2-0.2
		c0-0.1,0-0.2-0.1-0.3c-0.1-0.2,0,0.2-0.2,0.3c-0.2,0.1-0.6-0.1-0.4,0.1c0.1,0.1,0.1,0.1,0.2,0.2S113,68.7,113,68.6L113,68.6z
		 M114.1,68.5c0.1,0,0.2-0.1,0.2-0.2c0-0.1,0-0.2,0-0.3c-0.1-0.2,0,0.2-0.2,0.3c-0.2,0.1-0.6-0.2-0.4,0.1
		C113.6,68.6,113.9,68.6,114.1,68.5L114.1,68.5z M113.1,69.3c-0.2,0.1-0.6-0.2-0.4,0c0.1,0.1,0.2,0.2,0.3,0.2c0.1,0,0.3-0.1,0.3-0.2
		c0.1-0.1,0.1-0.3,0-0.4C113.2,68.8,113.3,69.2,113.1,69.3L113.1,69.3z M114,69.3c-0.2,0.1-0.6-0.1-0.4,0.1c0.1,0.1,0.2,0.2,0.3,0.1
		s0.2-0.1,0.3-0.2c0.1-0.1,0-0.3,0-0.4C114,68.7,114.2,69.2,114,69.3L114,69.3z M113.1,69.9c-0.1-0.2,0,0.2-0.2,0.3
		c-0.2,0.1-0.6-0.1-0.4,0.1c0.1,0.1,0.2,0.2,0.3,0.2c0.1,0,0.3-0.1,0.3-0.2C113.2,70.1,113.2,70,113.1,69.9L113.1,69.9z M114.1,70
		c-0.1-0.2,0,0.2-0.3,0.3c-0.2,0.1-0.5-0.3-0.4,0c0.1,0.1,0.2,0.2,0.3,0.2c0.1,0,0.3,0,0.4-0.1C114.1,70.3,114.2,70.2,114.1,70z
		 M113.5,71.3c-0.2,0-0.5-0.3-0.4,0c0,0.1,0.2,0.2,0.3,0.2c0.1,0,0.3,0,0.4-0.1s0.1-0.2,0.1-0.4C113.7,70.8,113.7,71.2,113.5,71.3
		L113.5,71.3z M112.1,68c0.1,0,0.2-0.1,0.2-0.2c0-0.1,0-0.2,0-0.3c-0.1-0.2,0,0.2-0.3,0.3c-0.2,0.1-0.5-0.2-0.4,0
		C111.7,68,111.9,68.1,112.1,68L112.1,68z M112.1,69c-0.2,0.1-0.5-0.3-0.4,0c0.1,0.2,0.3,0.3,0.5,0.2c0.2-0.1,0.3-0.3,0.2-0.5
		C112.3,68.5,112.3,69,112.1,69L112.1,69z M112.2,69.7c-0.1-0.2,0,0.2-0.2,0.3c-0.2,0.1-0.6-0.1-0.4,0.1c0.1,0.1,0.2,0.2,0.3,0.2
		c0.1,0,0.3-0.1,0.3-0.2C112.3,69.9,112.3,69.8,112.2,69.7L112.2,69.7z M112.4,71c-0.2,0.1-0.6-0.2-0.4,0.1c0.1,0.2,0.3,0.3,0.5,0.2
		c0.2-0.1,0.3-0.3,0.2-0.5C112.5,70.5,112.6,71,112.4,71L112.4,71z M111.3,68.8c0.1-0.1,0.1-0.1,0.2-0.2c0-0.1,0-0.2-0.1-0.3
		c-0.1-0.2,0,0.2-0.2,0.3c-0.2,0.1-0.6-0.1-0.4,0.1C110.9,68.8,111.2,68.9,111.3,68.8L111.3,68.8z M110.7,69.7
		c0.1,0.2,0.3,0.3,0.5,0.2c0.2-0.1,0.3-0.3,0.2-0.5c-0.1-0.2,0,0.2-0.3,0.3C110.9,69.7,110.6,69.4,110.7,69.7L110.7,69.7z
		 M111.4,70.8c-0.2,0.1-0.5-0.2-0.4,0c0.1,0.1,0.2,0.2,0.3,0.2c0.1,0,0.3,0,0.3-0.2c0.1-0.1,0.1-0.3,0-0.4
		C111.5,70.2,111.6,70.7,111.4,70.8L111.4,70.8z M109.4,68.8c0.1,0,0.2-0.1,0.2-0.2c0-0.1,0-0.2,0-0.3c-0.1-0.2,0,0.2-0.3,0.3
		c-0.2,0.1-0.5-0.2-0.4,0C109,68.8,109.2,68.9,109.4,68.8L109.4,68.8z M109.3,69.8c0.1,0,0.2-0.1,0.2-0.2c0-0.1,0-0.2,0-0.3
		c-0.1-0.2,0,0.2-0.3,0.3c-0.2,0.1-0.6-0.2-0.4,0C108.9,69.8,109.1,69.9,109.3,69.8L109.3,69.8z M109.4,70.6c-0.2,0.1-0.5-0.2-0.4,0
		c0.1,0.1,0.2,0.2,0.3,0.2c0.1,0,0.3,0,0.3-0.2s0.1-0.3,0-0.4C109.5,70.1,109.6,70.5,109.4,70.6L109.4,70.6z M108,68.3
		c0.1,0.2,0.3,0.3,0.5,0.2c0.2-0.1,0.3-0.3,0.2-0.5c-0.1-0.2,0,0.2-0.3,0.3C108.2,68.3,107.8,68,108,68.3L108,68.3z M108.4,69.3
		c0.1-0.1,0.1-0.1,0.2-0.2s0-0.2-0.1-0.3c-0.1-0.2,0,0.2-0.2,0.3c-0.2,0.1-0.6-0.2-0.4,0.1C108,69.4,108.2,69.4,108.4,69.3
		L108.4,69.3z M108.4,70c-0.2,0.1-0.6-0.2-0.4,0.1c0.1,0.2,0.3,0.2,0.5,0.1c0.2-0.1,0.2-0.3,0.1-0.5C108.5,69.4,108.6,69.9,108.4,70
		L108.4,70z M108.6,70.5c-0.1-0.2,0,0.2-0.2,0.3c-0.2,0.1-0.6-0.2-0.4,0.1c0.1,0.1,0.2,0.2,0.3,0.2c0.1,0,0.3-0.1,0.3-0.2
		C108.6,70.8,108.6,70.7,108.6,70.5L108.6,70.5z M108.7,71.5c-0.2,0.1-0.6-0.2-0.4,0.1c0.1,0.2,0.3,0.2,0.5,0.1
		c0.2-0.1,0.2-0.3,0.1-0.5C108.8,71,108.9,71.4,108.7,71.5L108.7,71.5z M107.9,67.4c-0.1-0.2,0,0.2-0.2,0.3
		c-0.2,0.1-0.6-0.1-0.4,0.1c0.1,0.2,0.3,0.2,0.5,0.1C108,67.8,108,67.6,107.9,67.4z M107.5,68.7c-0.2,0.1-0.5-0.2-0.4,0
		c0.1,0.1,0.2,0.2,0.3,0.2s0.3,0,0.3-0.2c0.1-0.1,0.1-0.3,0-0.4C107.6,68.2,107.7,68.6,107.5,68.7L107.5,68.7z M106.9,70
		c0.1,0.1,0.2,0.2,0.3,0.2s0.3-0.1,0.3-0.2s0.1-0.3,0-0.4c-0.1-0.2,0,0.2-0.2,0.3C107.1,70,106.7,69.7,106.9,70L106.9,70z
		 M107.3,70.7c-0.2,0.1-0.6-0.2-0.4,0.1c0.1,0.2,0.3,0.2,0.5,0.1c0.2-0.1,0.2-0.3,0.1-0.5C107.4,70.2,107.6,70.6,107.3,70.7
		L107.3,70.7z M106.7,68.5c0.1-0.1,0.1-0.1,0.2-0.2s0-0.2,0-0.3c-0.1-0.2,0,0.2-0.2,0.3c-0.2,0.1-0.6-0.2-0.4,0.1
		C106.3,68.5,106.5,68.6,106.7,68.5L106.7,68.5z M106.7,69.4c0.1,0,0.2-0.1,0.2-0.2c0-0.1,0-0.2,0-0.3c-0.1-0.2,0,0.2-0.3,0.3
		c-0.2,0.1-0.5-0.2-0.4,0C106.3,69.4,106.5,69.5,106.7,69.4L106.7,69.4z M106.4,70.5c-0.2,0.1-0.6-0.2-0.4,0
		c0.1,0.1,0.2,0.2,0.3,0.2c0.1,0,0.3-0.1,0.3-0.2s0.1-0.3,0-0.4C106.5,69.9,106.6,70.4,106.4,70.5L106.4,70.5z M106.6,71.5
		c-0.2,0.1-0.6-0.2-0.4,0c0.1,0.1,0.2,0.2,0.3,0.2c0.1,0,0.3-0.1,0.3-0.2c0.1-0.1,0.1-0.3,0-0.4C106.8,71,106.9,71.4,106.6,71.5
		L106.6,71.5z M105.8,68.9c-0.2,0.1-0.6-0.2-0.4,0c0.1,0.1,0.2,0.2,0.3,0.2c0.1,0,0.3-0.1,0.3-0.2s0.1-0.3,0-0.4
		C105.9,68.3,106,68.8,105.8,68.9L105.8,68.9z M105.9,70.1c0.1-0.1,0.1-0.2,0.1-0.3c0-0.1,0-0.2-0.1-0.3c-0.1-0.2,0,0.2-0.2,0.3
		c-0.2,0.1-0.6-0.1-0.4,0.1C105.5,70.2,105.7,70.2,105.9,70.1L105.9,70.1z M105.8,71.2c-0.2,0-0.5-0.3-0.4,0c0,0.1,0.2,0.2,0.3,0.2
		s0.3,0,0.4-0.1c0.1-0.1,0.1-0.2,0.1-0.4C106,70.7,106,71.1,105.8,71.2L105.8,71.2z M105.7,68c0.1-0.1,0.1-0.2,0.1-0.3
		s0-0.2-0.1-0.3c-0.2-0.2,0,0.2-0.2,0.3c-0.2,0.1-0.6-0.1-0.4,0.1C105.3,68.1,105.6,68.1,105.7,68L105.7,68z M104.4,68.8
		c0.1,0.2,0.3,0.3,0.5,0.2c0.2-0.1,0.3-0.3,0.2-0.5c-0.1-0.2,0,0.2-0.3,0.3C104.6,68.9,104.3,68.6,104.4,68.8L104.4,68.8z
		 M104.9,70.2c0.1,0,0.2-0.1,0.2-0.2c0-0.1,0-0.2,0-0.3c-0.1-0.2,0,0.2-0.3,0.3c-0.2,0.1-0.5-0.2-0.4,0
		C104.5,70.2,104.7,70.3,104.9,70.2L104.9,70.2z M104.9,71c-0.2,0.1-0.5-0.3-0.4,0c0.1,0.1,0.2,0.2,0.3,0.2c0.1,0,0.3,0,0.3-0.1
		c0.1-0.1,0.1-0.3,0-0.4C105.1,70.5,105.1,71,104.9,71L104.9,71z M104.6,67.9c0.1-0.1,0.1-0.1,0.2-0.2c0-0.1,0-0.2,0-0.3
		c-0.1-0.2,0,0.2-0.2,0.3c-0.2,0.1-0.6-0.2-0.4,0.1C104.2,68,104.5,68,104.6,67.9L104.6,67.9z M103.9,68.7c0.1,0,0.2-0.1,0.2-0.2
		c0-0.1,0-0.2,0-0.3c-0.1-0.2,0,0.2-0.3,0.3c-0.2,0.1-0.5-0.3-0.4,0C103.5,68.7,103.7,68.8,103.9,68.7L103.9,68.7z M104.1,69.8
		c0.1-0.1,0.1-0.2,0.1-0.3c0-0.1,0-0.2-0.1-0.3c-0.2-0.2,0,0.2-0.2,0.4c-0.2,0.1-0.6-0.1-0.4,0.1C103.7,69.9,104,70,104.1,69.8
		L104.1,69.8z M104.1,70.8c-0.2,0.1-0.6-0.2-0.4,0c0.1,0.1,0.2,0.2,0.3,0.2s0.3-0.1,0.3-0.2c0.1-0.1,0.1-0.3,0-0.4
		C104.2,70.2,104.3,70.7,104.1,70.8L104.1,70.8z M103.2,69.6c0.1,0,0.2-0.1,0.2-0.2c0-0.1,0-0.2,0-0.3c-0.1-0.2,0,0.2-0.3,0.3
		c-0.2,0.1-0.5-0.2-0.4,0C102.8,69.6,103,69.7,103.2,69.6L103.2,69.6z M103.3,70.4c-0.2,0.1-0.6-0.2-0.4,0.1
		c0.1,0.2,0.3,0.2,0.5,0.1c0.2-0.1,0.2-0.4,0.1-0.5C103.3,69.8,103.5,70.3,103.3,70.4L103.3,70.4z M103.1,71.4
		c-0.2,0.1-0.6-0.2-0.4,0c0.1,0.1,0.2,0.2,0.3,0.2c0.1,0,0.3-0.1,0.3-0.2c0.1-0.1,0.1-0.3,0-0.4C103.3,70.9,103.4,71.3,103.1,71.4
		L103.1,71.4z M102,69c0.1,0,0.2-0.1,0.2-0.2c0-0.1,0-0.2,0-0.3c-0.1-0.2,0,0.2-0.2,0.3c-0.2,0.1-0.6-0.2-0.4,0
		C101.5,69,101.8,69,102,69L102,69z M102.2,70c0.1,0,0.2-0.1,0.2-0.2c0-0.1,0-0.2,0-0.3c-0.1-0.2,0,0.2-0.2,0.3
		c-0.2,0.1-0.6-0.2-0.4,0.1C101.8,70.1,102.1,70.1,102.2,70L102.2,70z M102.4,70.9c-0.2,0.1-0.5-0.3-0.4,0c0.1,0.2,0.3,0.3,0.5,0.2
		c0.2-0.1,0.3-0.3,0.2-0.5C102.5,70.4,102.6,70.8,102.4,70.9L102.4,70.9z M101.3,69.9c0.1-0.1,0.1-0.2,0.1-0.3s0-0.2-0.1-0.3
		c-0.2-0.2,0,0.2-0.2,0.4c-0.2,0.1-0.6-0.1-0.4,0.1C100.9,70,101.2,70,101.3,69.9L101.3,69.9z M101.5,70.8c-0.2,0.1-0.6-0.1-0.4,0.1
		c0.1,0.2,0.4,0.2,0.5,0.1c0.2-0.1,0.2-0.4,0.1-0.5C101.5,70.2,101.7,70.7,101.5,70.8z M94,99.8c0.1-0.1,0.1-0.1,0.2-0.2
		c0-0.1,0-0.2,0-0.3c-0.1-0.2,0,0.2-0.2,0.3c-0.2,0.1-0.6-0.2-0.4,0.1c0.1,0.1,0.1,0.1,0.2,0.2C93.8,99.8,93.9,99.8,94,99.8L94,99.8
		z M94,100.8c0.1-0.1,0.1-0.2,0.1-0.3s0-0.2-0.1-0.3c-0.2-0.2,0,0.2-0.2,0.4c-0.2,0.1-0.6-0.1-0.4,0.1c0.1,0.1,0.2,0.1,0.3,0.1
		C93.8,100.9,93.9,100.9,94,100.8L94,100.8z M94.3,101.9c0.1,0,0.2-0.1,0.2-0.2s0-0.2,0-0.3c-0.1-0.2,0,0.2-0.3,0.3
		c-0.2,0.1-0.5-0.3-0.4,0c0,0.1,0.1,0.2,0.2,0.2C94.1,101.9,94.2,101.9,94.3,101.9L94.3,101.9z M94.5,102.6c-0.2,0.1-0.5-0.2-0.4,0
		c0.1,0.1,0.2,0.2,0.3,0.2c0.1,0,0.3,0,0.3-0.2c0.1-0.1,0.1-0.3,0-0.4C94.6,102,94.7,102.5,94.5,102.6L94.5,102.6z M99.3,99.5
		c-0.2,0.1-0.6-0.2-0.4,0.1c0.1,0.2,0.3,0.2,0.5,0.1c0.2-0.1,0.2-0.3,0.1-0.5C99.4,98.9,99.5,99.4,99.3,99.5L99.3,99.5z M98.4,100.8
		c0.1,0.2,0.3,0.3,0.5,0.1c0.2-0.1,0.2-0.3,0.1-0.5c-0.1-0.2,0,0.2-0.2,0.3C98.6,100.9,98.2,100.6,98.4,100.8L98.4,100.8z
		 M98.9,102.5c0.1-0.1,0.1-0.1,0.2-0.2c0-0.1,0-0.2-0.1-0.3c-0.1-0.2,0,0.2-0.2,0.3c-0.2,0.1-0.6-0.1-0.4,0.1
		c0.1,0.1,0.1,0.1,0.2,0.2C98.7,102.6,98.8,102.6,98.9,102.5L98.9,102.5z M99.2,103.3c-0.2,0.1-0.6-0.2-0.4,0.1
		c0.1,0.1,0.2,0.2,0.3,0.2s0.3-0.1,0.3-0.2c0.1-0.1,0.1-0.3,0-0.4C99.2,102.8,99.4,103.2,99.2,103.3L99.2,103.3z M98.9,101.5
		c0,0.1,0.2,0.2,0.3,0.2s0.3,0,0.4-0.1c0.1-0.1,0.1-0.2,0.1-0.4c-0.1-0.2,0,0.2-0.3,0.3C99.1,101.5,98.8,101.2,98.9,101.5
		L98.9,101.5z M98.5,99.2c0.1,0,0.2-0.1,0.2-0.2s0-0.2,0-0.3c-0.1-0.2,0,0.2-0.2,0.3c-0.2,0.1-0.6-0.2-0.4,0.1
		c0,0.1,0.1,0.2,0.2,0.2C98.3,99.3,98.4,99.3,98.5,99.2L98.5,99.2z M98.4,100.1c-0.2,0.1-0.6-0.1-0.4,0.1c0.1,0.2,0.3,0.2,0.5,0.1
		c0.2-0.1,0.2-0.4,0.1-0.5C98.5,99.5,98.6,100,98.4,100.1L98.4,100.1z M98.4,101.1c-0.1-0.2,0,0.2-0.2,0.3c-0.2,0.1-0.6-0.1-0.4,0.1
		c0.1,0.2,0.4,0.2,0.5,0.1S98.5,101.3,98.4,101.1z M98,102.6c0.1,0,0.2-0.1,0.2-0.2c0-0.1,0-0.2,0-0.3c-0.1-0.2,0,0.2-0.2,0.3
		c-0.2,0.1-0.6-0.2-0.4,0.1c0,0.1,0.1,0.2,0.2,0.2S97.9,102.7,98,102.6L98,102.6z M98.3,103.1c-0.1-0.2,0,0.2-0.3,0.3
		c-0.2,0.1-0.5-0.2-0.4,0c0.1,0.1,0.2,0.2,0.3,0.2c0.1,0,0.3,0,0.3-0.2C98.4,103.4,98.4,103.3,98.3,103.1L98.3,103.1z M98.7,104.2
		c-0.2,0.1-0.6-0.1-0.4,0.1c0.1,0.2,0.4,0.2,0.5,0.1c0.2-0.1,0.2-0.4,0.1-0.5C98.7,103.7,98.9,104.1,98.7,104.2L98.7,104.2z
		 M96.7,99c0.1,0,0.2-0.1,0.2-0.2c0-0.1,0-0.2,0-0.3c-0.1-0.2,0,0.2-0.2,0.3c-0.2,0.1-0.6-0.2-0.4,0.1c0,0.1,0.1,0.2,0.2,0.2
		C96.5,99,96.6,99,96.7,99L96.7,99z M97.7,98.9c0.1-0.1,0.1-0.1,0.2-0.2c0-0.1,0-0.2-0.1-0.3c-0.1-0.2,0,0.2-0.2,0.3
		c-0.2,0.1-0.6-0.2-0.4,0.1c0.1,0.1,0.1,0.1,0.2,0.2C97.5,99,97.6,98.9,97.7,98.9L97.7,98.9z M96.8,99.6c-0.2,0.1-0.6-0.1-0.4,0.1
		c0.1,0.2,0.4,0.2,0.5,0.1s0.2-0.4,0.1-0.5C96.8,99,97,99.5,96.8,99.6L96.8,99.6z M97.6,99.6c-0.2,0.1-0.6-0.2-0.4,0
		c0.1,0.2,0.3,0.3,0.5,0.2s0.3-0.3,0.2-0.5C97.7,99.1,97.8,99.5,97.6,99.6L97.6,99.6z M96.8,100.2c-0.1-0.2,0,0.2-0.3,0.3
		c-0.2,0.1-0.5-0.3-0.4,0c0.1,0.2,0.3,0.3,0.5,0.2C96.8,100.6,96.9,100.4,96.8,100.2L96.8,100.2z M97,100.7c0.1,0.1,0.2,0.2,0.3,0.2
		c0.1,0,0.3-0.1,0.3-0.2c0.1-0.1,0.1-0.3,0-0.4c-0.1-0.2,0,0.2-0.2,0.3C97.3,100.7,96.9,100.4,97,100.7L97,100.7z M97.2,101.7
		c-0.2,0.1-0.6-0.1-0.4,0.1c0.1,0.2,0.3,0.2,0.5,0.1c0.2-0.1,0.2-0.4,0.1-0.5C97.2,101.1,97.4,101.6,97.2,101.7L97.2,101.7z
		 M97.1,102.9c0.1-0.1,0.1-0.1,0.2-0.2s0-0.2-0.1-0.3c-0.1-0.2,0,0.2-0.2,0.3c-0.2,0.1-0.6-0.1-0.4,0.1c0.1,0.1,0.1,0.1,0.2,0.2
		C97,103,97.1,103,97.1,102.9L97.1,102.9z M97.2,103.7c-0.2,0.1-0.5-0.2-0.4,0c0.1,0.2,0.3,0.3,0.5,0.2c0.2-0.1,0.3-0.3,0.2-0.5
		C97.4,103.2,97.4,103.7,97.2,103.7L97.2,103.7z M95.8,99.5c0.1,0,0.2-0.1,0.2-0.2c0-0.1,0-0.2,0-0.3c-0.1-0.2,0,0.2-0.3,0.3
		c-0.2,0-0.5-0.3-0.4,0c0,0.1,0.1,0.2,0.2,0.2C95.6,99.6,95.7,99.6,95.8,99.5L95.8,99.5z M95.8,100.5c0.1-0.1,0.1-0.1,0.2-0.2
		c0-0.1,0-0.2-0.1-0.3c-0.1-0.2,0,0.2-0.2,0.3c-0.2,0.1-0.6-0.1-0.4,0.1c0.1,0.1,0.1,0.1,0.2,0.2C95.6,100.5,95.7,100.5,95.8,100.5
		L95.8,100.5z M95.6,101.4c0.1,0.2,0.3,0.3,0.5,0.1c0.2-0.1,0.2-0.3,0.1-0.5c-0.1-0.2,0,0.2-0.2,0.3
		C95.9,101.4,95.5,101.1,95.6,101.4L95.6,101.4z M96.3,102.2c-0.2,0.1-0.6-0.1-0.4,0.1c0.1,0.2,0.4,0.2,0.5,0.1
		c0.2-0.1,0.2-0.4,0.1-0.5C96.3,101.6,96.5,102.1,96.3,102.2L96.3,102.2z M95,99.1c0.1,0,0.2-0.1,0.2-0.2c0-0.1,0-0.2,0-0.3
		c-0.1-0.2,0,0.2-0.3,0.3c-0.2,0.1-0.6-0.2-0.4,0c0,0.1,0.1,0.2,0.2,0.2C94.8,99.1,94.9,99.1,95,99.1L95,99.1z M94.9,100.1
		C95,100,95,99.9,95,99.8c0-0.1,0-0.2-0.1-0.3c-0.2-0.2,0,0.2-0.2,0.3c-0.2,0.1-0.6-0.1-0.4,0.1c0.1,0.1,0.2,0.1,0.3,0.1
		C94.7,100.2,94.8,100.2,94.9,100.1L94.9,100.1z M95,101c-0.2,0.1-0.6-0.2-0.4,0c0.1,0.2,0.3,0.3,0.5,0.2c0.2-0.1,0.3-0.3,0.2-0.5
		C95.1,100.5,95.2,100.9,95,101L95,101z M95.3,102c-0.2,0.1-0.5-0.2-0.4,0c0.1,0.1,0.2,0.2,0.3,0.2c0.1,0,0.3,0,0.3-0.2
		c0.1-0.1,0.1-0.3,0-0.4C95.4,101.5,95.5,102,95.3,102L95.3,102z M96,103.2c-0.2,0.1-0.6-0.1-0.4,0.1c0.1,0.2,0.4,0.2,0.5,0.1
		c0.2-0.1,0.2-0.4,0.1-0.5C96,102.6,96.2,103,96,103.2L96,103.2z M93.1,99c0.1,0,0.2-0.1,0.2-0.2c0-0.1,0-0.2,0-0.3
		c-0.1-0.2,0,0.2-0.2,0.3c-0.2,0.1-0.6-0.2-0.4,0c0,0.1,0.1,0.2,0.2,0.2C92.9,99.1,93,99.1,93.1,99L93.1,99z M92.8,100.1
		c0.1,0,0.2-0.1,0.2-0.2c0-0.1,0-0.2,0-0.3c-0.1-0.2,0,0.2-0.2,0.3c-0.2,0.1-0.6-0.2-0.4,0c0,0.1,0.1,0.2,0.2,0.2
		C92.6,100.1,92.7,100.1,92.8,100.1L92.8,100.1z M93,101.2c0.1-0.1,0.1-0.1,0.2-0.2c0-0.1,0-0.2,0-0.3c-0.1-0.2,0,0.2-0.2,0.3
		c-0.2,0.1-0.6-0.2-0.4,0.1c0.1,0.1,0.1,0.1,0.2,0.2S93,101.2,93,101.2L93,101.2z M93.3,101.8c-0.2,0.1-0.5-0.3-0.4,0
		c0.1,0.1,0.2,0.2,0.3,0.2s0.3,0,0.3-0.1c0.1-0.1,0.1-0.3,0-0.4C93.4,101.3,93.5,101.7,93.3,101.8L93.3,101.8z M92.3,98.6
		c-0.1-0.2,0,0.2-0.3,0.3c-0.2,0.1-0.5-0.2-0.4,0c0.1,0.2,0.3,0.3,0.5,0.2C92.3,99,92.4,98.8,92.3,98.6L92.3,98.6z M91.8,99.9
		c-0.2,0.1-0.6-0.1-0.4,0.1c0.1,0.1,0.2,0.2,0.4,0.1c0.1,0,0.2-0.1,0.3-0.2s0-0.3-0.1-0.4C91.8,99.4,92,99.8,91.8,99.9L91.8,99.9z
		 M91,99.1c-0.2,0-0.5-0.3-0.4,0c0.1,0.2,0.3,0.3,0.5,0.2c0.2-0.1,0.3-0.3,0.2-0.5C91.2,98.6,91.3,99.1,91,99.1L91,99.1z M88,90.1
		c-0.2,0.1-0.6-0.1-0.4,0.1c0.1,0.1,0.2,0.2,0.3,0.1s0.2-0.1,0.3-0.2s0-0.3,0-0.4C88,89.6,88.2,90,88,90.1L88,90.1z M114.6,95.6
		c-1.5,2.2-3.2,4.1-5.2,5.8c-0.8,0.7-1.6,1.3-2.5,1.8c-1.4,0.8-2.8,1.5-4.2,2.2c-0.5,0.2-0.9,0.4-1.3,0.5c-0.4,0.2-0.8,0.3-1.2,0.4
		c-0.4-0.1-0.8-0.2-1.2-0.4c-0.4-0.1-0.8-0.3-1.3-0.5c-1.5-0.6-2.9-1.3-4.2-2.2c-0.9-0.6-1.7-1.2-2.5-1.8c-2-1.7-3.8-3.6-5.2-5.8
		c-1.4-2.1-2.5-4.4-3.4-6.7c-0.7-2.1-1.1-4.3-1.2-6.5c-0.2-7.5-0.4-22.7-0.4-22.7s0,0,0.1,0c2-0.8,4.1-1.5,6.2-2
		c2.9-0.7,5.9-1.2,8.8-1.4c1.5-0.1,2.8-0.2,4.3-0.2h0.1c1.5,0,2.8,0.1,4.3,0.2c3,0.2,5.9,0.7,8.8,1.4c2.1,0.5,4.2,1.2,6.2,2
		c0.1,0,0.1,0.1,0.1,0.1s-0.2,15.2-0.4,22.7c0,2.2-0.5,4.4-1.2,6.5C117.2,91.3,116,93.5,114.6,95.6z M118.6,77.2h-0.9
		c0,0.2-0.1,0.4-0.3,0.4c-0.2,0.1-0.4,0-0.5-0.2c-0.1-0.3,0.2,0,0.4,0c0.1,0,0.1-0.1,0.1-0.2h-2.9c-0.1,0.1-0.2,0.2-0.3,0.2
		c-0.1,0-0.3-0.1-0.3-0.2c0,0,0,0,0,0h-0.5c0.1,0.2,0,0.4-0.2,0.5c-0.2,0.1-0.4,0-0.5-0.1c-0.2-0.2,0.2,0,0.4-0.1
		c0.1-0.1,0.1-0.1,0.1-0.2h-1.4c0,0,0,0,0,0c0.1,0.2,0.1,0.4-0.1,0.5c-0.2,0.1-0.4,0.1-0.5-0.1c-0.1-0.2,0.2,0,0.4-0.1
		c0.1-0.1,0.1-0.3,0.2-0.4h-1.5c0.1,0.2,0,0.4-0.1,0.5c-0.2,0.1-0.4,0.1-0.5-0.1c-0.2-0.2,0.2,0,0.4-0.1c0.1-0.1,0.1-0.2,0.1-0.3h-1
		c0.1,0.1,0.1,0.3,0,0.4c-0.1,0.1-0.2,0.2-0.3,0.2s-0.3-0.1-0.3-0.2c-0.2-0.2,0.2,0,0.4-0.1c0.1-0.1,0.1-0.2,0.1-0.3h-1.4l0,0.7
		c0.1,0,0.3,0,0.4,0c0.2-0.1,0-0.5,0.2-0.3c0.1,0.2,0.1,0.4-0.1,0.5s-0.4,0.1-0.5,0l0,0.7c0.1,0,0.2,0,0.2,0
		c0.2-0.1,0.1-0.5,0.3-0.3c0.1,0.1,0,0.3-0.1,0.4c-0.1,0.1-0.3,0.1-0.4,0.1l0,0.8c0.1,0,0.3,0.1,0.4,0c0.2-0.1,0-0.5,0.2-0.3
		c0.1,0.2,0.1,0.4-0.1,0.5c-0.2,0.1-0.4,0.1-0.5-0.1l0,1.2c0.1,0,0.2,0,0.3,0c0.2-0.1,0.1-0.5,0.2-0.3c0.1,0.2,0.1,0.4-0.1,0.5
		c-0.1,0.1-0.3,0.1-0.5,0l0,0.7h0.5c0,0,0,0-0.1-0.1c-0.2-0.2,0.2,0,0.4-0.1c0.2-0.1,0-0.5,0.2-0.3c0.1,0.2,0.1,0.4-0.1,0.5h3
		c0,0,0-0.1-0.1-0.1c-0.1-0.3,0.2,0,0.4,0c0.2-0.1,0.1-0.5,0.2-0.3c0.1,0.1,0,0.3-0.1,0.4h0.6c-0.1,0-0.1-0.1-0.2-0.1
		c-0.1-0.2,0.2,0,0.4-0.1c0.2-0.1,0.1-0.5,0.2-0.3c0.1,0.1,0.1,0.2,0,0.3c0,0.1-0.1,0.2-0.2,0.2c0,0,0,0,0,0h1.3c0,0,0,0,0,0
		c-0.2-0.2,0.2,0,0.4-0.1c0.2-0.1,0-0.5,0.2-0.3c0.1,0.1,0.1,0.3,0,0.5h2.4c0,0-0.1-0.1-0.1-0.1c-0.1-0.2,0.2,0,0.4-0.1
		c0.2-0.1,0.1-0.5,0.2-0.3c0.1,0.2,0.1,0.4-0.1,0.5h0.5c0-0.2,0-0.4,0-0.6c-0.1,0-0.3,0-0.4-0.1c-0.2-0.2,0.2,0,0.4-0.1
		c0-0.4,0-0.8,0-1.3c-0.2,0.1-0.4,0.1-0.5-0.1c-0.2-0.2,0.2,0,0.4-0.1c0,0,0.1-0.1,0.1-0.1c0-0.2,0-0.4,0-0.6c-0.1,0-0.2,0-0.3-0.1
		c-0.1-0.2,0.1-0.1,0.3-0.1c0-0.2,0-0.5,0-0.7c-0.2,0.1-0.4,0.1-0.5-0.1c-0.2-0.2,0.2,0,0.4-0.1c0,0,0.1-0.1,0.1-0.1
		C118.6,77.5,118.6,77.3,118.6,77.2L118.6,77.2z M118.8,67.3h-0.1c0,0.2-0.1,0.4-0.3,0.4c-0.2,0.1-0.4,0-0.5-0.2
		c-0.1-0.3,0.2,0.1,0.4,0c0.1,0,0.2-0.1,0.2-0.2H117c0,0.2-0.1,0.3-0.2,0.4c-0.2,0.1-0.4,0-0.4-0.1c-0.2-0.2,0.2,0,0.4-0.1
		c0.1,0,0.1-0.1,0.1-0.2h-2.3c-0.1,0.1-0.2,0.2-0.3,0.2c-0.1,0-0.3,0-0.3-0.2c0,0,0,0,0-0.1h-0.4c0,0.2-0.1,0.3-0.3,0.4
		c-0.2,0-0.4,0-0.4-0.2c-0.1-0.3,0.2,0,0.4,0c0.1,0,0.1-0.1,0.1-0.2h-2c0,0.2,0,0.3-0.2,0.4c-0.2,0.1-0.3,0-0.5-0.1
		c-0.2-0.2,0.2,0,0.4-0.1c0.1,0,0.1-0.1,0.1-0.2h-2.1c0,0.2-0.1,0.4-0.3,0.4c-0.2,0-0.4,0-0.4-0.2c-0.1-0.3,0.2,0,0.4,0
		c0.1,0,0.1-0.1,0.2-0.2h-2.1c0,0.2-0.1,0.3-0.3,0.4s-0.4,0-0.4-0.2c-0.1-0.2,0.2,0,0.4-0.1c0.1,0,0.1-0.1,0.1-0.2h-3
		c0.1,0.2,0,0.4-0.2,0.5c-0.2,0.1-0.4,0-0.5-0.2c-0.1-0.2,0.2,0,0.4,0c0.1,0,0.1-0.1,0.2-0.2h-1.9c0,0,0,0,0,0.1
		c0.1,0.2,0,0.4-0.2,0.5c-0.2,0.1-0.4,0-0.5-0.2c-0.1-0.3,0.2,0,0.4,0c0.2-0.1,0.2-0.3,0.2-0.4h-1.3v0.5c0,0,0.1,0,0.1,0
		c0.2,0,0.2-0.5,0.3-0.3c0,0.1,0,0.2,0,0.4s-0.2,0.2-0.3,0.2v1.3c0,0,0,0,0,0c0.2-0.1,0.2-0.5,0.3-0.3c0,0.1,0,0.2,0,0.3
		s-0.1,0.2-0.2,0.2c0,0-0.1,0-0.1,0v0.9c0,0,0.1,0,0.1,0c0.2-0.1,0.2-0.5,0.3-0.3c0,0.1,0,0.2,0,0.3s-0.1,0.2-0.2,0.2
		c-0.1,0-0.1,0-0.2,0v0.6c0.1,0,0.2,0,0.3,0c0.2-0.1,0.1-0.5,0.2-0.3c0.1,0.1,0.1,0.3,0,0.5c-0.1,0.1-0.3,0.2-0.5,0.1v0.4h0.4
		c-0.1-0.2,0.3,0,0.4-0.1c0.2-0.1,0-0.5,0.2-0.3c0.1,0.1,0.1,0.3,0,0.4h0.5c0,0-0.1-0.1-0.1-0.1c-0.1-0.3,0.2,0.1,0.4,0
		c0.2-0.1,0.2-0.5,0.3-0.3c0.1,0.1,0,0.3-0.1,0.4h1.4c-0.1,0-0.1-0.1-0.1-0.1c-0.1-0.2,0.2,0,0.4-0.1c0.2-0.1,0.1-0.5,0.2-0.3
		c0.1,0.1,0.1,0.2,0,0.3c0,0.1-0.1,0.2-0.2,0.2c0,0,0,0,0,0h1c0.1-0.1,0-0.4,0.2-0.3c0,0.1,0.1,0.2,0,0.3h1.9
		c-0.1-0.2,0.3,0,0.4-0.1c0.2-0.1,0.1-0.5,0.2-0.3c0.1,0.1,0.1,0.3,0,0.4h1.5c0,0,0,0-0.1-0.1c-0.2-0.2,0.2,0,0.4-0.1
		c0.2-0.1,0-0.5,0.2-0.3c0.1,0.2,0.1,0.4-0.1,0.5h1.4c0,0-0.1-0.1-0.1-0.1c-0.1-0.3,0.2,0,0.4,0c0.2-0.1,0.2-0.5,0.3-0.3
		c0.1,0.1,0,0.3-0.1,0.4h1c0.1-0.2,0-0.4,0.1-0.3c0,0.1,0.1,0.2,0.1,0.3h1c0,0,0,0,0,0c-0.1-0.3,0.2,0.1,0.4,0
		c0.2-0.1,0.2-0.5,0.3-0.3c0,0.1,0,0.2,0,0.3h0.9c0,0-0.1-0.1-0.1-0.1c-0.1-0.3,0.2,0,0.4,0c0.2-0.1,0.2-0.5,0.3-0.3
		c0.1,0.1,0,0.3-0.1,0.4h1.8c0,0,0,0,0-0.1c-0.1-0.2,0.2,0,0.4-0.1c0.2-0.1,0.1-0.5,0.2-0.3c0.1,0.1,0.1,0.3,0,0.4h0.3
		c0-1.1,0-2.2,0.1-3.3c-0.1,0-0.3,0-0.4-0.1c-0.2-0.2,0.2,0,0.4-0.1C118.8,68,118.8,67.6,118.8,67.3L118.8,67.3z M81.5,65.1
		C81.5,65.1,81.5,65.1,81.5,65.1c2-0.8,4-1.5,6-2c2.8-0.7,5.6-1.1,8.5-1.4c1.4-0.1,2.7-0.2,4.1-0.2h0.1c1.4,0,2.7,0.1,4.1,0.2
		c2.9,0.2,5.7,0.7,8.5,1.4c2,0.5,4,1.2,6,2c0,0,0,0,0,0c0-2.8,0.1-4.8,0.1-4.8c0,0-0.1,0-0.1-0.1c-1.9-0.8-3.9-1.4-6-2
		c-2.8-0.7-5.6-1.1-8.5-1.4c-1.4-0.1-2.7-0.2-4.1-0.2h-0.1c-1.4,0-2.7,0.1-4.1,0.2c-2.9,0.2-5.7,0.7-8.5,1.4c-2,0.5-4,1.2-6,2
		c-0.1,0-0.1,0-0.1,0S81.5,62.3,81.5,65.1L81.5,65.1z M92.7,82.1l0-4.4h0c-0.2,0-0.4,0-0.6,0c-1.4,0-3.5,0.5-4.9,1.2
		c-1.4,0.7-1.6,0.8-2,1l0,0l0.1,0c0.2,0.1,0.4,0.3,0.5,0.5c0.1,0.2,0,0.5-0.2,0.6c-0.1,0.1-0.3,0.1-0.4,0.1c-0.1,0-0.3,0-0.4-0.1
		c-0.1-0.1-0.1-0.1-0.2-0.2l0,0c0,0-0.1-0.1-0.1-0.1l0,0l0,0c0,0-0.1,0.1-0.1,0.1l0,0c-0.1,0.1-0.2,0.2-0.4,0.3
		c-0.1,0.1-0.2,0.1-0.4,0.1c-0.2,0-0.3-0.1-0.4-0.2c-0.1-0.1-0.1-0.3-0.1-0.4c0-0.2,0.2-0.4,0.3-0.4l0,0c0.1-0.1,0.2-0.1,0.3-0.2
		l0,0l0,0c0-0.1-0.1-0.1-0.1-0.2c-0.1-0.1-0.1-0.2-0.2-0.3c-0.1-0.2,0-0.5,0.2-0.7c0.1-0.1,0.2-0.1,0.3-0.1c0.1,0,0.2,0,0.4,0.1
		c0.2,0.1,0.3,0.3,0.4,0.5l0,0l0,0.1l0,0l0,0c0.1-0.1,0.2-0.1,0.3-0.2l0,0c0.1-0.1,0.3-0.2,0.5-0.3l0,0l0,0c0-0.1-0.1-0.1-0.1-0.2
		c-0.2-0.5-0.4-1-0.3-1.5c0.2-0.7,0.7-1.1,1.2-1.2c0.1,0,0.1,0,0.2,0c0,0,0,0,0,0c-0.3,0.4-0.5,0.8-0.6,1.4c0,0.4,0,0.8,0.2,1.1l0,0
		l0,0c0.2-0.1,0.4-0.1,0.5-0.2c0.2-0.1,0.5-0.2,0.7-0.3l0,0l0,0c-0.2-0.4-0.3-1.3,0-1.9c0.2-0.5,1-1,1.4-1h0c0.1,0,0.1,0,0.2,0
		c0,0,0,0,0,0c-0.8,0.6-1.2,1.6-0.9,2.5l0,0l0,0c0.2-0.1,0.6-0.2,0.9-0.3l0,0c0.2-0.1,0.4-0.1,0.5-0.2l0,0v0c0,0,0,0,0,0
		c0-0.6,0.2-1.3,0.6-1.8c0.3-0.4,0.9-0.8,1.3-0.8c0.1,0,0.2,0,0.3,0c0,0,0,0-0.1,0.1l-0.1,0c-0.2,0.1-1,0.8-1.2,1.3
		c-0.2,0.3-0.2,0.6-0.2,1l0,0l0,0c0.6-0.1,1.2-0.2,1.8-0.2h0l0,0c0.1-0.2,0.1-0.3,0.2-0.4c0.1-0.2,0.3-0.4,0.5-0.6l0-2.7l0,0
		C92.3,73,92,73,91.7,72.9c-0.3,0-0.5,0-0.8,0c-1.2,0.1-2.5,0.4-3.7,0.9c-0.7,0.3-1.5,0.6-2.1,1L84.8,75l0,0l0,0l0,0
		c0.1,0.1,0.2,0.3,0.2,0.5c0,0.2-0.1,0.4-0.3,0.5c-0.1,0-0.2,0.1-0.3,0.1c-0.2,0-0.3-0.1-0.4-0.2c0,0-0.1-0.1-0.1-0.1
		c0-0.1-0.1-0.1-0.1-0.2l0,0l0,0c-0.1,0.1-0.3,0.3-0.5,0.3c-0.1,0-0.2,0-0.3,0c-0.2,0-0.4-0.1-0.4-0.3c-0.1-0.3-0.1-0.6,0.2-0.7
		c0.1-0.1,0.3-0.2,0.5-0.3l0,0l0,0c0,0-0.1-0.1-0.1-0.1c-0.1-0.1-0.1-0.1-0.1-0.2c-0.1-0.1-0.1-0.3,0-0.4c0-0.1,0.1-0.2,0.2-0.2
		c0.1,0,0.2-0.1,0.3-0.1c0.2,0,0.4,0.1,0.5,0.2C84,74,84,74.1,84,74.3l0,0l0,0c0.3-0.1,0.5-0.2,0.8-0.4l0,0v0c0-0.1,0-0.2,0-0.3
		c0-0.4,0-0.9,0.1-1.3l0-0.1l0-0.1c0.2-0.5,0.3-0.8,1.1-1c0.1,0,0.2,0,0.3,0c0,0,0.1,0,0.1,0c-0.1,0.1-0.1,0.1-0.2,0.2
		c-0.2,0.3-0.4,0.6-0.5,0.9c-0.1,0.4-0.1,0.8,0,1.2l0,0l0,0c0.5-0.2,0.9-0.3,1.3-0.5l0,0v0v-0.1c0-0.5,0.1-1.1,0.3-1.6
		c0.2-0.6,0.8-1,1.4-1h0.1c0.1,0,0.2,0,0.3,0c-0.1,0.1-0.2,0.1-0.2,0.2c-0.3,0.2-0.6,0.6-0.7,0.9c-0.2,0.4-0.3,0.7-0.3,1.1l0,0.1
		l0.1,0c0.3-0.1,0.6-0.2,1-0.2c0.2,0,0.4-0.1,0.6-0.1l0,0l0,0c0-0.1,0-0.1,0-0.2c0-0.5,0.2-1,0.6-1.3c0.4-0.4,1-0.7,1.5-0.7
		c0.1,0,0.1,0,0.2,0c0.1,0,0.2,0.1,0.4,0.1c0,0-0.1,0-0.1,0c-0.5,0.1-1,0.4-1.3,0.7c-0.2,0.2-0.3,0.5-0.4,0.8c0,0.1-0.1,0.3-0.1,0.4
		l0,0l0,0c0.5,0,1-0.1,1.6-0.1h0l0,0c0.2-0.5,0.5-1,1-1.3c0.2-0.1,0.5-0.2,0.8-0.2c0.3,0,0.5,0.1,0.7,0.2c0.1,0,0.1,0.1,0.2,0.1
		c-0.1,0-0.4,0.1-0.4,0.1c-0.5,0.1-1,0.4-1.3,0.8l0,0h6.5v-9.7c-1.3,0-2.4,0.1-3.7,0.2c-2.9,0.2-5.7,0.7-8.5,1.4c-2,0.5-4,1.2-6,2
		c0.1,4.9,0.2,12,0.3,16.4H92.7z M99.7,98.3h-0.1c0.1,0.2,0,0.4-0.2,0.5c-0.2,0.1-0.4,0-0.5-0.2c-0.1-0.2,0.2,0,0.4-0.1
		c0.1,0,0.1-0.1,0.1-0.2H96c0,0.1-0.1,0.1-0.1,0.1c-0.1,0.1-0.2,0.1-0.3,0.1c-0.1,0-0.2-0.1-0.3-0.1c0,0,0,0,0-0.1h-1
		c0.1,0.2,0,0.4-0.2,0.5c-0.2,0.1-0.4,0-0.5-0.1c-0.1-0.2,0.2,0,0.4-0.1c0.1,0,0.1-0.2,0.2-0.3h-2.5c-0.1,0.1-0.2,0.2-0.3,0.2
		s-0.3-0.1-0.3-0.2h-0.5c0,0.2-0.1,0.4-0.2,0.4c-0.2,0.1-0.4,0-0.5-0.2c-0.1-0.2,0.2,0,0.4-0.1c0.1,0,0.1-0.1,0.1-0.2h-1.8
		c0.2,0.2,0.4,0.4,0.6,0.7c0,0,0,0,0.1,0c0.2-0.1,0.1-0.5,0.2-0.3c0.1,0.2,0,0.4-0.1,0.5c0.1,0.1,0.2,0.2,0.4,0.4c0.1,0,0.3,0,0.4,0
		c0.2-0.1,0-0.5,0.2-0.4c0.1,0.1,0.1,0.3,0,0.4s-0.2,0.2-0.3,0.2c0.2,0.2,0.5,0.4,0.7,0.6c0,0,0.1,0,0.1,0c0.2-0.1,0.2-0.5,0.3-0.3
		c0.1,0.2,0,0.4-0.1,0.5c0.1,0.1,0.2,0.2,0.3,0.3c0.1,0.1,0.1,0.1,0.2,0.2c0.1,0,0.3,0.1,0.4,0.1c0.2-0.1,0.1-0.5,0.2-0.3
		c0.1,0.1,0.1,0.2,0,0.4c-0.1,0.1-0.2,0.2-0.3,0.2c0.6,0.5,1.2,0.9,1.8,1.3c0.4,0.3,0.8,0.5,1.2,0.7c0.1,0,0.1,0,0.2,0
		c0.2,0,0.2-0.5,0.3-0.3c0.1,0.2,0,0.3-0.1,0.4c0.4,0.2,0.7,0.4,1.1,0.5c0,0,0,0,0,0c0.2-0.1,0.1-0.5,0.2-0.3c0.1,0.1,0.1,0.3,0,0.4
		c0.3,0.1,0.6,0.3,0.8,0.4c0,0,0,0,0,0c-0.1-0.3,0.2,0.1,0.4,0c0.2-0.1,0.2-0.5,0.3-0.3c0,0.1,0,0.2,0,0.3c0,0.1-0.1,0.2-0.2,0.2
		c0,0,0,0,0,0c0.3,0.1,0.6,0.3,0.8,0.4c0,0,0.1,0,0.1,0c0.2-0.1,0.1-0.5,0.3-0.3c0.1,0.1,0,0.3-0.1,0.4l0,0c0.3,0.1,0.5,0.2,0.7,0.2
		v-0.9c0,0,0,0,0,0c-0.1,0-0.2,0-0.3,0c-0.1,0-0.2-0.1-0.2-0.2c-0.1-0.3,0.2,0,0.4,0c0,0,0.1,0,0.1-0.1v-1.6c-0.1,0-0.3-0.1-0.3-0.2
		c-0.1-0.2,0.1,0,0.3-0.1v-2c-0.2,0-0.3,0-0.4-0.2c-0.1-0.2,0.2,0,0.4-0.1h0L99.7,98.3z M99.7,89.9c-0.1,0-0.2,0-0.3,0
		c0.1,0.2,0,0.4-0.2,0.5s-0.4,0-0.5-0.1c-0.2-0.2,0.2,0,0.4-0.1c0.1-0.1,0.1-0.2,0.1-0.3c-0.3,0-0.6-0.1-0.8-0.2
		c0,0.2-0.1,0.4-0.3,0.4c-0.2,0-0.4,0-0.4-0.2c-0.1-0.3,0.2,0,0.4,0c0.1,0,0.1-0.1,0.2-0.2c-0.6-0.1-1.1-0.3-1.6-0.6
		c0,0.2-0.1,0.3-0.3,0.4c-0.2,0-0.3,0-0.4-0.2c-0.1-0.2,0.2,0,0.4-0.1c0.1,0,0.1-0.1,0.1-0.2c-0.5-0.3-0.9-0.6-1.4-0.9
		c0,0.2-0.2,0.3-0.3,0.3c-0.2,0-0.3-0.1-0.4-0.2c-0.1-0.3,0.2,0.1,0.4,0c0.1,0,0.1-0.1,0.2-0.2c-0.1,0-0.1-0.1-0.2-0.1h-0.8
		c0.1,0.2-0.1,0.4-0.2,0.5c-0.2,0.1-0.4,0-0.5-0.2c-0.1-0.3,0.2,0.1,0.4,0c0.1,0,0.2-0.2,0.2-0.2h-1.3c0.1,0.2,0,0.4-0.2,0.5
		c-0.2,0.1-0.4,0-0.5-0.2c-0.1-0.3,0.2,0,0.4,0c0.1,0,0.1-0.2,0.2-0.3h-2.9c0,0.2-0.1,0.3-0.3,0.4s-0.3,0-0.4-0.1
		c-0.2-0.2,0.2,0,0.4-0.1c0.1,0,0.1-0.1,0.1-0.1h-1c0.1,0.2,0.1,0.4-0.1,0.5c-0.2,0.1-0.4,0.1-0.5-0.1c-0.2-0.2,0.2,0,0.4-0.1
		c0.1-0.1,0.1-0.2,0.1-0.3h-1.9c0,0.2-0.1,0.3-0.2,0.4c-0.2,0.1-0.3,0-0.4-0.1c-0.2-0.2,0.2,0,0.4-0.1c0.1,0,0.1-0.1,0.1-0.2h-1
		c0.1,0.2,0,0.4-0.1,0.5c-0.2,0.1-0.4,0.1-0.5-0.1c-0.2-0.2,0.2,0,0.4-0.1c0.1-0.1,0.1-0.2,0.1-0.3h-0.8c0,0.2-0.1,0.3-0.3,0.4
		c-0.2,0-0.3,0-0.4-0.2c-0.1-0.2,0.2,0,0.4-0.1c0.1,0,0.1-0.1,0.1-0.1h-0.8c-0.1,0.1-0.2,0.2-0.3,0.2c-0.1,0-0.3-0.1-0.3-0.2
		c0,0,0,0,0,0h-0.2c0.1,0.2,0.2,0.5,0.2,0.7c0.1,0,0.3,0.1,0.4,0c0.2-0.1,0.1-0.5,0.2-0.3c0.1,0.2,0.1,0.4-0.1,0.5
		c-0.1,0.1-0.3,0.1-0.5,0c0.1,0.2,0.1,0.4,0.2,0.5c0.1,0,0.3,0.1,0.4,0.1c0.2-0.1,0.2-0.5,0.3-0.3c0.1,0.2,0,0.3-0.1,0.4
		c-0.1,0.1-0.3,0.1-0.5,0c0.2,0.4,0.3,0.8,0.5,1.3c0,0,0.1,0,0.2,0c0.2-0.1,0.2-0.5,0.3-0.3c0,0.1,0,0.2,0,0.3
		c0,0.1-0.1,0.2-0.2,0.2c0,0-0.1,0-0.1,0c0.2,0.5,0.4,0.9,0.7,1.4h0.6c0,0,0,0,0-0.1c-0.1-0.2,0.2,0,0.4,0c0.2-0.1,0.1-0.5,0.2-0.3
		c0.1,0.1,0.1,0.3,0,0.4h1.6c0,0-0.1-0.1-0.1-0.1c-0.2-0.2,0.2,0,0.4-0.1c0.2-0.1,0-0.5,0.2-0.3c0.1,0.1,0.1,0.2,0.1,0.3
		s-0.1,0.2-0.2,0.3h0.5c0,0,0,0,0,0c-0.1-0.3,0.2,0,0.4,0c0.2-0.1,0.1-0.5,0.2-0.3c0.1,0.1,0,0.2,0,0.4h1.1c0,0-0.1-0.1-0.1-0.1
		c-0.1-0.2,0.2,0,0.4-0.1c0.2-0.1,0.1-0.5,0.2-0.3c0.1,0.2,0,0.4-0.1,0.5h1.7c0,0,0,0,0,0c-0.1-0.2,0.2,0,0.4-0.1
		c0.2-0.1,0.1-0.5,0.2-0.3c0.1,0.1,0.1,0.3,0,0.4h1c0.1-0.1,0-0.5,0.2-0.3c0.1,0.1,0.1,0.2,0.1,0.3h1.1c-0.1,0-0.1-0.1-0.1-0.1
		c-0.1-0.3,0.2,0,0.4,0c0.2-0.1,0.1-0.5,0.3-0.3c0.1,0.2,0,0.4-0.1,0.5h2.2c0,0,0,0,0,0c-0.1-0.3,0.2,0.1,0.4,0
		c0.2-0.1,0.2-0.5,0.3-0.3c0,0.1,0,0.2,0,0.3h1.2v-0.9c-0.1,0-0.3-0.1-0.3-0.2c-0.1-0.2,0.1,0,0.3,0L99.7,89.9z M100.4,89.6
		c0.2,0,0.4,0,0.6,0l0.4,0c0.5-0.1,0.9-0.2,1.4-0.4l0.3-0.1l0,0c0.5-0.2,1-0.5,1.5-0.8l0,0c1.8-1.2,2.8-3.2,2.9-5.3v-0.4V82l0-3.9
		l0-0.8v-0.7l0-1.2l0-2v-0.9v-0.3H93l0,10l0,0.6v0.2c0,1.6,0.6,3,1.7,4.2l0.5,0.5c0.1,0.1,0.1,0.1,0.2,0.2c1.2,1,2.7,1.7,4.3,1.8
		C99.7,89.6,100,89.6,100.4,89.6L100.4,89.6z M114.1,95.2c1.3-2,2.4-4.2,3.2-6.5c0.7-2,1.1-4,1.1-6.1h-10.7v0.4
		c0,1.1-0.3,2.2-0.9,3.2c-0.1,0.2-0.2,0.3-0.3,0.5l0.3-0.1l1.3-0.3c0.1,0,0.2-0.1,0.3-0.3c0.1-0.5,0.3-1,0.6-1.3
		c0.3-0.4,0.6-0.7,1.2-0.8c0.6,0,0.8,0.1,0.7,0.2c-0.4,0.1-0.7,0.4-0.9,0.7c-0.3,0.5-0.5,1.1-0.3,1.1c0.1,0,0.4,0,0.4,0
		c0.2,0,0.5,0,0.7,0c0,0,0.1,0,0.1-0.1c0,0,0.1-0.1,0.1-0.1c0.2-0.5,0.5-1.2,1-1.5c0.2-0.1,0.4-0.2,0.7-0.2c0.4,0,0.7,0.1,1,0.4
		c0.1,0.1-0.4-0.1-1.2,0.7c-0.2,0.2-0.4,0.5-0.6,0.9c0,0,0,0.1,0,0.1c0.4,0.1,1,0.2,1.3,0.4c0.1,0,0.1,0,0.2-0.1
		c0.2-0.3,0.4-0.5,0.6-0.7c0.3-0.2,0.6-0.3,0.9-0.3l0.1,0c0.7,0.1,0.8,0.4,0.8,0.5c0,0.1-0.2,0.1-0.2,0.1c-0.5,0.1-0.9,0.4-1.2,0.8
		c0,0.1,0.1,0.2,0.1,0.2c0.5,0.4,0.8,0.7,0.7,1.5c0,0.1,0,0.2-0.1,0.2c-0.1-0.1-0.2-0.1-0.3-0.2c-0.3-0.3-0.6-0.5-1-0.8
		c-0.6-0.4-1.2-0.6-1.9-0.7c-0.5-0.1-1-0.1-1.5-0.2c-1.1,0-2.3,0.2-3.4,0.5c-0.2,0.1-0.9,0.3-1.6,0.5l-0.2,0.1
		c-0.3,0.2-0.5,0.4-0.8,0.6l0,0l0,0c-0.5,0.3-1,0.6-1.6,0.9l0,0l-0.4,0.2l0.1,0.1c0.1,0.1,0.1,0.2,0.1,0.3c0,0.1-0.1,0.2-0.2,0.2
		c-0.2,0.1-0.5-0.1-0.6-0.3c0,0-0.1,0-0.1,0c-0.1,0.3-0.2,0.4-0.4,0.4c-0.1,0-0.2-0.1-0.3-0.2c0,0,0-0.1,0-0.1l0,0l-0.4,0
		c-0.2,0-0.4,0-0.7,0l0,0l0,15.5l0,0c0.2-0.1,0.6-0.2,1-0.3c0.4-0.1,0.8-0.3,1.2-0.5c1.4-0.6,2.8-1.3,4.1-2.1
		c0.8-0.5,1.6-1.1,2.4-1.8C111,99.2,112.7,97.3,114.1,95.2L114.1,95.2z M103.8,88.2c-1.1,0.6-2.3,1-3.5,1h0c-1.7,0-3.3-0.7-4.6-1.8
		c-1.4-1.2-2.2-2.9-2.3-4.8l0-10.1c0,0,0,0,0,0l13.6,0c0,0,0,0,0,0l0,10.5c0,0.5-0.1,1.1-0.3,1.6C106.2,86.2,105.1,87.4,103.8,88.2
		L103.8,88.2z M103.6,88c1.3-0.8,2.3-2,2.8-3.4c0.2-0.5,0.3-1,0.3-1.5l0-10.2l-13,0v9.9c0,1.7,0.8,3.4,2.2,4.5
		c1.2,1.1,2.8,1.7,4.4,1.7h0C101.4,88.9,102.6,88.6,103.6,88L103.6,88z M82.9,71C82.9,71,82.9,70.9,82.9,71
		C82.9,70.9,83,70.9,82.9,71c0.3-0.1,0.6-0.2,0.8-0.4l0,0l0,0c0,0,0.1,0.1,0.1,0.1c0,0.1,0.1,0.1,0.2,0.2c0.1,0.1,0.3,0.1,0.4,0.1
		c0.1,0,0.2,0,0.3-0.1c0.2-0.1,0.3-0.3,0.3-0.6c0-0.2-0.1-0.3-0.2-0.4c0,0-0.1-0.1-0.1-0.1c0,0,0,0,0,0l0,0l0,0
		c2.2-1.1,3-1.4,5.1-1.9c1.1-0.3,2.2-0.5,3.4-0.5c0.8-0.1,1.1-0.1,1.8,0.1c0.6,0.1,1.2,0.4,1.7,0.8c0,0,0.1,0.1,0.2,0.2c0,0,0,0,0,0
		c0-0.1,0-0.2,0-0.3c-0.1-0.3-0.4-0.7-0.8-1c-0.4-0.2-0.8-0.4-1.3-0.4l-0.1,0l0-0.1c0.2-0.3,0.4-0.5,0.7-0.7
		c0.3-0.2,0.7-0.3,1.1-0.3c0,0,0.1,0,0.1,0l0,0c0.1,0,0.2,0,0.2,0c0.1,0,0.1,0,0.2,0c-0.1-0.2-0.3-0.5-0.9-0.5h0
		c-0.2,0-0.5,0-0.7,0.1c-0.5,0.2-1,0.7-1.3,1.4l0,0l0,0c-0.2,0-0.3,0-0.5,0c-0.5,0-1,0-1.3,0l0,0l0,0c0.1-0.5,0.2-1,0.5-1.4
		c0.3-0.4,0.8-0.7,1.3-0.8c0.1,0,0.1-0.1,0.2-0.1c-0.1-0.1-0.2-0.1-0.3-0.2c-0.2,0-0.3,0-0.5,0c-0.2,0-0.3,0-0.5,0.1
		c-0.5,0.1-0.9,0.4-1.2,0.9c-0.3,0.5-0.5,1.2-0.5,1.6l0,0l0,0c-0.2,0-0.4,0.1-0.6,0.1c-0.5,0.1-1,0.2-1.5,0.3l-0.1,0l0-0.1
		c0-0.4,0.1-0.8,0.3-1.1c0.2-0.5,0.6-0.9,1.1-1.2l0.1,0c0,0,0.1-0.1,0.1-0.1c-0.1,0-0.3-0.1-0.4-0.1h0c-0.3,0-0.7,0.1-1,0.3
		c-0.8,0.4-0.9,1.1-1,1.7c0,0.2,0,0.3,0,0.5c0,0.1,0,0.3,0,0.4l0,0l0,0c-0.6,0.1-1.1,0.3-1.7,0.5c-0.2,0.1-0.4,0.1-0.6,0.2l0-0.1
		c0,0,0,0,0-0.1c0-0.4,0-0.9,0.2-1.4c0.2-0.4,0.5-0.8,0.9-1.1c0.2-0.1,0.2-0.2,0.2-0.2c0,0-0.1,0-0.2,0h0l-0.1,0
		c-0.4,0-0.8,0.2-1.1,0.5c-0.4,0.3-0.6,0.8-0.8,1.2c-0.2,0.6,0,1.6,0,1.6l0,0l0,0c-0.1,0.1-0.2,0.1-0.4,0.2
		c-0.1,0.1-0.3,0.1-0.5,0.2l0,0l0,0c0,0,0-0.1-0.1-0.1c-0.1-0.3-0.3-0.5-0.6-0.5c-0.1,0-0.2,0-0.3,0.1c-0.2,0.1-0.4,0.4-0.3,0.6
		c0,0.1,0.1,0.3,0.2,0.4l0,0l0,0c-0.2,0.1-0.3,0.2-0.4,0.3c-0.2,0.2-0.2,0.4-0.2,0.7c0,0.1,0.1,0.2,0.2,0.2
		C82.7,70.9,82.8,71,82.9,71L82.9,71z M110.3,96.7c-0.2-0.1-0.4-0.2-0.5-0.2c-0.1,0-0.2,0-0.4,0.1c-0.2,0.1-0.3,0.2-0.5,0.3
		c-0.2,0.2-0.4,0.5-0.6,0.7l-0.1,0.1c0,0,0,0,0,0c-0.3-0.1-0.6-0.2-0.8-0.2c0,0,0,0,0-0.1c0-0.3,0.2-0.6,0.3-0.8
		c0.2-0.2,0.5-0.4,0.7-0.6c0.2-0.1,0.4,0,0.3-0.1c-0.1-0.1-0.1-0.2-0.2-0.2c-0.1,0-0.2,0-0.4,0c-0.2,0-0.4,0.1-0.6,0.1
		c-0.2,0.1-0.3,0.2-0.5,0.3c-0.4,0.4-0.7,0.8-0.8,1.4c0,0,0,0-0.1,0.1c-0.3,0.1-0.6,0.1-0.8,0.2c0,0,0,0,0,0
		c-0.1-0.4-0.1-0.7,0.1-1.1c0.2-0.3,0.4-0.6,0.7-0.9c0-0.1-0.3-0.1-0.3-0.1l0,0c-0.4,0-0.9,0.4-1.1,0.7c-0.3,0.5-0.4,1.1-0.2,1.7
		c0,0,0,0,0,0c-0.2,0.1-0.5,0.2-0.7,0.3c0,0,0,0-0.1,0c-0.1-0.3-0.2-0.5-0.3-0.8c0-0.3,0-0.6,0.3-0.8c0-0.1-0.8,0.1-0.9,0.8
		c-0.1,0.3,0,0.7,0.1,1c0.1,0.2,0.1,0.3,0.2,0.4c0,0,0,0,0,0c0,0,0,0,0,0c0,0-0.2,0.2-0.3,0.3c-0.1,0.1-0.2,0.1-0.2,0.2
		c0,0,0,0-0.1,0c0,0,0,0,0,0l-0.2-0.3c-0.1-0.1-0.3-0.2-0.5-0.2c-0.1,0-0.2,0-0.3,0.1c-0.1,0.1-0.2,0.2-0.2,0.4c0,0.1,0,0.3,0.1,0.4
		c0.1,0.1,0.3,0.2,0.5,0.3c0,0,0,0,0,0c0,0-0.1,0.1-0.1,0.1c-0.1,0.1-0.2,0.1-0.2,0.2c-0.1,0.2-0.1,0.4,0,0.6
		c0.1,0.1,0.2,0.2,0.4,0.2c0.1,0,0.3-0.1,0.4-0.2c0.1-0.1,0.1-0.2,0.2-0.2c0,0,0.2-0.3,0.2-0.3c0,0,0.1,0,0.1,0c0,0,0,0,0,0
		c0.1,0.1,0.1,0.2,0.2,0.3c0.1,0.2,0.3,0.3,0.5,0.3c0.2,0,0.2,0,0.3-0.1c0.2-0.2,0.1-0.4,0-0.5s-0.3-0.3-0.4-0.3
		c-0.1,0-0.2-0.1-0.1-0.1c0.1-0.1,0.3-0.3,0.5-0.4c0.1-0.1,0.2-0.1,0.2-0.2c0.5-0.4,1.1-0.7,1.7-0.9c0.5-0.2,1-0.2,1.4-0.2h0.1
		c0.5,0,1,0.1,1.5,0.3c0.3,0.1,0.6,0.3,0.8,0.6l0,0c0.2,0.2,0.3-0.1,0.3-0.3c0-0.2-0.1-0.5-0.6-0.8c-0.1-0.1-0.1-0.1-0.1-0.2
		c0-0.1,0-0.2,0.4-0.6c0.2-0.3,0.5-0.5,0.9-0.5C110.5,96.8,110.4,96.8,110.3,96.7L110.3,96.7z M112.3,90.4c-0.3,0-0.5,0.1-0.7,0.3
		c-0.2,0.2-0.4,0.4-0.5,0.6c0,0-0.1,0.2-0.2,0.1c-0.3-0.1-0.6-0.1-1-0.1c0,0-0.2,0-0.1-0.2c0-0.3,0.1-0.6,0.3-0.8
		c0.2-0.3,0.6-0.5,0.9-0.7c0.1,0-0.1-0.1-0.1-0.1c-0.4-0.2-1-0.1-1.4,0.2c-0.4,0.3-0.6,0.9-0.7,1.5c0,0.1,0,0.1-0.1,0.2
		c0,0.1-0.1,0.1-0.1,0.1c-0.1,0-1.2,0.2-1.2,0.2c-0.1-0.5,0-1,0.2-1.4c0.2-0.3,0.4-0.6,0.7-0.8c0.1-0.1,0.2-0.2,0.3-0.2
		c0.1-0.1-0.2-0.1-0.2-0.1c-0.5,0-1,0.3-1.4,0.7c-0.4,0.5-0.5,1.1-0.6,2c0,0,0,0.1-0.1,0.1c-0.2,0.1-0.5,0.1-0.7,0.2
		c-0.2,0.1-0.4,0.2-0.5,0.2c-0.1,0-0.1-0.2-0.1-0.3c0-0.3-0.1-0.5,0-0.8c0.1-0.5,0.3-0.9,0.6-1.2c0.1-0.1-0.8-0.1-1.2,0.6
		c-0.2,0.3-0.3,0.7-0.3,1c0,0.3,0,0.7,0.1,1c0,0.1,0,0.1,0,0.1l-0.2,0.1c-0.3,0.2-0.7,0.4-1,0.5c0,0,0,0,0,0c0-0.1-0.1-0.1-0.1-0.2
		c0-0.1-0.1-0.2-0.1-0.3c-0.1-0.2-0.4-0.4-0.7-0.4c-0.1,0-0.2,0-0.3,0.1c-0.2,0.1-0.3,0.2-0.3,0.4c0,0.2,0,0.3,0.1,0.5
		c0,0.1,0.1,0.2,0.2,0.2c0,0,0.1,0.1,0.1,0.1c0,0,0,0-0.2,0.2c-0.2,0.2-0.3,0.6-0.1,0.8c0.1,0.2,0.3,0.3,0.5,0.3
		c0.1,0,0.3-0.1,0.4-0.1c0.1-0.1,0.2-0.2,0.3-0.3c0,0,0,0,0,0l0,0.1c0.1,0.3,0.3,0.5,0.5,0.6l0,0c0.1,0,0.1,0,0.2,0
		c0.1,0,0.2,0,0.3-0.1c0.2-0.2,0.3-0.5,0.2-0.8c-0.1-0.2-0.1-0.3-0.3-0.4l0,0c0.5-0.3,1-0.6,1.5-0.8l0.1-0.1
		c0.8-0.3,1.5-0.5,2.3-0.7c0.5-0.1,1.1-0.1,1.6-0.1c0.1,0,0.3,0,0.4,0c0.6,0,1.2,0.2,1.8,0.5c0.9,0.5,1.2,1.2,1.3,1.2
		c0.1,0,0.1-0.3,0-0.3c0-0.7-0.5-1.3-1-1.7c-0.1-0.1,0-0.1,0-0.1c0.2-0.3,0.6-0.6,1-0.7c0,0,0.2-0.1,0.3-0.1S112.8,90.4,112.3,90.4z
		 M117.8,63.5c-1.2-0.4-2.4-0.8-3.6-1.2c0-0.3,0-0.5,0-0.8c1.2,0.4,2.4,0.8,3.6,1.2c0-0.2,0-0.4,0-0.7c-1.2-0.4-2.4-0.8-3.6-1.2
		c0-0.2,0-0.5,0-0.7c1.2,0.4,2.4,0.8,3.6,1.2c0-0.2,0-0.4,0-0.7c-1.4-0.5-2.9-1-4.3-1.4c0,1.2,0,2.4,0,3.6c1.5,0.4,2.9,0.9,4.3,1.4
		C117.8,63.9,117.8,63.7,117.8,63.5z M109.2,60.3c0.9,0.2,1.7,0.3,2.6,0.6c0,0.5,0,0.9,0,1.4c0.3,0.1,0.5,0.1,0.8,0.2
		c0-1.2,0-2.4,0-3.6c-0.3-0.1-0.5-0.1-0.8-0.2c0,0.5,0,1,0,1.5c-0.9-0.2-1.7-0.4-2.6-0.6c0-0.5,0-1,0-1.5c-0.3,0-0.5-0.1-0.8-0.1
		c0,1.2,0,2.4,0,3.6c0.3,0,0.5,0.1,0.8,0.1C109.2,61.2,109.2,60.8,109.2,60.3L109.2,60.3z M104,61c1.2,0.1,2.5,0.2,3.7,0.4
		c0-0.2,0-0.5,0-0.7c-1.1-0.2-2.2-0.3-3.3-0.4c-0.1,0-0.1-0.1-0.1-0.2c0-0.6,0-1.2,0-1.8c0,0,0-0.1,0-0.1c0,0,0.1,0,0.1,0
		c1.1,0.1,2.2,0.2,3.3,0.4c0-0.2,0-0.5,0-0.7c-1.2-0.2-2.5-0.3-3.7-0.4c-0.3,0-0.5,0.1-0.5,0.6c0,0.8,0,1.6,0,2.3
		C103.5,60.8,103.7,61,104,61L104,61z M98.8,59.4c1,0,1.9,0,2.9,0c0.1,0,0.1,0.1,0.1,0.1c0,0.2,0,0.3,0,0.5c0,0,0,0.1,0,0.1
		c0,0-0.1,0-0.1,0c-1.1,0-2.2,0-3.3,0c0,0.2,0,0.4,0,0.7c1.2,0,2.5,0,3.7,0c0.3,0,0.5-0.1,0.5-0.6l0-0.9c0-0.4-0.2-0.6-0.5-0.6
		c-1,0-1.9,0-2.9,0c0,0-0.1,0-0.1,0c0,0,0-0.1,0-0.1c0-0.2,0-0.3,0-0.5c0,0,0-0.1,0-0.1c0,0,0.1,0,0.1,0c1.1,0,2.2,0,3.3,0.1
		c0-0.2,0-0.4,0-0.7c-1.3-0.1-2.5-0.1-3.8,0c-0.3,0-0.5,0.2-0.5,0.6c0,0.3,0,0.6,0,0.9C98.3,59.3,98.5,59.5,98.8,59.4L98.8,59.4z
		 M93.1,61.4c0-1.2,0-2.4,0-3.6c1.2-0.2,2.5-0.3,3.8-0.4l0,0c0.3,0,0.5,0.1,0.5,0.6c0,0.3,0,0.6,0,0.9c0,0.3-0.1,0.6-0.4,0.7
		c0.4,0.3,0.6,0.7,0.7,1.4c-0.3,0-0.5,0-0.8,0c-0.1-0.5-0.4-1.1-0.8-1c-0.7,0.1-1.4,0.1-2.2,0.2c0,0.4,0,0.7,0,1.1
		C93.6,61.3,93.3,61.3,93.1,61.4L93.1,61.4z M93.8,58.5c0,0.3,0,0.7,0,1c0.8-0.1,1.7-0.2,2.6-0.3c0.1,0,0.1-0.1,0.1-0.1
		c0-0.2,0-0.5,0-0.7c0,0,0-0.1,0-0.1s-0.1,0-0.1,0C95.6,58.3,94.7,58.4,93.8,58.5L93.8,58.5z M87.7,61.8l0-2.3
		c0-0.3,0.2-0.7,0.5-0.7c1.2-0.3,2.4-0.5,3.5-0.7l0,0c0.3,0,0.5,0.1,0.5,0.5c0,0.8,0,1.6,0,2.3c0,0.4-0.2,0.6-0.5,0.7
		c-1.2,0.2-2.4,0.4-3.5,0.7C87.9,62.4,87.7,62.3,87.7,61.8L87.7,61.8z M88.5,59.6c0,0.6,0,1.2,0,1.8c0,0,0,0.1,0,0.1
		c0,0,0.1,0,0.1,0c0.9-0.2,1.8-0.4,2.7-0.6c0.1,0,0.1-0.1,0.1-0.2c0-0.6,0-1.2,0-1.8c0,0,0-0.1,0-0.1c0,0-0.1,0-0.1,0
		c-0.9,0.2-1.8,0.3-2.7,0.6C88.5,59.4,88.5,59.5,88.5,59.6L88.5,59.6z M82.3,64.2c0-1.2,0-2.4-0.1-3.6c1.4-0.5,2.8-1,4.2-1.4l0,0
		c0.3-0.1,0.5,0,0.5,0.5c0,0.4,0,0.9,0,1.3c0,0.3-0.2,0.7-0.5,0.8c-1.1,0.3-2.3,0.7-3.4,1.1c0,0.4,0,0.7,0,1.1
		C82.8,64,82.6,64.1,82.3,64.2z M83,61.1c0,0.3,0,0.7,0,1c1-0.4,2-0.7,3-1c0.1,0,0.1-0.1,0.1-0.2c0-0.2,0-0.5,0-0.7c0,0,0-0.1,0-0.1
		c0,0-0.1,0-0.1,0C85,60.4,84,60.7,83,61.1z M105.3,73.7h0.2v1.4c0,0,0,0.1,0.1,0.1c0,0,0.1,0,0.1,0c0,0,0.1-0.1,0.1-0.1v-1.4h0.2
		c0.1,0,0.1-0.1,0.1-0.1c0-0.1-0.1-0.1-0.1-0.1h-0.7c-0.1,0-0.1,0.1-0.1,0.1C105.2,73.7,105.3,73.7,105.3,73.7L105.3,73.7z
		 M103.8,75.2v-1.5c0,0,0-0.1,0-0.1c0,0,0.1,0,0.1,0h0.4c0.2,0,0.3,0,0.4,0.1c0.1,0.1,0.2,0.3,0.2,0.4c0,0.2,0,0.3-0.1,0.4
		c-0.1,0.1-0.2,0.1-0.2,0.2l0,0l0,0l0.3,0.4c0,0,0,0.1,0,0.1c0,0.1,0,0.1-0.1,0.1c0,0-0.1,0-0.1-0.1l-0.4-0.5l0,0h0l-0.2,0h0v0.5
		c0,0,0,0.1,0,0.1c0,0-0.1,0-0.1,0c0,0-0.1,0-0.1,0C103.8,75.2,103.8,75.2,103.8,75.2L103.8,75.2z M104,74.4h0.3
		c0.1,0,0.2,0,0.3-0.1c0.1-0.1,0.1-0.2,0.1-0.3c0-0.1,0-0.2-0.1-0.2c-0.1-0.1-0.2-0.1-0.3-0.1h-0.3h0V74.4L104,74.4z M102.2,75.3
		c0,0,0-0.1,0-0.1l0.5-1.5c0-0.1,0.1-0.1,0.2-0.2c0.1,0,0.2,0.1,0.2,0.2l0.5,1.5c0,0,0,0.1,0,0.1c0,0-0.1,0.1-0.1,0.1
		c-0.1,0-0.1,0-0.1-0.1l0-0.1l0-0.1l0,0h-0.7l0,0l0,0.1l0,0.1C102.4,75.3,102.3,75.3,102.2,75.3C102.2,75.3,102.2,75.3,102.2,75.3
		L102.2,75.3z M102.5,74.8h0.6l-0.3-1L102.5,74.8z M101.3,75.3c0.1,0,0.2,0,0.3-0.1c0.1-0.1,0.2-0.3,0.3-0.4c0-0.1,0.1-0.3,0-0.4
		c0-0.1,0-0.2-0.2-0.2h-0.4c-0.1,0-0.1,0.1-0.1,0.1c0,0,0,0.1,0,0.1s0.1,0,0.1,0h0.3v0.1c0,0.2-0.1,0.4-0.3,0.5
		c-0.1,0-0.3-0.1-0.3-0.2c-0.1-0.2-0.1-0.3-0.1-0.5c0-0.2,0-0.3,0.1-0.5c0-0.1,0.2-0.2,0.3-0.2c0.1,0,0.2,0.1,0.3,0.2
		c0,0,0.1,0.1,0.1,0c0,0,0,0,0.1,0c0,0,0-0.1,0-0.1c-0.1-0.2-0.3-0.3-0.5-0.3c-0.2,0-0.4,0.1-0.5,0.3c-0.1,0.2-0.2,0.4-0.2,0.6
		c0,0.2,0,0.5,0.2,0.7C100.9,75.2,101.1,75.3,101.3,75.3L101.3,75.3z M99.6,73.7h0.2v1.4c0,0,0,0.1,0.1,0.1c0,0,0.1,0,0.1,0
		s0.1-0.1,0.1-0.1v-1.4h0.2c0.1,0,0.1-0.1,0.1-0.1c0-0.1-0.1-0.1-0.1-0.1h-0.7c-0.1,0-0.1,0.1-0.1,0.1
		C99.5,73.7,99.5,73.7,99.6,73.7L99.6,73.7z M98.5,73.7h0.2v1.4c0,0,0,0.1,0.1,0.1c0,0,0.1,0,0.1,0s0.1-0.1,0.1-0.1v-1.4h0.2
		c0.1,0,0.1-0.1,0.1-0.1c0-0.1-0.1-0.1-0.1-0.1h-0.7c-0.1,0-0.1,0.1-0.1,0.1C98.3,73.7,98.4,73.7,98.5,73.7L98.5,73.7z M97.5,75.3
		c0.2,0,0.4-0.1,0.5-0.2c0.1-0.2,0.1-0.4,0.1-0.6v-0.9c0,0,0-0.1-0.1-0.1s-0.1,0-0.1,0s-0.1,0.1-0.1,0.1v1c0,0.1,0,0.2-0.1,0.3
		c-0.1,0.1-0.2,0.1-0.3,0.1c-0.1,0-0.2,0-0.3-0.1c-0.1-0.1-0.1-0.2-0.1-0.3v-1c0,0,0-0.1-0.1-0.1c0,0-0.1,0-0.1,0
		c0,0-0.1,0.1-0.1,0.1v0.9c0,0.2,0,0.4,0.1,0.6C97.2,75.2,97.4,75.3,97.5,75.3L97.5,75.3z M95.8,73.7h0.2v1.4c0,0,0,0.1,0.1,0.1
		s0.1,0,0.1,0c0,0,0.1-0.1,0.1-0.1v-1.4h0.2c0,0,0.1,0,0.1-0.1c0,0,0-0.1,0-0.1c0,0-0.1-0.1-0.1-0.1h-0.7c-0.1,0-0.1,0.1-0.1,0.1
		C95.7,73.7,95.8,73.7,95.8,73.7L95.8,73.7z M95,75.3c0.2,0,0.4-0.1,0.5-0.2c0.1-0.1,0.1-0.2,0.1-0.4c0-0.1,0-0.3-0.1-0.3
		c-0.1-0.1-0.2-0.1-0.3-0.1c-0.1,0-0.1,0-0.2,0l0,0c0,0-0.1,0-0.1,0c-0.1,0-0.1-0.1-0.2-0.1c0-0.1,0-0.1,0-0.2
		c0-0.1,0.2-0.2,0.3-0.2c0.1,0,0.2,0,0.3,0.1c0,0,0.1,0,0.1,0c0,0,0.1,0,0.1,0c0,0,0-0.1,0-0.1c0-0.1-0.1-0.1-0.2-0.2
		c-0.1-0.1-0.2-0.1-0.3-0.1h0c-0.1,0-0.3,0-0.4,0.1c-0.1,0.1-0.2,0.2-0.2,0.3c0,0.1,0,0.3,0.1,0.4s0.2,0.2,0.4,0.2
		c0.2,0,0.3,0.1,0.4,0.2c0,0.1,0,0.2,0,0.2C95.2,75,95.1,75.1,95,75c-0.1,0-0.2-0.1-0.3-0.1c0,0-0.1,0-0.1-0.1c0,0,0,0,0,0
		c0,0-0.1,0-0.1,0c0,0,0,0.1,0,0.1C94.5,75.2,94.8,75.3,95,75.3L95,75.3z M105.1,81.8c-0.1,0-0.2,0-0.3,0c-0.1,0-0.2,0.1-0.2,0.2
		c0,0-0.1,0.1-0.1,0.1c0,0.1,0.1,0.3,0,0.4c0,0.2-0.1,0.3-0.2,0.5c-0.1,0.1-0.2,0.2-0.2,0.3c-0.1,0.1-0.2,0.2-0.2,0.3
		c0,0,0,0.1-0.1,0.1c-0.1,0.1-0.1,0.3-0.1,0.5c0,0.2,0.1,0.3,0.2,0.4c0.1,0.2,0.2,0.3,0.3,0.5c0,0.1,0,0.1,0,0.2
		c0,0.1,0,0.1-0.1,0.1c-0.4,0.2-0.7,0.6-0.9,1.1c0,0,0,0,0,0c0,0,0,0,0,0l0,0c0,0,0,0.1,0,0.1c-0.1,0.1-0.2,0.2-0.4,0.2
		c-0.1,0-0.2,0.1-0.3,0.1c0,0-0.1,0-0.1,0c0,0,0,0,0,0c0,0,0,0,0,0c0,0.1,0,0.1,0,0.2c0,0,0.1,0.1,0.1,0.1c0,0,0,0.1,0,0.1
		c0,0,0,0-0.1,0c-0.1,0.1-0.3,0.1-0.5,0.2c-0.1,0-0.2,0-0.1-0.1c0.1-0.2,0.1-0.4,0.2-0.6c0.1-0.1,0.2-0.2,0.3-0.3
		c0.1-0.1,0.3-0.2,0.4-0.3c0.1-0.1,0.2-0.2,0.2-0.3c0.1-0.2,0.3-0.4,0.4-0.6c0.1-0.1,0.1-0.2,0.1-0.3c0-0.2-0.1-0.3-0.3-0.4
		c-0.1,0-0.1,0-0.2-0.1c-0.2-0.1-0.4-0.2-0.5-0.4c0,0-0.1-0.1-0.1-0.1c-0.1,0-0.2,0.2-0.2,0.3c0,0.1,0,0.3,0,0.4c0,0,0,0.1,0,0.2
		c0,0,0,0.1-0.1,0.1c-0.4,0.1-0.8,0.3-1.2,0.6c-0.1,0-0.1,0.1-0.1,0.1c0,0,0,0,0,0.1c-0.1,0.2-0.3,0.2-0.5,0.2c0,0-0.1,0-0.1,0
		c0,0-0.1,0-0.1,0c0,0-0.1,0-0.1,0.1c0,0,0,0,0,0c0,0,0,0,0,0c0,0,0,0,0,0c0,0,0,0,0,0l0,0.1c0,0,0,0.1,0,0.1c0,0,0,0.1-0.1,0.1
		c-0.1,0.1-0.3,0.1-0.4,0.1c-0.1,0-0.2,0-0.1-0.1c0-0.2,0.1-0.3,0.1-0.5c0-0.1,0.1-0.1,0.1-0.1c0.1-0.1,0.3-0.2,0.4-0.3
		c0.1-0.1,0.2-0.1,0.4-0.1c0.2,0,0.4-0.1,0.5-0.2c0.2-0.1,0.3-0.2,0.5-0.4c0.2-0.3,0.2-0.7,0-1l0-0.1c0-0.1-0.1-0.2-0.1-0.2
		c0-0.1-0.1-0.1-0.1-0.2c0-0.1,0.1-0.3,0.1-0.4c0,0,0,0,0-0.1c-0.1,0-0.2-0.1-0.3-0.1c-0.4,0-0.8,0.1-1.2,0
		c-0.3-0.1-0.6-0.2-0.8-0.4c-0.1-0.1-0.2-0.1-0.3-0.2c0,0,0,0-0.1,0c-0.3,0.2-0.6,0.3-1,0.3h0c-0.2,0-0.4-0.1-0.6-0.2
		c-0.2-0.1-0.4-0.2-0.5,0c-0.1,0.1,0,0.1,0,0.2c0,0.2,0,0.4,0,0.6c0,0,0,0,0,0.1c0,0,0,0,0,0c0,0,0,0,0.1,0l0,0c0.1,0,0.1,0,0.1,0.1
		c0,0,0,0.1,0,0.1c0,0,0,0.1,0,0.1c0,0,0,0.1,0,0.1c0,0.1,0,0.2,0,0.3c0,0,0,0.1,0.1,0.1c0,0,0,0,0,0c0,0,0,0,0,0c0,0,0,0,0,0
		c0,0,0,0,0,0c0,0,0,0,0,0c0,0,0,0,0,0c0,0,0,0,0.1,0c0,0,0,0,0,0c0.1,0,0.1,0.1,0.1,0.2c0,0.2,0,0.3-0.1,0.5c0,0,0,0.1-0.1,0.1
		c0,0-0.1,0-0.1,0c0,0,0,0,0,0c-0.1-0.1-0.2-0.1-0.3-0.2c-0.1-0.1-0.1-0.1-0.1-0.2c0-0.1,0-0.1-0.1-0.2c0,0,0,0-0.1,0
		c-0.1,0-0.1,0-0.1-0.1C96,84.1,95.9,84,96,83.8c0.1-0.4,0-0.9-0.1-1.3c0-0.1,0-0.2,0-0.2c0,0,0-0.1,0-0.1c0,0,0,0,0,0
		c0,0,0-0.1,0.1-0.1c0,0,0,0,0.1,0c0.3,0,0.6-0.1,0.9-0.1c0,0,0.1,0,0.1,0c0.1,0,0.1,0,0.2,0c0.1,0,0.1-0.1,0.1-0.1
		c-0.1-0.1-0.1-0.1-0.2-0.2c0,0-0.1-0.1-0.1,0c0,0,0,0,0,0l0,0c0,0-0.1,0.1-0.2,0c-0.1,0-0.1-0.1-0.1-0.1c-0.1-0.1-0.1-0.3-0.2-0.4
		c0-0.2-0.1-0.4-0.2-0.5c-0.1-0.1-0.3-0.1-0.4-0.1c-0.1,0-0.2,0.1-0.3,0.2c0,0.1-0.1,0.1-0.1,0.2c0,0-0.1,0.1-0.1,0.1c0,0,0,0,0,0
		c0,0,0,0,0,0.1c0,0.1,0,0.2-0.1,0.3c-0.1,0.1-0.1,0.1-0.2,0.2c0,0-0.1,0.1-0.1,0.1c0,0,0,0.1,0,0.1c0,0,0,0.1,0,0.1c0,0,0,0,0,0
		c0,0,0,0.1,0.1,0.1c0,0,0,0,0,0c0,0,0,0,0,0c0,0,0,0.1,0,0.1c0,0,0,0,0,0c-0.1,0.1-0.3,0.2-0.4,0.2c0,0,0,0-0.1,0
		c-0.1,0-0.1-0.1-0.1-0.1c0-0.1,0-0.2,0-0.3c0-0.1,0-0.2,0.1-0.3c0.1-0.1,0.2-0.3,0.1-0.5c0-0.1,0-0.2,0.1-0.3C95,81,95,81,95,80.9
		c0,0,0-0.1,0.1-0.1c0.2-0.3,0.4-0.5,0.6-0.8c0.1-0.2,0.3-0.4,0.5-0.2c0,0.1,0.1,0.1,0.2,0.2c0.2,0.1,0.4,0.2,0.5,0.3
		c0.2,0.1,0.2-0.1,0.3-0.3l0,0c0-0.1,0-0.1,0.1-0.2c0.1-0.2,0.3-0.4,0.4-0.5c0.1-0.1,0.2-0.2,0.3-0.2c0,0,0,0,0.1-0.1
		c0,0,0-0.1,0.1-0.2c0-0.1,0-0.1,0.1-0.2c0-0.1,0.1-0.1,0.1-0.2v0c0,0,0,0,0,0c0,0,0,0,0,0c0,0,0,0,0,0c0,0,0,0,0,0
		c-0.1,0-0.1-0.1-0.2-0.1h0c-0.1,0-0.2,0-0.3,0.1c0,0-0.1,0.1-0.1,0.1c0,0-0.1,0.1-0.1,0.1c-0.1,0.1-0.2,0.1-0.3,0c0,0,0-0.1,0-0.1
		c0,0,0.1-0.1,0.1-0.1c0,0,0,0,0,0c0,0,0,0,0,0c0,0,0,0,0,0c0,0,0,0,0,0c0,0-0.1,0-0.1,0c-0.1,0-0.1,0-0.2,0.1c0,0-0.1,0-0.1,0
		c0,0-0.1-0.1-0.1-0.1c0,0,0-0.1,0-0.1c0,0,0-0.1,0.1-0.1c0,0,0.1,0,0.1-0.1c0,0,0,0,0,0c0,0,0,0,0-0.1c0,0,0,0,0.1-0.1
		c0.2-0.2,0.5-0.3,0.7-0.5c0,0,0.1,0,0.1,0l0,0c0.1,0.1,0.2,0.1,0.3,0c0,0,0.1,0,0.1-0.1c0,0,0,0,0,0c0,0,0,0,0,0c0,0,0,0,0,0
		c0,0,0,0,0,0c0,0,0,0-0.1,0c0,0-0.1,0-0.1,0c0,0-0.1,0-0.1-0.1c0,0-0.1-0.1-0.1-0.1c0-0.2,0.3-0.2,0.5-0.2h0c0.1,0,0.2,0,0.3,0
		c0.1,0,0.2-0.1,0.3-0.2c0.1-0.1,0.2-0.1,0.4-0.2c0,0,0.1,0,0.1,0c0,0,0.1,0,0.1-0.1c0.1-0.1,0.2-0.2,0.3-0.3
		c0.2-0.1,0.3-0.2,0.5-0.2c0,0,0.1,0,0.1,0c0,0,0,0.1-0.1,0.1c-0.1,0-0.1,0.1-0.2,0.2c-0.1,0.1-0.1,0.2-0.1,0.3
		c0,0.1,0.1,0.1,0.1,0.2c0.1,0,0.2,0.1,0.3,0.1c0.2,0,0.3-0.1,0.4-0.1c0.2-0.1,0.4-0.1,0.6,0c0.1,0,0.3,0,0.4,0.1c0,0,0,0.1,0,0.1
		c0,0-0.1,0-0.1,0c-0.1,0-0.2,0-0.3,0.1c-0.1,0.1-0.2,0.1-0.2,0.2c0,0,0,0.1,0,0.2c0,0.1,0.1,0.1,0.1,0.1c0,0.1,0.1,0.2,0.1,0.3
		c0,0,0,0,0.1,0c0.2,0.2,0.4,0.3,0.6,0.5c0,0.1,0.1,0.1,0.1,0.2c0,0,0,0.1,0,0c0,0-0.1,0-0.1-0.1c0,0-0.1-0.1-0.1-0.1
		c-0.1,0-0.2-0.1-0.4-0.1c-0.1,0-0.2,0.1-0.1,0.1c0.1,0.1,0.2,0.1,0.3,0.2c0.2,0.2,0.2,0.4,0.2,0.6c0,0,0,0,0,0
		c-0.1-0.1-0.1-0.2-0.2-0.2c-0.1-0.1-0.3-0.1-0.4-0.1c0,0-0.1,0-0.1,0c0.1,0.1,0.2,0.3,0.3,0.4c0.1,0.2,0.1,0.4,0.1,0.6c0,0,0,0,0,0
		c0-0.1-0.1-0.1-0.2-0.2c-0.1-0.1-0.1-0.1-0.2-0.1c-0.1,0-0.3,0-0.4,0.1c-0.1,0.1-0.2,0.2-0.3,0.3c-0.1,0.1-0.1,0.3-0.1,0.4
		c0,0.2,0,0.4,0.1,0.5c0.1,0.2,0.2,0.3,0.4,0.3c0.2,0.1,0.5,0.1,0.7,0.1c0.3,0,0.6,0,0.9,0c0.3,0,0.6,0,0.8,0c0.2,0,0.4,0.1,0.6,0.3
		c0.2,0.1,0.3,0.2,0.4,0.4c0,0,0.1,0,0.1,0c0.1-0.1,0.2-0.3,0.3-0.5c0-0.2,0-0.4-0.1-0.5c-0.1-0.2-0.2-0.4-0.4-0.6
		c-0.2-0.2-0.3-0.4-0.4-0.6c-0.1-0.1-0.1-0.3,0-0.5c0-0.1,0.1-0.2,0.2-0.3c0,0,0,0,0,0c0,0.1,0,0.2,0,0.2c0,0.1,0.1,0.2,0.2,0.3
		c0,0,0.1,0,0.1,0c0-0.1,0-0.2,0.1-0.3c0-0.2,0.1-0.3,0.2-0.5c0.2-0.2,0.5-0.3,0.7-0.4c0.1,0,0.1-0.2,0.2-0.2c0.1,0,0,0.2,0,0.3
		c-0.1,0.1-0.2,0.2-0.3,0.3c-0.1,0.2-0.2,0.3-0.3,0.5c-0.1,0.1-0.1,0.2-0.1,0.3c0,0.1,0.1,0.2,0.2,0.2c0,0,0.1,0,0.1-0.1
		c0.1-0.1,0.2-0.1,0.2-0.2c0-0.1,0-0.2,0.1-0.3c0,0,0.1,0,0.1,0c0.1,0,0.1,0.1,0.1,0.2c0,0.1,0,0.2,0,0.2c0,0,0,0.1-0.1,0.1
		c0,0,0,0.1,0,0.1c-0.1,0.1-0.2,0.2-0.3,0.3c0,0,0,0,0,0.1c0.1,0.1,0.1,0.2,0.2,0.3c0.1,0,0.2,0.1,0.3,0c0.1,0,0.1-0.1,0.2-0.1
		c0,0,0,0,0,0c0,0.1,0,0.1,0,0.2c0,0.1-0.1,0.1-0.2,0.2c-0.1,0.1-0.2,0.1-0.3,0.1c-0.1,0-0.1,0.1-0.1,0.1c0,0.1,0,0.1,0.1,0.2
		c0,0,0.1,0.1,0.2,0.1c0.1,0,0.2,0,0.3-0.1c0.1-0.1,0.1-0.2,0.2-0.2c0,0,0.1,0,0.1,0c0,0.1,0,0.2-0.1,0.3c-0.1,0.1-0.2,0.2-0.3,0.3
		c0,0-0.1,0.1-0.1,0.1c0,0.1,0,0.1,0.1,0.2c0,0.1,0.1,0.1,0.2,0.1c0.1,0,0.1,0,0.2,0c0,0,0,0,0,0.1c-0.1,0.1-0.2,0.1-0.2,0.1
		c-0.1,0-0.2,0-0.3,0C105.4,81.9,105.3,81.8,105.1,81.8L105.1,81.8z M100.3,77.8c0-0.3-0.2-0.6-0.4-0.8c-0.1-0.1-0.4-0.2-0.5-0.1
		c0,0,0,0,0,0.1c0,0,0.1,0.1,0.1,0.1c0,0,0.1,0.1,0.1,0.1c0,0,0.1,0.1,0.1,0.1c0,0.1,0.1,0.2,0.1,0.3c0,0.1,0.1,0.3,0.1,0.4
		c0,0.1,0,0.2,0,0.4c0,0.1,0,0.1,0,0.2c0,0,0,0.1,0,0.1c0,0.1,0,0.1,0,0.2c0,0,0,0.1,0,0.2c0,0.1,0,0.2,0.1,0.2c0.1,0,0.1,0,0.2,0
		c0.1-0.1,0.2-0.2,0.2-0.3C100.3,78.6,100.3,78.2,100.3,77.8L100.3,77.8z M123.9,58.7h0.4c0.1,0,0.2,0,0.3,0.1
		c0.1,0.1,0.1,0.2,0.1,0.3c0,0,0,0.1,0,0.1c0,0,0,0.1-0.1,0.1c0,0-0.1,0.1-0.1,0.1c-0.1,0-0.2,0-0.3,0h-0.3L123.9,58.7z M123.6,58.5
		v2.1h0.3v-0.9h0.4l0.4,0.9h0.3l-0.4-1c0.1,0,0.3-0.1,0.3-0.2c0.1-0.1,0.1-0.2,0.1-0.3c0-0.1,0-0.1,0-0.2c0-0.1-0.1-0.1-0.1-0.2
		c-0.1-0.1-0.1-0.1-0.2-0.1c-0.1,0-0.2-0.1-0.4-0.1L123.6,58.5z M123.7,60.8c-0.3-0.1-0.6-0.4-0.8-0.8c-0.1-0.4-0.1-0.8,0-1.1
		c0.1-0.3,0.4-0.6,0.8-0.8c0.3-0.2,0.7-0.2,1.1,0c0.4,0.1,0.6,0.4,0.8,0.8c0.1,0.4,0.1,0.8,0,1.1c-0.1,0.3-0.4,0.6-0.8,0.8
		C124.5,61,124.1,61,123.7,60.8 M125,61.1c0.2-0.1,0.4-0.2,0.5-0.4c0.2-0.2,0.3-0.3,0.4-0.5c0.2-0.4,0.2-0.9,0-1.3
		c-0.1-0.2-0.2-0.4-0.4-0.5c-0.2-0.2-0.3-0.3-0.5-0.4c-0.4-0.2-0.9-0.2-1.3,0c-0.2,0.1-0.4,0.2-0.5,0.4c-0.2,0.2-0.3,0.3-0.4,0.5
		c-0.2,0.4-0.2,0.9,0,1.3c0.1,0.2,0.2,0.4,0.4,0.5c0.2,0.2,0.3,0.3,0.5,0.4C124.1,61.2,124.5,61.2,125,61.1"/>
</g>
</svg>
