<?xml version="1.0" encoding="utf-8"?>
<!-- Generator: Adobe Illustrator 25.3.1, SVG Export Plug-In . SVG Version: 6.00 Build 0)  -->
<svg version="1.1" id="Layer_1" xmlns="http://www.w3.org/2000/svg" xmlns:xlink="http://www.w3.org/1999/xlink" x="0px" y="0px"
	 viewBox="0 0 200 180" style="enable-background:new 0 0 200 180;" xml:space="preserve">
<g>
	<g>
		<path d="M107.6,90.3H87.7c-1.2,0-2.4,1-2.4,2.2v21.7H92V94.4c0-0.6,0.4-1.1,1.1-1.1c0.6,0,1.1,0.5,1.1,1.1v19.9h6.7V94.4
			c0-0.6,0.4-1.1,1-1.1c0.6,0,1.1,0.5,1.1,1.1v19.9h6.7V92.6C109.7,91.4,108.8,90.3,107.6,90.3z M76.5,110.4c0,0.6-0.4,1.1-1.1,1.1
			c-0.6,0-1-0.5-1-1.1V90.3h-6.3v22.1c0,1.1,0.7,1.8,1.7,1.8h11.5c1.1,0,1.9-0.8,1.9-1.8V90.3h-6.7L76.5,110.4L76.5,110.4z
			 M63.6,90.3H50.5v24h6.3v-5.9h6.7c1.2,0,2.1-1,2.1-2.2V92.6C65.6,91.4,64.8,90.3,63.6,90.3z M59.3,104.3c0,0.7-0.7,1.2-1.3,1.2
			h-1.2V93.3H58c0.6,0,1.3,0.5,1.3,1.1V104.3z M125.2,90.3h-11.1c-1.2,0-2.3,1-2.3,2.2v21.7h6.7v-5.9h2.1v5.9h6.7V92.6
			C127.3,91.4,126.4,90.3,125.2,90.3z M120.6,105.5h-2.1V94.4c0-0.6,0.4-1.1,1.1-1.1c0.6,0,1,0.5,1,1.1V105.5z M132.3,109.1
			c-1.6,0-2.9,1.3-2.9,2.9c0,1.6,1.3,3,2.9,3c1.6,0,2.9-1.3,2.9-3C135.2,110.4,133.9,109.1,132.3,109.1z M132.3,114.6
			c-1.4,0-2.5-1.1-2.5-2.5c0-1.4,1.1-2.4,2.4-2.4h0c1.4,0,2.4,1.1,2.4,2.4C134.8,113.5,133.7,114.6,132.3,114.6z M132.6,112.3
			c0.4-0.1,0.7-0.4,0.7-0.9c0-0.6-0.5-0.9-1.4-0.9h-0.9v3.4h0.8v-1.5l1,1.5h0.8L132.6,112.3L132.6,112.3z M131.9,111.8v-0.8h0.1
			c0.4,0,0.7,0.1,0.7,0.4C132.7,111.6,132.5,111.8,131.9,111.8L131.9,111.8z M149.2,65.6c-0.9-1.1-2.4-0.2-3.1,0.2
			c-4.8,2.9-5.5,7.9-7.2,10.8c-1.3,2.3-3.5,4-5.4,4.1c-1.4,0.1-3-0.2-4.6-0.9c-3.8-1.7-5.8-3.8-6.3-4.2c-1-0.8-8.9-8.5-15.3-8.9
			c0,0-0.8-1.6-1-1.6c-0.5-0.1-0.9,1-1.3,1.1c-0.3,0.1-0.9-1.1-1.2-1c-0.3,0-0.6,1.2-1.3,1.9c-0.5,0.4-1,0.4-1.3,1
			c-0.1,0.2-0.1,0.6-0.2,0.9c-0.3,0.7-1.2,0.8-1.2,1.5c0,0.8,0.7,1,1.4,1.5c0.5,0.4,0.6,0.8,1.2,1c0.5,0.2,1.3-0.4,2-0.2
			c0.6,0.2,1.1,0.3,1.3,0.9c0.1,0.5,0,1.4-0.7,1.3c-0.2,0-1.3-0.4-2.5-0.2c-1.5,0.2-3.3,0.7-3.4,2.4c-0.1,0.9,1.1,2.1,2.2,1.8
			c0.8-0.2,0.4-1.1,0.8-1.5c0.6-0.6,3.7,2,6.7,2c1.2,0,2.2-0.3,3.1-1.3c0.1-0.1,0.2-0.2,0.3-0.2c0.1,0,0.3,0.1,0.4,0.2
			c2.4,1.9,4.2,5.7,12.9,5.8c1.2,0,2.6,0.6,3.8,1.6c1,0.9,1.6,2.4,2.2,3.9c0.9,2.2,2.4,4.4,4.8,6.8c0.1,0.1,2.1,1.7,2.2,1.8
			c0,0,0.2,0.4,0.1,0.6c0,1.5-0.2,5.7,2.9,5.9c0.8,0,0.6-0.5,0.6-0.9c0-0.7-0.1-1.5,0.2-2.2c0.5-1-1.1-1.5-1.1-3.7
			c0-1.7-1.4-1.4-2.1-2.7c-0.4-0.7-0.8-1.1-0.7-2c0.2-5.1-1.1-8.4-1.7-9.2c-0.5-0.6-0.9-0.9-0.4-1.1c2.6-1.7,3.2-3.3,3.2-3.3
			c1.4-3.3,2.6-6.3,4.4-7.6c0.3-0.3,1.2-0.9,1.8-1.2c1.6-0.8,2.5-1.2,2.9-1.7C149.3,68,149.9,66.5,149.2,65.6z"/>
	</g>
</g>
</svg>
