<?xml version="1.0" encoding="utf-8"?>
<!-- Generator: Adobe Illustrator 16.0.0, SVG Export Plug-In . SVG Version: 6.00 Build 0)  -->
<!DOCTYPE svg PUBLIC "-//W3C//DTD SVG 1.1//EN" "http://www.w3.org/Graphics/SVG/1.1/DTD/svg11.dtd">
<svg version="1.1" id="Layer_1" xmlns="http://www.w3.org/2000/svg" xmlns:xlink="http://www.w3.org/1999/xlink" x="0px" y="0px"
	 width="320px" height="180px" viewBox="0 0 320 180" enable-background="new 0 0 320 180" xml:space="preserve">
<g>
	<g>
		<path d="M126.035,85.512c0.141,0.065,0.313,0.076,0.465,0.022c0.389-0.228,0.637-0.648,0.832-1.016
			c-0.032-0.141-0.173-0.237-0.281-0.335c-0.076-0.064-0.184-0.011-0.27,0.011c-0.27,0.237-0.562,0.421-0.854,0.616
			c-0.119,0.086-0.076,0.27-0.097,0.41C125.808,85.351,125.959,85.437,126.035,85.512z M194.139,84.551
			c0.086,0.303,0.335,0.551,0.519,0.821c0.097,0.151,0.259,0.248,0.432,0.259c0.173,0,0.313-0.086,0.433-0.184
			c0.086-0.108,0.184-0.248,0.15-0.41c-0.237-0.324-0.604-0.529-0.907-0.778C194.527,84.054,194.268,84.367,194.139,84.551z
			 M196.028,87.479c0.055,0.086,0,0.259,0.141,0.259l0.8-0.259c0.141-0.228-0.119-0.4-0.173-0.616
			c-0.065-0.292,0.011-0.691-0.173-0.95c-0.162-0.13-0.313-0.313-0.519-0.26c-0.173,0.151-0.433,0.324-0.399,0.584
			C195.845,86.689,195.942,87.014,196.028,87.479z M125.3,87.629c0.151-0.485,0.259-1.025,0.432-1.447v-0.129
			c-0.151-0.184-0.302-0.422-0.551-0.476c-0.194,0.097-0.411,0.292-0.464,0.508c-0.065,0.399,0.021,0.777-0.281,1.059
			c-0.011,0.075-0.086,0.162-0.011,0.237C124.695,87.479,124.965,87.586,125.3,87.629z M177.115,83.881
			c-0.335,0.065-0.724-0.011-1.059,0.044c-0.151,0.227-0.292,0.496-0.248,0.799c0.032,0.313,0.389,0.335,0.604,0.421
			c0.216,0.022,0.519,0.098,0.638-0.129c0.118-0.324,0.237-0.67,0.28-1.026C177.31,83.892,177.213,83.849,177.115,83.881z
			 M144.041,84.248c0.248,0.271,0.237,0.702,0.519,0.907c0.378,0.065,0.713-0.086,0.993-0.312c0.162-0.141-0.075-0.313-0.097-0.476
			c-0.162-0.237-0.054-0.713-0.443-0.724c-0.399,0.064-0.799,0.075-1.188,0.075l-0.108,0.076
			C143.631,84.043,143.977,84.043,144.041,84.248z M193.847,87.413c0.389,0.378,1.059,0.227,1.566,0.227l0.086-0.064
			c-0.064-0.508-0.194-0.907-0.399-1.361c-0.637,0.033-0.95-0.647-1.317-1.047c-0.313-0.368-0.918-0.573-0.907-1.113
			c-0.108-0.216-0.141-0.551-0.238-0.82c-0.086-0.228-0.173-0.551-0.475-0.605c-0.54-0.086-1.178,0.065-1.513-0.432
			c-0.346-0.378,0.032-0.811,0.098-1.178c0.151-0.464,0.162-1.08,0.086-1.544c-0.011-0.271-0.194-0.497-0.151-0.778
			c0.13-0.237,0.422-0.064,0.605-0.032c0.702,0.205,1.512,0.097,2.149-0.173c0.875-0.421,1.566-1.307,1.533-2.322
			c-0.129-1.317-1.059-2.388-2.062-3.24c-0.184-0.162-0.422-0.335-0.486-0.573c-0.021-0.507,0.551-0.259,0.832-0.389
			c0.346-0.086,0.691-0.173,0.982-0.378c0.756-0.508,0.918-1.415,0.768-2.29c-0.022-0.075-0.022-0.184-0.141-0.184
			c-0.141,0.108-0.271,0.271-0.443,0.378c-0.485,0.292-1.134,0.238-1.642,0.486c-0.637,0.271-1.415,0.659-1.695,1.383
			c-0.076,0.367,0.011,0.734,0.172,1.037c0.768,1.221,2.398,2.02,2.657,3.499c0.098,0.605-0.194,1.037-0.658,1.372
			c-0.691,0.421-1.739,0.271-2.441-0.097c-1.34-0.681-2.506-1.805-3.953-2.258c-0.907-0.41-2.031-0.313-2.83-0.95
			c-0.605-0.4-1.167-0.93-1.858-1.103c-0.475-0.162-1.004-0.14-1.447-0.378c-0.442-0.399-0.918-0.777-1.437-1.037
			c-0.724-0.367-1.512-0.551-2.312-0.724c-0.475-0.107-0.647-0.637-1.026-0.896c-0.658-0.529-1.393-0.896-2.29-0.82
			c-0.355,0.021-0.626,0.248-0.896,0.485c-2.528-3.921-6.913-6.491-11.904-6.491c-4.925,0-9.268,2.506-11.827,6.318
			c-0.615-0.216-1.437-0.162-2.02,0.098c-0.638,0.335-1.21,0.821-1.88,1.048c-0.972,0.442-2.062,0.529-2.895,1.274
			c-0.486,0.421-0.896,1.091-1.621,0.972c-0.81-0.043-1.534,0.26-2.139,0.768c-0.551,0.497-1.069,1.091-1.782,1.221
			c-0.626,0.259-1.382,0.14-2.009,0.378c-1.005,0.248-1.804,1.048-2.657,1.663c-0.854,0.497-1.674,1.037-2.744,1.016
			c-0.691-0.054-1.372-0.54-1.588-1.21c-0.216-0.777,0.021-1.577,0.637-2.096c0.637-0.767,1.642-1.21,2.139-2.084
			c0.259-0.465,0.227-1.21-0.119-1.653c-0.659-0.691-1.599-0.713-2.463-0.929c-0.551-0.151-0.972-0.572-1.458-0.843
			c-0.184,0.292-0.249,0.605-0.227,0.951c0.097,0.788,0.691,1.501,1.437,1.771c0.432,0.184,0.929,0.054,1.383,0.15
			c0.119,0.055,0.249,0.173,0.259,0.313c-0.021,0.13-0.032,0.249-0.151,0.335c-0.691,0.583-1.426,1.146-2.009,1.869
			c-0.626,0.68-0.691,1.857-0.378,2.711c0.356,0.972,1.372,1.609,2.333,1.739c0.713,0.107,1.339-0.076,1.987-0.217
			c0.086,0,0.13,0.087,0.162,0.141c0.065,0.572-0.021,1.091,0.097,1.609c0.108,0.486,0.27,0.821,0.443,1.297
			c0.021,0.161,0,0.334-0.108,0.464c-0.356,0.271-0.735,0.465-1.134,0.638l-0.972,0.064l-0.184,0.087
			c-0.356,0.421-0.367,0.863-0.594,1.339c-0.302,0.497-0.842,0.734-1.307,1.026c-0.151,0.237-0.313,0.486-0.519,0.67
			c-0.162,0.151-0.356,0.184-0.573,0.216c-0.334,0.389-0.41,0.929-0.497,1.447c0.551,0.054,1.123,0.346,1.652,0.054
			c0.465-0.216,0.562-0.777,0.908-1.112c0.27-0.303,0.68-0.075,1.004-0.011c0.486,0.021,0.832-0.324,1.242-0.486
			c0.292-0.184,0.519-0.508,0.821-0.702c0.572-0.27,1.372-0.118,1.966-0.011c0.475,0.13,0.972,0.055,1.383-0.141
			c0.389-0.237,0.745-0.54,1.177-0.637c0.389-0.194,0.572-0.638,0.734-1.005c0.119-0.335,0.443-0.604,0.421-0.982
			c-0.097-0.087-0.216-0.271-0.356-0.26c-0.184,0.26-0.324,0.54-0.529,0.789c-0.821,1.123-2.117,1.35-3.435,1.35
			c-1.35-0.054-2.571,0.356-3.51,1.426c-0.065,0.033-0.151,0.011-0.194-0.043c-0.033-0.151,0.086-0.237,0.151-0.346
			c0.832-1.188,2.128-1.458,3.489-1.49c0.745-0.055,1.458-0.173,2.084-0.497c0.713-0.367,1.188-1.091,1.491-1.782
			c0.162-0.789,0.227-1.642,0.421-2.388c0.021-0.075,0.108-0.107,0.173-0.086c0.075,0.011,0.162,0.064,0.162,0.151
			c-0.14,0.777-0.227,1.685,0.076,2.441c0.594,0.788,1.664,0.248,2.474,0.216c0.842-0.076,1.577,0.237,2.387,0.291
			c0.399-0.011,0.854,0.108,1.167-0.14c0.086-0.141-0.012-0.303-0.033-0.454c-0.021-0.227-0.184-0.54,0.021-0.724
			c0.065-0.054,0.173-0.021,0.228,0.032c0.107,0.313,0.162,0.648,0.356,0.929c0.399,0.508,0.982,0.919,1.533,1.199
			c0.519,0.367,0.962,0.875,0.994,1.513c0,0.323-0.303,0.551-0.551,0.702c-0.422,0.216-0.886,0.389-1.383,0.335
			c-0.659-0.324-0.832-1.026-1.264-1.534c-0.227-0.249-0.562-0.303-0.896-0.271c-0.356,0.044-0.724,0.055-1.048,0.162
			c-0.086,0.076-0.108,0.184-0.097,0.303c0.227,0.41,0.475,0.811,0.724,1.221c0.28,0.173,0.68-0.098,0.929,0.216
			c0.216,0.324,0.346,0.713,0.67,0.961c0.312,0.271,0.788,0.4,1.188,0.228c0.918-0.292,1.837-0.584,2.7-1.048h0.281
			c0.346-0.043,0.734-0.011,0.983-0.271c0.107-0.162,0.205-0.312,0.302-0.464c2.55,3.921,6.945,6.513,11.957,6.513
			c4.969,0,9.344-2.549,11.893-6.427c0.044,0.141,0.098,0.281,0.184,0.433c0.238,0.259,0.562,0.021,0.854,0.097
			c0.303,0.076,0.41,0.433,0.713,0.529c0.67,0.227,1.394,0.346,2.063,0.616c0.346,0.107,0.842,0.248,1.155-0.033
			c0.433-0.237,0.551-0.702,0.627-1.134c0.14-0.184,0.41-0.108,0.604-0.173c0.378-0.248,0.497-0.702,0.767-1.037l0.055-0.173
			c-0.044-0.107-0.141-0.173-0.237-0.216h-1.265c-0.583,0.075-0.637,0.724-0.886,1.123c-0.14,0.249-0.41,0.346-0.691,0.324
			c-0.594-0.162-1.328-0.248-1.598-0.896c-0.033-0.162-0.033-0.367,0.086-0.476c0.313-0.367,0.681-0.777,1.069-1.08
			c0.551-0.107,1.08-0.529,1.372-1.015c0.151-0.217,0.129-0.529,0.378-0.691c0.075-0.011,0.162,0,0.216,0.075
			c0.108,0.367-0.097,0.702-0.216,1.016c1.35,0.141,2.484-0.399,3.802-0.346c0.562,0,1.069,0.108,1.62,0.075
			c0.551-0.021,1.146-0.248,1.318-0.82c0.248-0.734,0.064-1.577-0.065-2.279l0.065-0.108c0.086-0.054,0.162,0.011,0.227,0.065
			c0.237,0.658,0.399,1.458,0.497,2.182c0.097,0.638,0.378,1.21,0.724,1.75c0.638,0.95,1.75,1.328,2.862,1.091
			c1.34-0.098,2.495,0.454,3.316,1.501v0.065c-0.021,0.054-0.076,0.107-0.141,0.097c-0.713-0.551-1.415-1.134-2.322-1.253
			c-0.962-0.173-1.804,0.292-2.7-0.075c-0.983-0.324-1.739-1.34-2.128-2.236h-0.098c-0.075,0.011-0.119,0.087-0.141,0.162
			l0.13,0.778c0.151,0.626,0.346,1.36,1.016,1.652c0.519,0.313,1.025,0.767,1.674,0.583c1.135-0.248,2.279,0.076,3.144,0.713
			c0.292,0.162,0.508,0.465,0.821,0.572c0.334,0.141,0.745,0.065,1.015-0.162C193.264,86.322,193.404,87.122,193.847,87.413z
			 M173.432,72.075c0.141-0.087,0.4-0.108,0.476,0.075c0.098,0.162-0.011,0.292-0.087,0.411c-0.507,0.485-1.134,0.982-1.501,1.577
			c-0.141,0.184-0.237,0.399-0.335,0.615c-0.011,0.021-0.054,0.043-0.086,0.021c-0.098-0.303,0.021-0.615,0.097-0.896
			C172.255,73.177,172.838,72.528,173.432,72.075z M148.513,73.145c0.076-0.076,0.216-0.087,0.313-0.054
			c0.194,0.14,0.324,0.346,0.432,0.551c0.238,0.551,0.238,1.285,0.076,1.868c-0.021,0.021-0.065,0.032-0.098,0.011
			c-0.097-0.508-0.216-1.037-0.41-1.522C148.718,73.717,148.34,73.479,148.513,73.145z M174.868,82.088l-0.756,1.124
			c-0.173,0.248-0.346,0.529-0.41,0.799c-0.065,0.313-0.021,0.616,0,0.907c-0.055,0.021-0.076-0.054-0.119-0.075
			c-0.194-0.411-0.421-0.94-0.216-1.426l0.961-1.491l0.032-0.107c-0.216-0.108-0.442-0.228-0.669-0.271
			c-0.108,0.055-0.184,0.162-0.26,0.26l-0.929,1.695c-0.064,0.194-0.13,0.346-0.075,0.562c0.043,0.194,0.086,0.39,0.15,0.562
			c-2.43,3.932-6.762,6.556-11.708,6.556c-4.926,0-9.246-2.592-11.677-6.502l0.13-0.249c0.216-0.291,0.107-0.724,0.021-1.036
			c-0.422-0.529-0.659-1.113-0.886-1.707c-0.216-0.064-0.399-0.184-0.638-0.173c-0.107,0.054-0.27,0.021-0.335,0.151l0.983,1.944
			c0.064,0.151,0.141,0.367,0.097,0.562c-0.14,0.41-0.346,0.81-0.68,1.112c-0.065,0.032-0.141,0.076-0.184-0.011
			c0.107-0.421,0.312-0.886,0.291-1.372l-0.961-1.738c-0.108-0.238-0.313-0.454-0.303-0.724c0-0.13,0.108-0.217,0.216-0.26
			c0.422-0.141,0.93-0.108,1.253-0.453c0.422-0.659,0.67-1.308,0.789-2.096c0.021-0.055,0.032-0.13,0.107-0.13
			c0.076-0.021,0.087,0.064,0.13,0.098c0.119,0.863-0.054,1.738-0.551,2.408c-0.021,0.087-0.064,0.194,0.032,0.26
			c0.476,0.15,0.973,0,1.372-0.217c0.508,0.011,0.982-0.107,1.437-0.184c0.054,0.021,0.098,0.076,0.098,0.119
			c-0.313,0.346-0.486,0.734-0.573,1.188c-0.378,0.389-0.907,0.724-0.939,1.285c0.064,0.27,0.292,0.011,0.454,0.032
			c0.075,0.011,0.129,0.076,0.129,0.151l-0.378,0.551c-0.194,0.324,0.032,0.702,0.032,1.016c0.087,0.248,0.39,0.378,0.648,0.378
			c0.562-0.021,1.059-0.237,1.556-0.41c0.551-0.238,1.231-0.228,1.825-0.13c0.583-0.043,1.016-0.421,1.458-0.811
			c0.238,0,0.443,0.162,0.605,0.335c0.669,0.724,1.544,1.037,2.527,1.016l0.086-0.054c0.065-0.065,0.033-0.173-0.032-0.228
			l-0.583-0.302c-0.41-0.26-0.918-0.616-1.059-1.069c-0.13-0.411-0.346-0.864-0.594-1.264c-0.087-0.206-0.281-0.368-0.378-0.562
			c0.021-0.021,0.054-0.064,0.086-0.054c0.648,0.227,1.026,0.864,1.328,1.437c0.476,0.659,1.156,1.221,2.053,1.069l0.075-0.064
			c0.033-0.055,0.022-0.108,0-0.151l-0.442-0.227c-0.745-0.433-1.048-1.264-1.501-1.912c-0.162-0.237-0.443-0.389-0.595-0.627
			c-0.529-1.458-0.993-2.927-1.134-4.602c-0.108-0.41-0.194-0.842-0.422-1.22c-0.669-1.103-1.544-2.096-2.387-3.111
			c-0.075-0.075-0.098-0.097-0.237-0.237l-2.949-2.463c-0.237-0.184-0.508-0.324-0.777-0.454c2.484-3.64,6.653-6.038,11.374-6.038
			c4.839,0,9.095,2.506,11.546,6.298c-1.825,1.522-3.845,2.657-5.486,4.461c-1.167,1.21-1.48,2.743-1.912,4.234
			c-0.627,2.246-0.886,4.72-3.133,6.113c-0.032,0.064-0.032,0.173,0.033,0.227c0.594,0.151,1.177-0.086,1.576-0.496
			c0.389-0.616,0.8-1.199,1.318-1.761l0.13-0.065c0.064,0.011,0.14,0.055,0.107,0.141c-0.151,0.497-0.594,0.864-0.745,1.361
			c-0.194,0.604-0.767,1.059-1.253,1.49l-0.011,0.076c0,0.064,0.064,0.129,0.118,0.14c1.092,0.055,1.88-0.734,2.614-1.479
			c0.076-0.075,0.173-0.064,0.271-0.032c0.323,0.248,0.626,0.626,1.048,0.713c0.442-0.064,0.918-0.13,1.394-0.087
			c0.658,0.206,1.296,0.476,1.954,0.702c0.335-0.011,0.584-0.335,0.757-0.615c0.14-0.324-0.065-0.648-0.033-0.962
			c0.162-0.097,0.347,0.022,0.519-0.021c0.076-0.054,0.141-0.14,0.141-0.227c-0.129-0.572-0.637-0.993-0.799-1.534
			c-0.249-0.69-1.059-1.102-1.21-1.836c0.043-0.054,0.097-0.13,0.162-0.075c0.54,0.389,1.005,0.896,1.663,1.004
			c0.497,0.055,1.005,0.098,1.502,0.065c0.075-0.021,0.14-0.108,0.107-0.194c-0.216-0.454-0.41-0.896-0.529-1.383
			c-0.173-0.616-0.303-1.458-0.097-2.139c0.032-0.054,0.097-0.141,0.173-0.108c0.097,0.021,0.162,0.141,0.173,0.227
			c0.075,1.059,0.118,2.042,0.756,2.874c0.271,0.432,0.745,0.529,1.08,0.864C174.923,81.603,174.955,81.894,174.868,82.088z
			 M154.032,82.941c0.098,0,0.237-0.011,0.26,0.13c0.021,0.237,0.021,0.529-0.173,0.67c-0.238,0.075-0.497,0.097-0.757,0.086
			c-0.064-0.021-0.15-0.064-0.118-0.141C153.352,83.352,153.676,83.017,154.032,82.941z M153.827,78.632
			c0.216-0.216,0.162-0.832,0.638-0.638c0.323,0.173,0.389,0.529,0.626,0.767c0.41,0.465,0.681,0.973,0.551,1.61
			c-0.064,0.129-0.054,0.312-0.216,0.345c-0.075,0.022-0.141-0.021-0.141-0.097c-0.021-0.335-0.021-0.691-0.227-0.961
			c-0.227-0.238-0.465-0.648-0.821-0.648c-0.248,0.075-0.432,0.356-0.583,0.562c-0.011,0.021-0.054,0.021-0.075,0.011
			C153.438,79.226,153.708,78.923,153.827,78.632z M168.085,79.236c-0.237-0.011-0.378,0.184-0.562,0.292
			c-0.324,0.291-0.756,0.583-0.832,1.026c-0.064,0.161-0.032,0.389-0.173,0.475c-0.086,0.021-0.184-0.043-0.184-0.118
			c-0.054-0.573,0.141-1.124,0.562-1.513c0.411-0.335,0.691-0.799,1.026-1.188c0.184-0.043,0.324,0.098,0.4,0.238
			c0.227,0.28,0.389,0.594,0.518,0.939c0.022,0.075,0,0.151-0.021,0.227c-0.054,0.065-0.118,0.151-0.216,0.087
			C168.366,79.604,168.398,79.215,168.085,79.236z M168.571,83.806c-0.151,0.107-0.41,0.054-0.594,0.021
			c-0.228-0.13-0.271-0.389-0.303-0.638c0-0.064,0.011-0.129,0.075-0.173c0.26,0,0.519,0.065,0.702,0.271
			C168.528,83.449,168.657,83.622,168.571,83.806z M128.995,102.578c0-3.197-2.625-5.789-5.865-5.789c-0.097,0-0.194,0-0.292,0.011
			H116v19.604h4.148v-16.256l2.117,0.011c1.534,0,2.689,1.145,2.689,2.57s-1.242,2.571-2.776,2.571l-0.961-0.012v4.699l4.137,6.416
			h4.882l-5.725-8.188C127.083,107.59,128.995,105.301,128.995,102.578z M187.55,104.437l-0.011,7.031
			c0,1.178-0.994,2.128-2.226,2.128s-2.225-0.95-2.225-2.128l0.021-7.064h-3.899v7.81c0,2.646,2.722,4.785,6.081,4.785
			s6.081-2.149,6.081-4.785v-7.81L187.55,104.437z M174.458,105.722c1.069-1.005,1.718-2.333,1.718-3.813
			c0-1.328-0.508-2.56-1.404-3.521c-0.929-1.026-2.571-1.447-4.796-1.447l-6.654-0.033v19.508l8.599-0.021
			c3.294-0.054,5.951-2.549,5.951-5.617C177.86,108.541,177.083,106.953,174.458,105.722z M171.196,112.991h-3.727v-12.714h2.603
			c1.146,0,2.063,0.93,2.063,2.074s-0.929,2.074-2.063,2.074h-1.36v3.521h2.484c1.382,0,2.43,1.124,2.43,2.518
			C173.572,111.911,172.697,112.894,171.196,112.991z M200.101,95.806v20.631H204V95.806H200.101z M154.086,95.849l0.022,9.722
			c-1.037-1.026-2.409-1.652-3.91-1.652c-3.22,0-5.822,2.873-5.822,6.405c0,3.543,2.603,6.405,5.822,6.405
			c1.522,0,2.895-0.648,3.932-1.696v1.351h3.866l-0.011-20.534H154.086L154.086,95.849z M151.289,113.391
			c-1.577,0-2.862-1.404-2.862-3.144c0-1.738,1.274-3.143,2.862-3.143s2.862,1.404,2.862,3.143
			C154.151,111.986,152.877,113.391,151.289,113.391z M136.242,103.734c-3.554,0-6.438,2.938-6.438,6.546
			c0,3.618,2.884,6.556,6.438,6.556c2.711,0,4.829-1.23,5.919-3.164l-3.165-1.47c-0.399,0.875-1.339,1.491-2.441,1.491
			c-1.469,0-2.646-1.091-2.646-2.441c0-0.086-0.032-0.054-0.021-0.141h8.608c0.021-0.27,0.044-0.54,0.032-0.82
			C142.583,106.057,139.796,103.734,136.242,103.734z M133.888,108.865c0-1.318,1.069-2.398,2.376-2.398
			c1.318,0,2.376,1.069,2.376,2.398H133.888z M193.522,116.426h3.899V95.795h-3.899V116.426z"/>
	</g>
</g>
</svg>
