<svg xmlns="http://www.w3.org/2000/svg" xmlns:xlink="http://www.w3.org/1999/xlink" id="Layer_1" x="0" y="0" version="1.1" viewBox="0 0 200 180" style="enable-background:new 0 0 200 180" xml:space="preserve"><g><g><path d="M66,85.5c0.1,0.1,0.3,0.1,0.5,0c0.4-0.2,0.6-0.6,0.8-1c0-0.1-0.2-0.2-0.3-0.3c-0.1-0.1-0.2,0-0.3,0 c-0.3,0.2-0.6,0.4-0.9,0.6c-0.1,0.1-0.1,0.3-0.1,0.4C65.8,85.4,66,85.4,66,85.5z M134.1,84.6c0.1,0.3,0.3,0.6,0.5,0.8 c0.1,0.2,0.3,0.2,0.4,0.3c0.2,0,0.3-0.1,0.4-0.2c0.1-0.1,0.2-0.2,0.1-0.4c-0.2-0.3-0.6-0.5-0.9-0.8 C134.5,84.1,134.3,84.4,134.1,84.6z M136,87.5c0.1,0.1,0,0.3,0.1,0.3l0.8-0.3c0.1-0.2-0.1-0.4-0.2-0.6c-0.1-0.3,0-0.7-0.2-0.9 c-0.2-0.1-0.3-0.3-0.5-0.3c-0.2,0.2-0.4,0.3-0.4,0.6C135.8,86.7,135.9,87,136,87.5z M65.3,87.6c0.2-0.5,0.3-1,0.4-1.4v-0.1 c-0.2-0.2-0.3-0.4-0.6-0.5c-0.2,0.1-0.4,0.3-0.5,0.5c-0.1,0.4,0,0.8-0.3,1.1c0,0.1-0.1,0.2,0,0.2C64.7,87.5,65,87.6,65.3,87.6z M117.1,83.9c-0.3,0.1-0.7,0-1.1,0c-0.2,0.2-0.3,0.5-0.2,0.8c0,0.3,0.4,0.3,0.6,0.4c0.2,0,0.5,0.1,0.6-0.1c0.1-0.3,0.2-0.7,0.3-1 C117.3,83.9,117.2,83.8,117.1,83.9z M84,84.2c0.2,0.3,0.2,0.7,0.5,0.9c0.4,0.1,0.7-0.1,1-0.3c0.2-0.1-0.1-0.3-0.1-0.5 c-0.2-0.2-0.1-0.7-0.4-0.7c-0.4,0.1-0.8,0.1-1.2,0.1l-0.1,0.1C83.6,84,84,84,84,84.2z M133.8,87.4c0.4,0.4,1.1,0.2,1.6,0.2 l0.1-0.1c-0.1-0.5-0.2-0.9-0.4-1.4c-0.6,0-0.9-0.6-1.3-1c-0.3-0.4-0.9-0.6-0.9-1.1c-0.1-0.2-0.1-0.6-0.2-0.8 c-0.1-0.2-0.2-0.6-0.5-0.6c-0.5-0.1-1.2,0.1-1.5-0.4c-0.3-0.4,0-0.8,0.1-1.2c0.2-0.5,0.2-1.1,0.1-1.5c0-0.3-0.2-0.5-0.2-0.8 c0.1-0.2,0.4-0.1,0.6,0c0.7,0.2,1.5,0.1,2.1-0.2c0.9-0.4,1.6-1.3,1.5-2.3c-0.1-1.3-1.1-2.4-2.1-3.2c-0.2-0.2-0.4-0.3-0.5-0.6 c0-0.5,0.6-0.3,0.8-0.4c0.3-0.1,0.7-0.2,1-0.4c0.8-0.5,0.9-1.4,0.8-2.3c0-0.1,0-0.2-0.1-0.2c-0.1,0.1-0.3,0.3-0.4,0.4 c-0.5,0.3-1.1,0.2-1.6,0.5c-0.6,0.3-1.4,0.7-1.7,1.4c-0.1,0.4,0,0.7,0.2,1c0.8,1.2,2.4,2,2.7,3.5c0.1,0.6-0.2,1-0.7,1.4 c-0.7,0.4-1.7,0.3-2.4-0.1c-1.3-0.7-2.5-1.8-4-2.3c-0.9-0.4-2-0.3-2.8-0.9c-0.6-0.4-1.2-0.9-1.9-1.1c-0.5-0.2-1-0.1-1.4-0.4 c-0.4-0.4-0.9-0.8-1.4-1c-0.7-0.4-1.5-0.6-2.3-0.7c-0.5-0.1-0.6-0.6-1-0.9c-0.7-0.5-1.4-0.9-2.3-0.8c-0.4,0-0.6,0.2-0.9,0.5 c-2.5-3.9-6.9-6.5-11.9-6.5c-4.9,0-9.3,2.5-11.8,6.3c-0.6-0.2-1.4-0.2-2,0.1c-0.6,0.3-1.2,0.8-1.9,1c-1,0.4-2.1,0.5-2.9,1.3 c-0.5,0.4-0.9,1.1-1.6,1c-0.8,0-1.5,0.3-2.1,0.8c-0.6,0.5-1.1,1.1-1.8,1.2c-0.6,0.3-1.4,0.1-2,0.4c-1,0.2-1.8,1-2.7,1.7 c-0.9,0.5-1.7,1-2.7,1c-0.7-0.1-1.4-0.5-1.6-1.2c-0.2-0.8,0-1.6,0.6-2.1c0.6-0.8,1.6-1.2,2.1-2.1c0.3-0.5,0.2-1.2-0.1-1.7 c-0.7-0.7-1.6-0.7-2.5-0.9c-0.6-0.2-1-0.6-1.5-0.8c-0.2,0.3-0.2,0.6-0.2,1c0.1,0.8,0.7,1.5,1.4,1.8c0.4,0.2,0.9,0.1,1.4,0.2 c0.1,0.1,0.2,0.2,0.3,0.3c0,0.1,0,0.2-0.2,0.3c-0.7,0.6-1.4,1.1-2,1.9c-0.6,0.7-0.7,1.9-0.4,2.7c0.4,1,1.4,1.6,2.3,1.7 c0.7,0.1,1.3-0.1,2-0.2c0.1,0,0.1,0.1,0.2,0.1c0.1,0.6,0,1.1,0.1,1.6c0.1,0.5,0.3,0.8,0.4,1.3c0,0.2,0,0.3-0.1,0.5 c-0.4,0.3-0.7,0.5-1.1,0.6l-1,0.1l-0.2,0.1c-0.4,0.4-0.4,0.9-0.6,1.3c-0.3,0.5-0.8,0.7-1.3,1c-0.2,0.2-0.3,0.5-0.5,0.7 c-0.2,0.2-0.4,0.2-0.6,0.2C66,86.5,66,87,65.9,87.6c0.6,0.1,1.1,0.3,1.7,0.1c0.5-0.2,0.6-0.8,0.9-1.1c0.3-0.3,0.7-0.1,1,0 c0.5,0,0.8-0.3,1.2-0.5c0.3-0.2,0.5-0.5,0.8-0.7c0.6-0.3,1.4-0.1,2,0c0.5,0.1,1,0.1,1.4-0.1c0.4-0.2,0.7-0.5,1.2-0.6 c0.4-0.2,0.6-0.6,0.7-1c0.1-0.3,0.4-0.6,0.4-1c-0.1-0.1-0.2-0.3-0.4-0.3c-0.2,0.3-0.3,0.5-0.5,0.8c-0.8,1.1-2.1,1.3-3.4,1.3 c-1.4-0.1-2.6,0.4-3.5,1.4c-0.1,0-0.2,0-0.2,0c0-0.2,0.1-0.2,0.2-0.3c0.8-1.2,2.1-1.5,3.5-1.5c0.7-0.1,1.5-0.2,2.1-0.5 c0.7-0.4,1.2-1.1,1.5-1.8c0.2-0.8,0.2-1.6,0.4-2.4c0-0.1,0.1-0.1,0.2-0.1c0.1,0,0.2,0.1,0.2,0.2c-0.1,0.8-0.2,1.7,0.1,2.4 c0.6,0.8,1.7,0.2,2.5,0.2c0.8-0.1,1.6,0.2,2.4,0.3c0.4,0,0.9,0.1,1.2-0.1c0.1-0.1,0-0.3,0-0.5c0-0.2-0.2-0.5,0-0.7 c0.1-0.1,0.2,0,0.2,0c0.1,0.3,0.2,0.6,0.4,0.9c0.4,0.5,1,0.9,1.5,1.2c0.5,0.4,1,0.9,1,1.5c0,0.3-0.3,0.6-0.6,0.7 c-0.4,0.2-0.9,0.4-1.4,0.3c-0.7-0.3-0.8-1-1.3-1.5c-0.2-0.2-0.6-0.3-0.9-0.3c-0.4,0-0.7,0.1-1,0.2c-0.1,0.1-0.1,0.2-0.1,0.3 c0.2,0.4,0.5,0.8,0.7,1.2c0.3,0.2,0.7-0.1,0.9,0.2c0.2,0.3,0.3,0.7,0.7,1c0.3,0.3,0.8,0.4,1.2,0.2c0.9-0.3,1.8-0.6,2.7-1h0.3 c0.3,0,0.7,0,1-0.3c0.1-0.2,0.2-0.3,0.3-0.5c2.6,3.9,6.9,6.5,12,6.5c5,0,9.3-2.5,11.9-6.4c0,0.1,0.1,0.3,0.2,0.4 c0.2,0.3,0.6,0,0.9,0.1c0.3,0.1,0.4,0.4,0.7,0.5c0.7,0.2,1.4,0.3,2.1,0.6c0.3,0.1,0.8,0.2,1.2,0c0.4-0.2,0.6-0.7,0.6-1.1 c0.1-0.2,0.4-0.1,0.6-0.2c0.4-0.2,0.5-0.7,0.8-1l0.1-0.2c0-0.1-0.1-0.2-0.2-0.2h-1.3c-0.6,0.1-0.6,0.7-0.9,1.1 c-0.1,0.2-0.4,0.3-0.7,0.3c-0.6-0.2-1.3-0.2-1.6-0.9c0-0.2,0-0.4,0.1-0.5c0.3-0.4,0.7-0.8,1.1-1.1c0.6-0.1,1.1-0.5,1.4-1 c0.2-0.2,0.1-0.5,0.4-0.7c0.1,0,0.2,0,0.2,0.1c0.1,0.4-0.1,0.7-0.2,1c1.4,0.1,2.5-0.4,3.8-0.3c0.6,0,1.1,0.1,1.6,0.1 c0.6,0,1.1-0.2,1.3-0.8c0.2-0.7,0.1-1.6-0.1-2.3l0.1-0.1c0.1-0.1,0.2,0,0.2,0.1c0.2,0.7,0.4,1.5,0.5,2.2c0.1,0.6,0.4,1.2,0.7,1.8 c0.6,0.9,1.8,1.3,2.9,1.1c1.3-0.1,2.5,0.5,3.3,1.5v0.1c0,0.1-0.1,0.1-0.1,0.1c-0.7-0.6-1.4-1.1-2.3-1.3c-1-0.2-1.8,0.3-2.7-0.1 c-1-0.3-1.7-1.3-2.1-2.2H125c-0.1,0-0.1,0.1-0.1,0.2l0.1,0.8c0.2,0.6,0.3,1.4,1,1.7c0.5,0.3,1,0.8,1.7,0.6 c1.1-0.2,2.3,0.1,3.1,0.7c0.3,0.2,0.5,0.5,0.8,0.6c0.3,0.1,0.7,0.1,1-0.2C133.3,86.3,133.4,87.1,133.8,87.4z M113.4,72.1 c0.1-0.1,0.4-0.1,0.5,0.1c0.1,0.2,0,0.3-0.1,0.4c-0.5,0.5-1.1,1-1.5,1.6c-0.1,0.2-0.2,0.4-0.3,0.6c0,0-0.1,0-0.1,0 c-0.1-0.3,0-0.6,0.1-0.9C112.3,73.2,112.8,72.5,113.4,72.1z M88.5,73.1c0.1-0.1,0.2-0.1,0.3-0.1c0.2,0.1,0.3,0.3,0.4,0.6 c0.2,0.6,0.2,1.3,0.1,1.9c0,0-0.1,0-0.1,0c-0.1-0.5-0.2-1-0.4-1.5C88.7,73.7,88.3,73.5,88.5,73.1z M114.9,82.1l-0.8,1.1 c-0.2,0.2-0.3,0.5-0.4,0.8c-0.1,0.3,0,0.6,0,0.9c-0.1,0-0.1-0.1-0.1-0.1c-0.2-0.4-0.4-0.9-0.2-1.4l1-1.5l0-0.1 c-0.2-0.1-0.4-0.2-0.7-0.3c-0.1,0.1-0.2,0.2-0.3,0.3l-0.9,1.7c-0.1,0.2-0.1,0.3-0.1,0.6c0,0.2,0.1,0.4,0.1,0.6 c-2.4,3.9-6.8,6.6-11.7,6.6c-4.9,0-9.2-2.6-11.7-6.5l0.1-0.2c0.2-0.3,0.1-0.7,0-1c-0.4-0.5-0.7-1.1-0.9-1.7 c-0.2-0.1-0.4-0.2-0.6-0.2c-0.1,0.1-0.3,0-0.3,0.2l1,1.9c0.1,0.2,0.1,0.4,0.1,0.6c-0.1,0.4-0.3,0.8-0.7,1.1c-0.1,0-0.1,0.1-0.2,0 c0.1-0.4,0.3-0.9,0.3-1.4l-1-1.7c-0.1-0.2-0.3-0.5-0.3-0.7c0-0.1,0.1-0.2,0.2-0.3c0.4-0.1,0.9-0.1,1.3-0.5 c0.4-0.7,0.7-1.3,0.8-2.1c0-0.1,0-0.1,0.1-0.1c0.1,0,0.1,0.1,0.1,0.1c0.1,0.9-0.1,1.7-0.6,2.4c0,0.1-0.1,0.2,0,0.3 c0.5,0.2,1,0,1.4-0.2c0.5,0,1-0.1,1.4-0.2c0.1,0,0.1,0.1,0.1,0.1c-0.3,0.3-0.5,0.7-0.6,1.2c-0.4,0.4-0.9,0.7-0.9,1.3 c0.1,0.3,0.3,0,0.5,0c0.1,0,0.1,0.1,0.1,0.2l-0.4,0.6c-0.2,0.3,0,0.7,0,1c0.1,0.2,0.4,0.4,0.6,0.4c0.6,0,1.1-0.2,1.6-0.4 c0.6-0.2,1.2-0.2,1.8-0.1c0.6,0,1-0.4,1.5-0.8c0.2,0,0.4,0.2,0.6,0.3c0.7,0.7,1.5,1,2.5,1l0.1-0.1c0.1-0.1,0-0.2,0-0.2L98.4,85 c-0.4-0.3-0.9-0.6-1.1-1.1c-0.1-0.4-0.3-0.9-0.6-1.3c-0.1-0.2-0.3-0.4-0.4-0.6c0,0,0.1-0.1,0.1-0.1c0.6,0.2,1,0.9,1.3,1.4 c0.5,0.7,1.2,1.2,2.1,1.1l0.1-0.1c0-0.1,0-0.1,0-0.2l-0.4-0.2c-0.7-0.4-1-1.3-1.5-1.9c-0.2-0.2-0.4-0.4-0.6-0.6 c-0.5-1.5-1-2.9-1.1-4.6c-0.1-0.4-0.2-0.8-0.4-1.2c-0.7-1.1-1.5-2.1-2.4-3.1c-0.1-0.1-0.1-0.1-0.2-0.2l-2.9-2.5 c-0.2-0.2-0.5-0.3-0.8-0.5c2.5-3.6,6.7-6,11.4-6c4.8,0,9.1,2.5,11.5,6.3c-1.8,1.5-3.8,2.7-5.5,4.5c-1.2,1.2-1.5,2.7-1.9,4.2 c-0.6,2.2-0.9,4.7-3.1,6.1c0,0.1,0,0.2,0,0.2c0.6,0.2,1.2-0.1,1.6-0.5c0.4-0.6,0.8-1.2,1.3-1.8l0.1-0.1c0.1,0,0.1,0.1,0.1,0.1 c-0.2,0.5-0.6,0.9-0.7,1.4c-0.2,0.6-0.8,1.1-1.3,1.5l0,0.1c0,0.1,0.1,0.1,0.1,0.1c1.1,0.1,1.9-0.7,2.6-1.5c0.1-0.1,0.2-0.1,0.3,0 c0.3,0.2,0.6,0.6,1,0.7c0.4-0.1,0.9-0.1,1.4-0.1c0.7,0.2,1.3,0.5,2,0.7c0.3,0,0.6-0.3,0.8-0.6c0.1-0.3-0.1-0.6,0-1 c0.2-0.1,0.3,0,0.5,0c0.1-0.1,0.1-0.1,0.1-0.2c-0.1-0.6-0.6-1-0.8-1.5c-0.2-0.7-1.1-1.1-1.2-1.8c0-0.1,0.1-0.1,0.2-0.1 c0.5,0.4,1,0.9,1.7,1c0.5,0.1,1,0.1,1.5,0.1c0.1,0,0.1-0.1,0.1-0.2c-0.2-0.5-0.4-0.9-0.5-1.4c-0.2-0.6-0.3-1.5-0.1-2.1 c0-0.1,0.1-0.1,0.2-0.1c0.1,0,0.2,0.1,0.2,0.2c0.1,1.1,0.1,2,0.8,2.9c0.3,0.4,0.7,0.5,1.1,0.9C114.9,81.6,115,81.9,114.9,82.1z M94,82.9c0.1,0,0.2,0,0.3,0.1c0,0.2,0,0.5-0.2,0.7c-0.2,0.1-0.5,0.1-0.8,0.1c-0.1,0-0.1-0.1-0.1-0.1C93.4,83.4,93.7,83,94,82.9z M93.8,78.6c0.2-0.2,0.2-0.8,0.6-0.6c0.3,0.2,0.4,0.5,0.6,0.8c0.4,0.5,0.7,1,0.6,1.6c-0.1,0.1-0.1,0.3-0.2,0.3 c-0.1,0-0.1,0-0.1-0.1c0-0.3,0-0.7-0.2-1c-0.2-0.2-0.5-0.6-0.8-0.6c-0.2,0.1-0.4,0.4-0.6,0.6c0,0-0.1,0-0.1,0 C93.4,79.2,93.7,78.9,93.8,78.6z M108.1,79.2c-0.2,0-0.4,0.2-0.6,0.3c-0.3,0.3-0.8,0.6-0.8,1c-0.1,0.2,0,0.4-0.2,0.5 c-0.1,0-0.2,0-0.2-0.1c-0.1-0.6,0.1-1.1,0.6-1.5c0.4-0.3,0.7-0.8,1-1.2c0.2,0,0.3,0.1,0.4,0.2c0.2,0.3,0.4,0.6,0.5,0.9 c0,0.1,0,0.2,0,0.2c-0.1,0.1-0.1,0.2-0.2,0.1C108.4,79.6,108.4,79.2,108.1,79.2z M108.6,83.8c-0.2,0.1-0.4,0.1-0.6,0 c-0.2-0.1-0.3-0.4-0.3-0.6c0-0.1,0-0.1,0.1-0.2c0.3,0,0.5,0.1,0.7,0.3C108.5,83.4,108.7,83.6,108.6,83.8z M69,102.6 c0-3.2-2.6-5.8-5.9-5.8c-0.1,0-0.2,0-0.3,0H56v19.6h4.1v-16.3l2.1,0c1.5,0,2.7,1.1,2.7,2.6s-1.2,2.6-2.8,2.6l-1,0v4.7l4.1,6.4h4.9 l-5.7-8.2C67.1,107.6,69,105.3,69,102.6z M127.6,104.4l0,7c0,1.2-1,2.1-2.2,2.1s-2.2-0.9-2.2-2.1l0-7.1h-3.9v7.8 c0,2.6,2.7,4.8,6.1,4.8s6.1-2.1,6.1-4.8v-7.8L127.6,104.4z M114.5,105.7c1.1-1,1.7-2.3,1.7-3.8c0-1.3-0.5-2.6-1.4-3.5 c-0.9-1-2.6-1.4-4.8-1.4l-6.7,0v19.5l8.6,0c3.3-0.1,6-2.5,6-5.6C117.9,108.5,117.1,107,114.5,105.7z M111.2,113h-3.7v-12.7h2.6 c1.1,0,2.1,0.9,2.1,2.1s-0.9,2.1-2.1,2.1h-1.4v3.5h2.5c1.4,0,2.4,1.1,2.4,2.5C113.6,111.9,112.7,112.9,111.2,113z M140.1,95.8 v20.6h3.9V95.8H140.1z M94.1,95.8l0,9.7c-1-1-2.4-1.7-3.9-1.7c-3.2,0-5.8,2.9-5.8,6.4c0,3.5,2.6,6.4,5.8,6.4 c1.5,0,2.9-0.6,3.9-1.7v1.4H98l0-20.5L94.1,95.8L94.1,95.8z M91.3,113.4c-1.6,0-2.9-1.4-2.9-3.1c0-1.7,1.3-3.1,2.9-3.1 s2.9,1.4,2.9,3.1S92.9,113.4,91.3,113.4z M76.2,103.7c-3.6,0-6.4,2.9-6.4,6.5c0,3.6,2.9,6.6,6.4,6.6c2.7,0,4.8-1.2,5.9-3.2 l-3.2-1.5c-0.4,0.9-1.3,1.5-2.4,1.5c-1.5,0-2.6-1.1-2.6-2.4c0-0.1,0-0.1,0-0.1h8.6c0-0.3,0-0.5,0-0.8 C82.6,106.1,79.8,103.7,76.2,103.7z M73.9,108.9c0-1.3,1.1-2.4,2.4-2.4c1.3,0,2.4,1.1,2.4,2.4H73.9z M133.5,116.4h3.9V95.8h-3.9 V116.4z"/></g></g></svg>