<?xml version="1.0" encoding="utf-8"?>
<!-- Generator: Adobe Illustrator 25.3.1, SVG Export Plug-In . SVG Version: 6.00 Build 0)  -->
<svg version="1.1" id="Layer_1" xmlns="http://www.w3.org/2000/svg" xmlns:xlink="http://www.w3.org/1999/xlink" x="0px" y="0px"
	 viewBox="0 0 200 180" style="enable-background:new 0 0 200 180;" xml:space="preserve">
<style type="text/css">
	.st0{fill-rule:evenodd;clip-rule:evenodd;fill:#1F1F1F;}
</style>
<desc>Created with Sketch.</desc>
<g id="Logo_x2F_Tupperware">
	<path id="Fill-1" class="st0" d="M172.1,79.5c0-0.7,0.6-1.3,1.3-1.3c0.7,0,1.3,0.6,1.3,1.3c0,0.7-0.6,1.3-1.3,1.3
		C172.7,80.9,172.1,80.3,172.1,79.5z M173.5,81.1c0.9,0,1.5-0.7,1.5-1.5c0-0.9-0.7-1.5-1.5-1.5c-0.9,0-1.5,0.7-1.5,1.5
		C171.9,80.4,172.6,81.1,173.5,81.1z M173.1,79.5h0.3c0.2,0,0.4,0,0.4-0.3c0-0.2-0.2-0.2-0.3-0.2h-0.3V79.5z M172.9,78.8h0.6
		c0.4,0,0.6,0.1,0.6,0.4c0,0.3-0.2,0.4-0.4,0.4l0.4,0.7h-0.3l-0.4-0.7h-0.3v0.7h-0.2V78.8z M149.1,82.4h4.4V85h0.1
		c0.7-1.9,2.2-2.8,4.2-2.8c0.3,0,0.3,0,0.7,0.1v4.4c0,0-0.8,0-1.4,0c-2.3,0-3.5,1.6-3.5,3.5V97h-4.6V82.4z M163.2,90.9
		c0.1,2,1.2,3.3,3.1,3.3c1.1,0,2.2-0.5,2.6-1.6h4.3c-0.8,3.4-3.8,4.8-7,4.8c-4.6,0-7.7-2.9-7.7-7.7c0-4.5,3.4-7.7,7.6-7.7
		c5,0,7.5,3.9,7.3,8.9H163.2z M168.9,88.2c-0.1-1.6-1.2-3-2.7-3c-1.6,0-2.7,1.2-3,3H168.9z M134.3,86.9c0.1-1.9,0.9-3.1,2.2-3.9
		c1.2-0.7,2.9-1,4.4-1c3.3,0,6.5,0.8,6.5,4.9v6.4V97h-4.3c0,0,0-0.9,0-1.4c-1.2,1.3-2.9,1.8-4.6,1.8c-2.7,0-4.8-1.4-4.8-4.4
		c0-4.7,5-4.4,8.1-5.1c0.8-0.2,1.2-0.4,1.2-1.3c0-1.1-1.3-1.5-2.2-1.5c-1.3,0-2.1,0.6-2.3,1.8H134.3z M140.2,94.5
		c2.2,0,2.9-1.3,2.8-4.3c-0.6,0.4-1.8,0.5-2.8,0.8c-1,0.3-1.9,0.7-1.9,1.9C138.3,94,139.2,94.5,140.2,94.5z M130.1,97h-4.6l-2.2-9.7
		h-0.1L121,97h-4.6L112,82.4h4.6l2.3,9.4h0.1l2-9.4h4.4l2.1,9.4h0.1l2.3-9.4h4.7L130.1,97z M102,82.4h4.4V85h0.1
		c0.7-1.9,2.2-2.8,4.2-2.8c0.3,0,0.3,0,0.7,0.1v4.4c0,0-0.7,0-1.4,0c-2.3,0-3.5,1.6-3.5,3.5V97H102V82.4z M90.7,90.9
		c0.1,2,1.2,3.3,3.1,3.3c1.1,0,2.2-0.5,2.6-1.6h4.3c-0.8,3.4-3.8,4.8-7,4.8c-4.6,0-7.7-2.9-7.7-7.7c0-4.5,3.4-7.7,7.5-7.7
		c5,0,7.5,3.9,7.3,8.9H90.7z M96.4,88.2c-0.1-1.6-1.2-3-2.7-3c-1.6,0-2.7,1.2-3,3H96.4z M70.8,82.4h4.4v1.7h0.1
		c0.9-1.4,2.2-2.1,3.9-2.1c4.4,0,6.3,3.9,6.3,8c0,3.8-1.9,7.4-5.9,7.4c-1.7,0-3-0.7-4-2h-0.1v5.8h-4.6V82.4z M75.2,89.6
		c0,2.6,0.7,4.2,2.8,4.2c2.1,0,2.8-2.2,2.8-4.2c0-1.9-0.7-3.9-2.7-3.9C76.8,85.6,75.2,86.5,75.2,89.6z M55.3,82.4h4.4v1.7h0.1
		c0.9-1.4,2.2-2.1,3.9-2.1c4.4,0,6.3,3.9,6.3,8c0,3.8-1.9,7.4-5.9,7.4c-1.7,0-3-0.7-4-2h-0.1v5.8h-4.6V82.4z M59.7,89.6
		c0,2.6,0.7,4.2,2.8,4.2c2.1,0,2.8-2.2,2.8-4.2c0-1.9-0.7-3.9-2.7-3.9C61.3,85.6,59.7,86.5,59.7,89.6z M53.6,97h-4.5v-2h-0.1
		c-0.9,1.5-2.6,2.4-4.3,2.4c-4,0-5.2-2.4-5.2-6.2v-8.8h4.6v8.5c0,1.9,0.8,2.6,2.3,2.6c1,0,2.5-0.7,2.5-3.3v-7.8h4.6V97z M39.7,82.5
		H35V97h-5V82.5H25V78h14.7V82.5z"/>
</g>
</svg>
