<?xml version="1.0" encoding="UTF-8"?>
<svg width="320px" height="180px" viewBox="0 0 320 180" version="1.1" xmlns="http://www.w3.org/2000/svg" xmlns:xlink="http://www.w3.org/1999/xlink">
    <!-- Generator: Sketch 52.5 (67469) - http://www.bohemiancoding.com/sketch -->
    <title>Logo/Tupperware</title>
    <desc>Created with Sketch.</desc>
    <g id="Logo/Tupperware" stroke="none" stroke-width="1" fill="none" fill-rule="evenodd">
        <path d="M232.106786,79.5464286 C232.106786,78.8017857 232.71,78.1985714 233.456071,78.1985714 C234.198214,78.1985714 234.8025,78.8017857 234.8025,79.5464286 C234.8025,80.2914286 234.198214,80.8932143 233.456071,80.8932143 C232.71,80.8932143 232.106786,80.2914286 232.106786,79.5464286 Z M233.456071,81.0914286 C234.307857,81.0914286 235,80.4003571 235,79.5464286 C235,78.6942857 234.307857,78 233.456071,78 C232.601429,78 231.91,78.6942857 231.91,79.5464286 C231.91,80.4003571 232.601429,81.0914286 233.456071,81.0914286 Z M233.126429,79.4610714 L233.381071,79.4610714 C233.596786,79.4610714 233.789643,79.4557143 233.789643,79.2092857 C233.789643,78.9985714 233.613929,78.9735714 233.450357,78.9735714 L233.126429,78.9735714 L233.126429,79.4610714 Z M232.876429,78.7714286 L233.489286,78.7714286 C233.8625,78.7714286 234.04,78.9157143 234.04,79.22 C234.04,79.5010714 233.861071,79.6207143 233.627857,79.6471429 L234.076071,80.3410714 L233.8075,80.3410714 L233.379286,79.665 L233.126429,79.665 L233.126429,80.3410714 L232.876429,80.3410714 L232.876429,78.7714286 Z M209.117857,82.4392857 L213.564643,82.4392857 L213.564643,84.995 L213.620357,84.995 C214.293571,83.1389286 215.855714,82.1557143 217.827143,82.1557143 C218.175,82.1557143 218.170714,82.1832143 218.522857,82.27 L218.522857,86.6335714 C218.522857,86.6335714 217.772143,86.635 217.152857,86.635 C214.887143,86.635 213.701429,88.2639286 213.701429,90.0882143 L213.701429,97.0157143 L209.117857,97.0157143 L209.117857,82.4392857 Z M223.167857,90.8714286 C223.248929,92.8667857 224.353571,94.1875 226.296786,94.1875 C227.400357,94.1875 228.478929,93.6517857 228.911071,92.5875 L233.1975,92.5875 C232.361071,95.9567857 229.366786,97.4164286 226.240357,97.4164286 C221.683929,97.4164286 218.581429,94.5507143 218.581429,89.6667857 C218.581429,85.2 222.01,81.9975 226.135,81.9975 C231.148571,81.9975 233.656071,85.93 233.441071,90.8714286 L223.167857,90.8714286 Z M228.854643,88.2032143 C228.7775,86.5757143 227.671786,85.2292857 226.135,85.2292857 C224.514643,85.2292857 223.436429,86.4339286 223.167857,88.2032143 L228.854643,88.2032143 Z M194.284286,86.9117857 C194.363929,85.0017857 195.225714,83.7667857 196.467857,83.0092857 C197.708571,82.2782143 199.325,81.9975 200.916071,81.9975 C204.231071,81.9975 207.441786,82.7560714 207.441786,86.8828571 L207.441786,93.2592857 L207.441786,96.9964286 L203.140714,96.9964286 C203.140714,96.9964286 203.154286,96.0957143 203.100357,95.6192857 C201.916429,96.9135714 200.162143,97.4164286 198.49,97.4164286 C195.822143,97.4164286 193.7175,96.0117857 193.7175,93.0060714 C193.7175,88.2596429 198.677857,88.6246429 201.86,87.9514286 C202.643571,87.7832143 203.074286,87.5025 203.074286,86.6032143 C203.074286,85.5085714 201.806071,85.0842857 200.863214,85.0842857 C199.596429,85.0842857 198.787857,85.6764286 198.570714,86.9117857 L194.284286,86.9117857 Z M200.214286,94.4667857 C202.398929,94.4667857 203.129286,93.1767857 203.019286,90.1710714 C202.373571,90.5907143 201.186786,90.6764286 200.189643,90.9557143 C199.164643,91.2103571 198.302143,91.6582143 198.302143,92.8117857 C198.302143,93.9903571 199.19,94.4667857 200.214286,94.4667857 Z M190.116071,96.9964286 L185.479643,96.9964286 L183.267857,87.3067857 L183.216071,87.3067857 L181.029643,96.9964286 L176.392857,96.9964286 L172.021786,82.4175 L176.66,82.4175 L179.008214,91.8546429 L179.062143,91.8546429 L181.0575,82.4175 L185.423571,82.4175 L187.473571,91.8257143 L187.528929,91.8257143 L189.818571,82.4175 L194.483571,82.4175 L190.116071,96.9964286 Z M162.037857,82.4175 L166.486786,82.4175 L166.486786,84.9742857 L166.541786,84.9742857 C167.213571,83.1210714 168.779286,82.1364286 170.748214,82.1364286 C171.096429,82.1364286 171.095357,82.1653571 171.443571,82.2492857 L171.443571,86.6128571 C171.443571,86.6128571 170.694643,86.6167857 170.075,86.6167857 C167.807857,86.6167857 166.623571,88.2442857 166.623571,90.0717857 L166.623571,96.9964286 L162.037857,96.9964286 L162.037857,82.4175 Z M150.748929,90.8714286 C150.831429,92.8667857 151.933929,94.1875 153.8775,94.1875 C154.983571,94.1875 156.060357,93.6517857 156.494286,92.5875 L160.778929,92.5875 C159.941786,95.9567857 156.95,97.4164286 153.824286,97.4164286 C149.266786,97.4164286 146.167143,94.5507143 146.167143,89.6667857 C146.167143,85.2 149.591071,81.9975 153.715357,81.9975 C158.7325,81.9975 161.238929,85.93 161.023571,90.8714286 L150.748929,90.8714286 Z M156.438929,88.2032143 C156.360714,86.5757143 155.252143,85.2292857 153.715357,85.2292857 C152.098929,85.2292857 151.021429,86.4339286 150.748929,88.2032143 L156.438929,88.2032143 Z M130.802143,82.4175 L135.170357,82.4175 L135.170357,84.1028571 L135.224643,84.1028571 C136.112857,82.7271429 137.462143,81.9975 139.078571,81.9975 C143.475357,81.9975 145.335714,85.93 145.335714,90.0292857 C145.335714,93.8225 143.395357,97.4164286 139.429286,97.4164286 C137.704643,97.4164286 136.384286,96.7428571 135.438214,95.4225 L135.387857,95.4225 L135.387857,101.225 L130.802143,101.225 L130.802143,82.4175 Z M135.224643,89.5528571 C135.224643,92.1082143 135.925714,93.7632143 138.000714,93.7632143 C140.052143,93.7632143 140.7525,91.5464286 140.7525,89.5528571 C140.7525,87.6992857 140.052143,85.6475 138.030357,85.6475 C136.7875,85.6475 135.224643,86.5482143 135.224643,89.5528571 Z M115.300714,82.4175 L119.6675,82.4175 L119.6675,84.1028571 L119.723214,84.1028571 C120.614286,82.7271429 121.960714,81.9975 123.578929,81.9975 C127.973214,81.9975 129.835357,85.93 129.835357,90.0292857 C129.835357,93.8225 127.891786,97.4164286 123.928571,97.4164286 C122.203214,97.4164286 120.881071,96.7428571 119.938214,95.4225 L119.885,95.4225 L119.885,101.225 L115.300714,101.225 L115.300714,82.4175 Z M119.723214,89.5528571 C119.723214,92.1082143 120.424286,93.7632143 122.499286,93.7632143 C124.55,93.7632143 125.251786,91.5464286 125.251786,89.5528571 C125.251786,87.6992857 124.55,85.6475 122.528214,85.6475 C121.286786,85.6475 119.723214,86.5482143 119.723214,89.5528571 Z M113.631071,96.9964286 L109.180714,96.9964286 L109.180714,95.0010714 L109.129286,95.0010714 C108.264643,96.4896429 106.483929,97.4164286 104.866429,97.4164286 C100.848929,97.4164286 99.6889286,95.0010714 99.6889286,91.1817857 L99.6889286,82.4175 L104.275357,82.4175 L104.275357,90.8714286 C104.275357,92.8117857 105.0825,93.4835714 106.539286,93.4835714 C107.536071,93.4835714 109.046786,92.8117857 109.046786,90.2271429 L109.046786,82.4175 L113.631071,82.4175 L113.631071,96.9964286 Z M99.7317857,82.4653571 L94.9507143,82.4653571 L94.9507143,97.0157143 L89.9346429,97.0157143 L89.9346429,82.4653571 L85,82.4653571 L85,78 L99.7317857,78 L99.7317857,82.4653571 Z" id="Fill-1" fill="#1F1F1F"></path>
    </g>
</svg>